{"glyphs":{"0":{"ha":618,"x_min":83,"x_max":535,"o":"m 442 725 q 309 861 442 861 q 176 725 176 861 l 176 207 q 309 71 176 71 q 442 207 442 71 l 442 725 m 83 726 q 139 886 83 826 q 309 946 194 946 q 479 886 424 946 q 535 726 535 826 l 535 206 q 479 46 535 106 q 309 -14 424 -14 q 139 46 194 -14 q 83 206 83 106 l 83 726 z "},"1":{"ha":383,"x_min":15,"x_max":286,"o":"m 286 932 l 286 0 l 192 0 l 192 836 l 15 708 l 15 815 l 176 932 l 286 932 z "},"2":{"ha":554,"x_min":60,"x_max":492,"o":"m 246 939 q 489 743 489 939 l 489 664 q 464 538 488 585 q 381 450 440 490 l 274 375 q 179 294 204 328 q 154 197 154 260 l 154 88 l 492 88 l 492 0 l 60 0 l 60 200 q 97 338 60 288 q 211 442 133 389 l 319 518 q 378 580 363 546 q 394 669 394 614 l 394 739 q 363 824 394 796 q 242 851 332 851 q 75 824 153 851 l 75 915 q 246 939 146 939 z "},"3":{"ha":543,"x_min":36,"x_max":461,"o":"m 213 939 q 456 740 456 939 l 456 644 q 353 468 456 510 q 461 299 461 433 l 461 193 q 400 46 461 99 q 224 -7 339 -7 q 36 18 108 -7 l 36 111 q 208 79 118 79 q 332 109 297 79 q 367 197 367 139 l 367 290 q 233 424 367 424 l 139 424 l 139 510 l 233 510 q 333 544 304 510 q 361 646 361 579 l 361 736 q 329 823 361 793 q 208 853 297 853 q 54 829 118 853 l 54 919 q 213 939 117 939 z "},"4":{"ha":560,"x_min":14,"x_max":553,"o":"m 553 258 l 553 175 l 458 175 l 458 0 l 367 0 l 367 175 l 14 175 l 14 261 l 311 932 l 458 932 l 458 258 l 553 258 m 368 258 l 368 857 l 103 258 l 368 258 z "},"5":{"ha":581,"x_min":81,"x_max":507,"o":"m 86 932 l 485 932 l 485 844 l 181 844 l 181 544 q 296 551 232 551 q 456 497 404 551 q 507 344 507 442 l 507 192 q 444 46 507 99 q 274 -7 382 -7 q 81 21 167 -7 l 81 114 q 256 79 171 79 q 413 196 413 79 l 413 339 q 385 434 413 404 q 285 464 357 464 q 86 449 251 464 l 86 932 z "},"6":{"ha":600,"x_min":83,"x_max":535,"o":"m 442 379 q 317 496 442 496 q 176 463 233 496 l 176 206 q 309 69 176 69 q 442 206 442 69 l 442 379 m 83 721 q 144 878 83 818 q 317 939 204 939 q 503 914 431 939 l 503 824 q 331 851 429 851 q 176 717 176 851 l 176 550 q 333 581 240 581 q 480 530 425 581 q 535 383 535 479 l 535 206 q 479 46 535 106 q 309 -14 424 -14 q 139 46 194 -14 q 83 206 83 106 l 83 721 z "},"7":{"ha":454,"x_min":7,"x_max":421,"o":"m 7 932 l 421 932 l 421 857 l 329 569 q 269 344 288 436 q 251 136 251 251 l 251 0 l 156 0 l 156 140 q 174 350 156 257 q 235 575 193 443 l 321 846 l 7 846 l 7 932 z "},"8":{"ha":631,"x_min":83,"x_max":549,"o":"m 544 732 l 544 640 q 446 464 544 510 q 549 288 549 417 l 549 200 q 490 44 549 101 q 316 -14 432 -14 q 142 44 200 -14 q 83 200 83 101 l 83 288 q 186 464 83 417 q 86 640 86 511 l 86 732 q 143 888 86 831 q 316 946 200 946 q 488 888 432 946 q 544 732 544 831 m 181 732 l 181 639 q 316 504 181 504 q 451 639 451 504 l 451 732 q 316 863 451 863 q 181 732 181 863 m 454 200 l 454 289 q 315 424 454 424 q 176 289 176 424 l 176 200 q 315 69 176 69 q 454 200 454 69 z "},"9":{"ha":600,"x_min":64,"x_max":517,"o":"m 424 726 q 291 861 424 861 q 158 726 158 861 l 158 549 q 285 425 158 425 q 424 458 374 425 l 424 726 m 64 726 q 120 886 64 826 q 291 946 176 946 q 461 886 406 946 q 517 726 517 826 l 517 204 q 455 51 517 108 q 268 -7 393 -7 q 90 19 176 -7 l 90 111 q 267 79 175 79 q 424 208 424 79 l 424 369 q 271 340 367 340 q 119 394 175 340 q 64 544 64 449 l 64 726 z "},"\r":{"ha":0,"x_min":0,"x_max":0,"o":""}," ":{"ha":263,"x_min":0,"x_max":0,"o":""},"!":{"ha":339,"x_min":111,"x_max":228,"o":"m 228 53 q 228 23 228 53 q 169 -8 228 -8 q 111 53 111 -8 q 169 115 111 115 q 228 53 228 115 m 118 932 l 221 932 l 208 236 l 129 236 l 118 932 z "},"\"":{"ha":475,"x_min":113,"x_max":361,"o":"m 113 1032 l 196 1032 l 196 754 l 113 754 l 113 1032 m 278 1032 l 361 1032 l 361 754 l 278 754 l 278 1032 z "},"#":{"ha":732,"x_min":51,"x_max":699,"o":"m 699 603 l 581 603 l 538 304 l 644 304 l 644 232 l 526 232 l 493 0 l 411 0 l 444 232 l 243 232 l 210 0 l 129 0 l 163 232 l 51 232 l 51 304 l 174 304 l 217 603 l 106 603 l 106 674 l 228 674 l 261 907 l 342 907 l 308 674 l 510 674 l 543 907 l 625 907 l 592 674 l 699 674 l 699 603 m 456 304 l 499 603 l 297 603 l 254 304 l 456 304 z "},"$":{"ha":536,"x_min":39,"x_max":492,"o":"m 492 268 l 492 193 q 296 -3 492 22 l 296 -104 l 210 -104 l 210 -7 q 46 21 108 -3 l 46 111 q 231 79 131 79 q 396 199 396 79 l 396 258 q 379 331 396 304 q 319 381 363 358 l 160 468 q 39 663 39 535 l 39 744 q 85 874 39 824 q 222 936 132 924 l 222 1021 l 308 1021 l 308 939 q 456 917 396 935 l 456 826 q 279 851 388 851 q 135 742 135 851 l 135 672 q 153 595 135 625 q 217 542 172 565 l 378 451 q 492 268 492 392 z "},"%":{"ha":779,"x_min":49,"x_max":731,"o":"m 465 38 q 445 64 465 38 q 426 183 426 89 q 465 329 426 278 q 578 381 503 381 q 692 329 653 381 q 731 183 731 278 q 692 38 731 89 q 578 -12 653 -12 q 465 38 503 -12 m 503 184 q 503 121 503 184 q 578 58 503 58 q 653 184 653 58 q 578 310 653 310 q 503 184 503 310 m 201 551 q 164 551 201 551 q 88 603 126 551 q 49 748 49 654 q 88 893 49 842 q 201 944 126 944 q 314 893 275 944 q 353 748 353 842 q 314 603 353 654 q 201 551 275 551 m 201 622 q 239 622 201 622 q 276 748 276 622 q 201 874 276 874 q 125 748 125 874 q 201 622 125 622 m 539 932 l 611 932 l 240 0 l 168 0 l 539 932 z "},"&":{"ha":632,"x_min":74,"x_max":611,"o":"m 611 521 l 611 438 l 553 438 l 553 206 q 492 48 553 108 q 316 -12 432 -12 q 137 48 200 -12 q 74 206 74 108 l 74 304 q 182 479 74 440 q 75 656 75 521 l 75 732 q 139 883 75 828 q 335 939 203 939 q 510 914 432 939 l 510 822 q 336 850 429 850 q 206 818 243 850 q 169 728 169 786 l 169 657 q 294 521 169 521 l 461 521 l 461 601 l 553 601 l 553 521 l 611 521 m 461 207 l 461 438 l 297 438 q 168 303 168 438 l 168 207 q 206 108 168 144 q 316 71 243 71 q 425 108 389 71 q 461 207 461 144 z "},"'":{"ha":308,"x_min":113,"x_max":196,"o":"m 113 1032 l 196 1032 l 196 754 l 113 754 l 113 1032 z "},"(":{"ha":390,"x_min":96,"x_max":308,"o":"m 308 1082 q 214 772 249 940 q 179 451 179 604 q 214 128 179 297 q 308 -181 249 -40 l 225 -181 q 131 120 165 -51 q 96 451 96 292 q 131 781 96 610 q 225 1082 165 951 l 308 1082 z "},")":{"ha":390,"x_min":82,"x_max":294,"o":"m 165 1082 q 260 781 225 951 q 294 451 294 610 q 260 120 294 292 q 165 -181 225 -51 l 82 -181 q 176 128 142 -40 q 211 451 211 297 q 176 772 211 604 q 82 1082 142 940 l 165 1082 z "},"*":{"ha":685,"x_min":86,"x_max":603,"o":"m 304 947 l 304 1088 l 385 1088 l 385 947 q 372 868 385 900 q 443 904 399 889 l 578 949 l 603 871 l 469 828 q 390 814 426 814 q 446 758 417 797 l 529 644 l 464 596 l 381 710 q 344 781 350 751 q 308 711 333 744 l 225 596 l 160 644 l 243 757 q 297 814 269 793 q 221 826 265 811 l 86 869 l 111 947 l 244 904 q 317 867 288 890 q 304 947 304 899 z "},"+":{"ha":606,"x_min":57,"x_max":549,"o":"m 549 490 l 549 413 l 346 413 l 346 204 l 260 204 l 260 413 l 57 413 l 57 490 l 260 490 l 260 696 l 346 696 l 346 490 l 549 490 z "},",":{"ha":199,"x_min":8,"x_max":160,"o":"m 113 114 q 160 71 160 114 q 64 -175 160 8 l 8 -175 l 65 114 l 113 114 z "},"-":{"ha":313,"x_min":56,"x_max":264,"o":"m 56 490 l 264 490 l 264 413 l 56 413 l 56 490 z "},".":{"ha":204,"x_min":43,"x_max":160,"o":"m 160 53 q 160 23 160 53 q 101 -8 160 -8 q 43 53 43 -8 q 101 115 43 115 q 160 53 160 115 z "},"/":{"ha":521,"x_min":44,"x_max":499,"o":"m 415 1083 l 499 1083 l 128 -181 l 44 -181 l 415 1083 z "},":":{"ha":278,"x_min":43,"x_max":160,"o":"m 160 53 q 160 23 160 53 q 101 -8 160 -8 q 43 53 43 -8 q 101 115 43 115 q 160 53 160 115 m 160 540 q 160 509 160 540 q 101 478 160 478 q 43 540 43 478 q 101 601 43 601 q 160 540 160 601 z "},";":{"ha":274,"x_min":8,"x_max":160,"o":"m 160 540 q 160 509 160 540 q 101 478 160 478 q 43 540 43 478 q 101 601 43 601 q 160 540 160 601 m 113 114 q 160 71 160 114 q 64 -175 160 8 l 8 -175 l 65 114 l 113 114 z "},"<":{"ha":636,"x_min":60,"x_max":554,"o":"m 554 694 l 554 610 l 133 450 l 554 290 l 554 206 l 60 399 l 60 501 l 554 694 z "},"=":{"ha":604,"x_min":54,"x_max":549,"o":"m 54 365 l 549 365 l 549 288 l 54 288 l 54 365 m 54 613 l 549 613 l 549 535 l 54 535 l 54 613 z "},">":{"ha":635,"x_min":78,"x_max":574,"o":"m 78 694 l 574 501 l 574 399 l 78 206 l 78 290 l 500 450 l 78 610 l 78 694 z "},"?":{"ha":524,"x_min":49,"x_max":456,"o":"m 256 53 q 256 23 256 53 q 197 -8 256 -8 q 139 53 139 -8 q 197 115 139 115 q 256 53 256 115 m 211 946 q 456 751 456 946 l 456 614 q 244 400 456 406 l 238 236 l 157 236 l 151 481 l 228 481 q 363 614 363 481 l 363 747 q 330 831 363 804 q 210 857 297 857 q 49 833 122 857 l 49 926 q 211 946 121 946 z "},"@":{"ha":1186,"x_min":101,"x_max":1097,"o":"m 718 -156 l 599 -156 q 217 -19 332 -156 q 101 378 101 117 q 219 778 101 640 q 601 915 336 915 q 982 785 867 915 q 1097 393 1097 654 q 1042 122 1097 206 q 878 39 986 39 q 729 107 769 39 q 575 64 664 64 q 396 221 396 64 l 396 240 q 435 351 396 313 q 556 414 475 389 l 703 460 l 703 538 q 681 610 703 585 q 597 636 658 636 q 429 611 536 636 l 429 686 q 599 710 518 710 q 782 539 782 710 l 782 224 q 806 141 782 167 q 886 115 829 115 q 1013 393 1013 115 q 920 729 1013 619 q 599 839 828 839 q 278 724 371 839 q 186 380 186 608 q 279 36 186 151 q 599 -79 372 -79 l 718 -79 l 718 -156 m 481 242 l 481 221 q 574 135 481 135 q 643 145 611 135 q 703 175 675 156 l 703 383 l 578 346 q 502 310 524 329 q 481 242 481 290 z "},"A":{"ha":606,"x_min":24,"x_max":581,"o":"m 486 0 l 428 263 l 175 263 l 118 0 l 24 0 l 236 932 l 369 932 l 581 0 l 486 0 m 193 344 l 410 344 l 301 838 l 193 344 z "},"B":{"ha":649,"x_min":97,"x_max":565,"o":"m 557 721 l 557 643 q 453 469 557 510 q 565 293 565 432 l 565 211 q 509 56 565 113 q 342 0 453 0 l 97 0 l 97 932 l 333 932 q 501 876 444 932 q 557 721 557 819 m 328 849 l 190 849 l 190 510 l 328 510 q 464 640 464 510 l 464 718 q 328 849 464 849 m 472 213 l 472 296 q 336 426 472 426 l 190 426 l 190 82 l 336 82 q 472 213 472 82 z "},"C":{"ha":546,"x_min":83,"x_max":494,"o":"m 83 743 q 144 888 83 836 q 331 939 206 939 q 492 917 411 939 l 492 829 q 328 853 410 853 q 212 824 246 853 q 178 739 178 796 l 178 192 q 212 108 178 136 q 332 79 246 79 q 494 101 418 79 l 494 15 q 331 -7 425 -7 q 83 189 83 -7 l 83 743 z "},"D":{"ha":644,"x_min":97,"x_max":563,"o":"m 468 721 q 333 850 468 850 l 190 850 l 190 83 l 333 83 q 468 214 468 83 l 468 721 m 97 932 l 339 932 q 506 875 449 932 q 563 722 563 818 l 563 211 q 507 57 563 114 q 340 0 451 0 l 97 0 l 97 932 z "},"E":{"ha":550,"x_min":97,"x_max":499,"o":"m 97 932 l 499 932 l 499 849 l 190 849 l 190 511 l 458 511 l 458 428 l 190 428 l 190 83 l 499 83 l 499 0 l 97 0 l 97 932 z "},"F":{"ha":513,"x_min":97,"x_max":486,"o":"m 97 932 l 486 932 l 486 849 l 192 849 l 192 494 l 472 494 l 472 410 l 192 410 l 192 0 l 97 0 l 97 932 z "},"G":{"ha":621,"x_min":83,"x_max":535,"o":"m 83 735 q 339 939 83 939 q 507 915 425 939 l 507 825 q 338 851 422 851 q 215 821 253 851 q 178 731 178 790 l 178 193 q 313 78 178 78 q 442 107 393 78 l 442 456 l 535 456 l 535 49 q 322 -7 436 -7 q 83 189 83 -7 l 83 735 z "},"H":{"ha":685,"x_min":97,"x_max":589,"o":"m 493 932 l 589 932 l 589 0 l 493 0 l 493 415 l 192 415 l 192 0 l 97 0 l 97 932 l 192 932 l 192 499 l 493 499 l 493 932 z "},"I":{"ha":288,"x_min":97,"x_max":192,"o":"m 97 932 l 192 932 l 192 0 l 97 0 l 97 932 z "},"J":{"ha":289,"x_min":7,"x_max":193,"o":"m 99 932 l 193 932 l 193 274 q 146 -61 193 96 l 103 -207 l 7 -207 l 49 -61 q 99 272 99 117 l 99 932 z "},"K":{"ha":599,"x_min":97,"x_max":575,"o":"m 97 932 l 190 932 l 190 0 l 97 0 l 97 932 m 461 932 l 564 932 l 367 468 l 575 0 l 469 0 l 265 465 l 461 932 z "},"L":{"ha":482,"x_min":97,"x_max":475,"o":"m 97 932 l 192 932 l 192 82 l 475 82 l 475 0 l 97 0 l 97 932 z "},"M":{"ha":846,"x_min":97,"x_max":750,"o":"m 750 932 l 750 0 l 660 0 l 660 499 l 667 775 l 474 249 l 372 249 l 176 775 q 186 500 186 644 l 186 0 l 97 0 l 97 932 l 210 932 l 422 343 l 635 932 l 750 932 z "},"N":{"ha":692,"x_min":97,"x_max":596,"o":"m 510 151 l 501 454 l 501 932 l 596 932 l 596 0 l 485 0 q 233 642 271 540 q 181 779 194 744 l 189 478 l 189 0 l 97 0 l 97 932 l 207 932 q 510 151 418 396 z "},"O":{"ha":632,"x_min":83,"x_max":550,"o":"m 456 725 q 316 860 456 860 q 176 725 176 860 l 176 207 q 316 71 176 71 q 456 207 456 71 l 456 725 m 83 726 q 142 885 83 825 q 317 946 201 946 q 491 885 432 946 q 550 726 550 825 l 550 206 q 491 47 550 107 q 317 -14 432 -14 q 142 47 201 -14 q 83 206 83 107 l 83 726 z "},"P":{"ha":608,"x_min":97,"x_max":544,"o":"m 451 718 q 315 849 451 849 l 192 849 l 192 406 l 315 406 q 451 536 451 406 l 451 718 m 97 932 l 321 932 q 488 875 431 932 q 544 722 544 818 l 544 532 q 488 379 544 436 q 321 322 431 322 l 192 322 l 192 0 l 97 0 l 97 932 z "},"Q":{"ha":632,"x_min":83,"x_max":613,"o":"m 317 -14 q 142 47 201 -14 q 83 206 83 107 l 83 726 q 142 885 83 825 q 317 946 201 946 q 491 885 432 946 q 550 726 550 825 l 550 206 q 464 24 550 81 l 613 -140 l 496 -140 l 376 -8 q 317 -14 353 -14 m 176 725 l 176 207 q 316 71 176 71 q 456 207 456 71 l 456 725 q 316 860 456 860 q 176 725 176 860 z "},"R":{"ha":633,"x_min":97,"x_max":574,"o":"m 333 376 l 190 376 l 190 0 l 97 0 l 97 932 l 321 932 q 488 875 431 932 q 544 722 544 818 l 544 588 q 425 393 544 438 l 574 0 l 469 0 l 333 376 m 190 458 l 317 458 q 451 588 451 458 l 451 719 q 317 849 451 849 l 190 849 l 190 458 z "},"S":{"ha":536,"x_min":39,"x_max":492,"o":"m 39 744 q 99 888 39 836 q 270 939 160 939 q 456 917 381 939 l 456 826 q 279 851 388 851 q 135 742 135 851 l 135 672 q 153 595 135 625 q 217 542 172 565 l 378 451 q 492 268 492 392 l 492 193 q 426 46 492 99 q 241 -7 361 -7 q 46 21 121 -7 l 46 111 q 231 79 131 79 q 396 199 396 79 l 396 258 q 379 331 396 304 q 319 381 363 358 l 160 468 q 39 663 39 535 l 39 744 z "},"T":{"ha":483,"x_min":13,"x_max":471,"o":"m 471 932 l 471 849 l 289 849 l 289 0 l 194 0 l 194 849 l 13 849 l 13 932 l 471 932 z "},"U":{"ha":646,"x_min":90,"x_max":556,"o":"m 461 932 l 556 932 l 556 206 q 497 47 556 107 q 322 -14 438 -14 q 149 47 207 -14 q 90 206 90 107 l 90 932 l 183 932 l 183 207 q 322 71 183 71 q 461 207 461 71 l 461 932 z "},"V":{"ha":579,"x_min":18,"x_max":560,"o":"m 463 932 l 560 932 l 357 0 l 222 0 l 18 932 l 115 932 l 215 467 q 290 93 278 153 q 364 467 325 260 l 463 932 z "},"W":{"ha":846,"x_min":29,"x_max":817,"o":"m 725 932 l 817 932 l 661 0 l 546 0 q 424 785 439 633 q 382 469 410 633 l 301 0 l 185 0 l 29 932 l 121 932 l 214 365 l 247 119 q 283 367 263 243 l 375 932 l 474 932 l 564 365 l 599 121 q 633 365 617 268 l 725 932 z "},"X":{"ha":540,"x_min":18,"x_max":522,"o":"m 419 932 l 522 932 l 318 465 l 522 0 l 419 0 l 271 357 l 121 0 l 18 0 l 221 465 l 18 932 l 121 932 l 271 572 l 419 932 z "},"Y":{"ha":564,"x_min":6,"x_max":558,"o":"m 329 0 l 235 0 l 235 315 l 6 932 l 103 932 l 199 674 q 283 426 208 646 q 463 932 353 633 l 558 932 l 329 315 l 329 0 z "},"Z":{"ha":529,"x_min":39,"x_max":489,"o":"m 47 932 l 489 932 l 489 850 l 139 83 l 482 83 l 482 0 l 39 0 l 39 83 l 388 849 l 47 849 l 47 932 z "},"[":{"ha":407,"x_min":113,"x_max":365,"o":"m 194 -107 l 365 -107 l 365 -182 l 113 -182 l 113 1088 l 365 1088 l 365 1013 l 194 1013 l 194 -107 z "},"\\":{"ha":539,"x_min":44,"x_max":504,"o":"m 44 1088 l 129 1088 l 504 -182 l 419 -182 l 44 1088 z "},"]":{"ha":407,"x_min":40,"x_max":293,"o":"m 40 1088 l 293 1088 l 293 -182 l 40 -182 l 40 -107 l 211 -107 l 211 1013 l 40 1013 l 40 1088 z "},"^":{"ha":435,"x_min":4,"x_max":424,"o":"m 424 526 l 333 526 l 214 869 l 94 526 l 4 526 l 153 917 l 276 917 l 424 526 z "},"_":{"ha":657,"x_min":3,"x_max":654,"o":"m 3 -17 l 654 -17 l 654 -93 l 3 -93 l 3 -17 z "},"`":{"ha":486,"x_min":172,"x_max":314,"o":"m 172 999 l 261 999 l 314 850 l 253 850 l 172 999 z "},"a":{"ha":590,"x_min":44,"x_max":500,"o":"m 138 225 l 138 182 q 164 99 138 126 q 253 72 190 72 q 408 128 342 72 l 408 390 l 246 346 q 160 301 183 328 q 138 225 138 274 m 265 796 q 500 596 500 796 l 500 0 l 410 0 l 410 57 q 337 10 374 26 q 238 -6 300 -6 q 44 183 44 -6 l 44 229 q 213 419 44 371 l 408 474 l 408 596 q 377 681 408 654 q 254 708 346 708 q 82 681 163 708 l 82 771 q 265 796 160 796 z "},"b":{"ha":621,"x_min":97,"x_max":538,"o":"m 443 600 q 339 704 443 704 q 192 671 283 704 l 192 86 l 310 86 q 443 211 443 86 l 443 600 m 97 999 l 190 999 l 190 758 q 360 793 283 793 q 488 744 438 793 q 538 608 538 696 l 538 206 q 482 53 538 107 q 332 0 426 0 l 97 0 l 97 999 z "},"c":{"ha":514,"x_min":83,"x_max":464,"o":"m 83 599 q 315 796 83 796 q 461 776 400 796 l 461 690 q 320 708 403 708 q 208 681 238 708 q 178 596 178 654 l 178 192 q 208 106 178 133 q 317 79 238 79 q 464 100 396 79 l 464 13 q 315 -7 389 -7 q 83 189 83 -7 l 83 599 z "},"d":{"ha":619,"x_min":83,"x_max":524,"o":"m 429 703 l 313 703 q 178 581 178 703 l 178 200 q 293 81 178 81 q 429 129 378 81 l 429 703 m 429 999 l 524 999 l 524 0 l 431 0 l 431 46 q 278 -4 372 -4 q 133 47 183 -4 q 83 194 83 99 l 83 582 q 141 735 83 681 q 296 789 199 789 l 429 789 l 429 999 z "},"e":{"ha":606,"x_min":83,"x_max":531,"o":"m 83 200 l 83 588 q 139 744 83 685 q 308 803 194 803 q 476 744 421 803 q 531 588 531 685 l 531 346 l 176 346 l 176 203 q 216 110 176 140 q 340 79 256 79 q 507 103 425 79 l 507 15 q 343 -7 438 -7 q 83 200 83 -7 m 176 426 l 440 426 l 440 586 q 308 721 440 721 q 176 586 176 721 l 176 426 z "},"f":{"ha":378,"x_min":47,"x_max":378,"o":"m 126 839 q 174 977 126 929 q 317 1025 222 1025 q 378 1021 350 1025 l 378 939 q 322 944 357 944 q 221 839 221 944 l 221 789 l 368 789 l 368 708 l 221 708 l 221 0 l 126 0 l 126 708 l 47 708 l 47 789 l 126 789 l 126 839 z "},"g":{"ha":619,"x_min":56,"x_max":590,"o":"m 590 756 l 543 756 q 479 736 508 756 q 524 600 524 686 l 524 490 q 466 342 524 396 q 294 288 408 288 q 214 213 214 288 q 235 163 214 178 q 307 147 256 147 l 388 147 q 533 107 488 147 q 578 -14 578 67 l 578 -31 q 328 -207 578 -207 l 271 -207 q 56 -164 132 -207 l 56 -74 q 271 -125 143 -125 l 321 -125 q 486 -31 486 -125 l 486 -18 q 466 46 486 25 q 383 67 446 67 l 300 67 q 174 97 218 67 q 129 186 129 128 l 129 208 q 199 299 129 281 q 61 490 61 338 l 61 600 q 119 749 61 694 q 282 803 176 803 q 444 765 388 803 q 568 847 471 847 l 590 847 l 590 756 m 429 490 l 429 600 q 292 722 429 722 q 156 600 156 722 l 156 490 q 188 399 156 429 q 293 369 221 369 q 429 490 429 369 z "},"h":{"ha":626,"x_min":97,"x_max":536,"o":"m 97 999 l 190 999 l 190 757 q 353 792 271 792 q 485 744 435 792 q 536 608 536 697 l 536 0 l 442 0 l 442 600 q 338 704 442 704 q 192 668 267 704 l 192 0 l 97 0 l 97 999 z "},"i":{"ha":288,"x_min":86,"x_max":203,"o":"m 203 942 q 203 911 203 942 q 144 881 203 881 q 86 942 86 881 q 144 1004 86 1004 q 203 942 203 1004 m 97 785 l 192 785 l 192 0 l 97 0 l 97 785 z "},"j":{"ha":288,"x_min":-35,"x_max":203,"o":"m 203 942 q 203 911 203 942 q 144 881 203 881 q 86 942 86 881 q 144 1004 86 1004 q 203 942 203 1004 m 97 785 l 192 785 l 192 -15 q 144 -158 192 -107 q 6 -210 97 -210 q -35 -206 -14 -210 l -35 -121 q 3 -124 -12 -124 q 75 -99 53 -124 q 97 -15 97 -74 l 97 785 z "},"k":{"ha":557,"x_min":97,"x_max":533,"o":"m 97 999 l 190 999 l 190 0 l 97 0 l 97 999 m 419 789 l 519 789 l 344 410 l 533 0 l 429 0 l 243 408 l 419 789 z "},"l":{"ha":288,"x_min":97,"x_max":192,"o":"m 97 999 l 192 999 l 192 0 l 97 0 l 97 999 z "},"m":{"ha":971,"x_min":97,"x_max":881,"o":"m 494 735 q 687 792 593 792 q 831 744 781 792 q 881 608 881 696 l 881 0 l 786 0 l 786 600 q 682 704 786 704 q 528 657 604 704 q 536 600 536 632 l 536 0 l 442 0 l 442 600 q 336 704 442 704 q 192 668 271 704 l 192 0 l 97 0 l 97 789 l 188 789 l 188 753 q 350 792 281 792 q 494 735 446 792 z "},"n":{"ha":626,"x_min":97,"x_max":536,"o":"m 188 753 q 358 792 281 792 q 486 744 436 792 q 536 608 536 696 l 536 0 l 442 0 l 442 600 q 336 704 442 704 q 192 668 271 704 l 192 0 l 97 0 l 97 789 l 188 789 l 188 753 z "},"o":{"ha":614,"x_min":83,"x_max":531,"o":"m 438 586 q 307 719 438 719 q 176 586 176 719 l 176 201 q 307 69 176 69 q 438 201 438 69 l 438 586 m 83 588 q 138 744 83 685 q 307 803 193 803 q 476 744 421 803 q 531 588 531 685 l 531 200 q 476 44 531 103 q 307 -14 421 -14 q 138 44 193 -14 q 83 200 83 103 l 83 588 z "},"p":{"ha":621,"x_min":97,"x_max":538,"o":"m 443 600 q 338 704 443 704 q 192 668 271 704 l 192 86 l 311 86 q 443 214 443 86 l 443 600 m 188 751 q 359 792 281 792 q 488 744 438 792 q 538 608 538 696 l 538 207 q 482 55 538 110 q 333 0 426 0 l 192 0 l 192 -207 l 97 -207 l 97 789 l 188 789 l 188 751 z "},"q":{"ha":619,"x_min":83,"x_max":524,"o":"m 429 703 l 315 703 q 178 574 178 703 l 178 201 q 293 81 178 81 q 429 129 378 81 l 429 703 m 300 789 l 524 789 l 524 -207 l 431 -207 l 431 39 q 281 -3 375 -3 q 83 199 83 -3 l 83 575 q 142 732 83 675 q 300 789 200 789 z "},"r":{"ha":390,"x_min":97,"x_max":383,"o":"m 349 793 l 383 793 l 383 703 l 336 703 q 246 676 286 703 q 192 639 233 668 l 192 0 l 97 0 l 97 789 l 188 789 l 188 728 q 251 772 238 765 q 276 783 265 778 q 297 789 288 788 q 349 793 326 793 z "},"s":{"ha":500,"x_min":40,"x_max":461,"o":"m 40 604 q 95 749 40 701 q 274 796 150 796 q 428 772 354 796 l 428 685 q 275 710 358 710 q 163 685 192 710 q 133 601 133 660 l 133 565 q 151 494 133 518 q 215 450 168 471 l 335 392 q 461 222 461 332 l 461 186 q 211 -7 461 -7 q 44 15 117 -7 l 44 104 q 206 79 117 79 q 331 106 294 79 q 367 188 367 133 l 367 215 q 349 277 367 256 q 278 324 331 299 l 157 381 q 40 557 40 435 l 40 604 z "},"t":{"ha":401,"x_min":7,"x_max":381,"o":"m 189 932 l 189 789 l 367 789 l 367 706 l 189 706 l 189 172 q 213 101 189 122 q 291 79 236 79 q 381 94 346 79 l 381 8 q 278 -6 325 -6 q 94 168 94 -6 l 94 706 l 7 706 l 7 789 l 97 789 l 125 932 l 189 932 z "},"u":{"ha":626,"x_min":90,"x_max":531,"o":"m 300 81 q 436 125 369 81 l 436 789 l 531 789 l 531 0 l 439 0 l 439 38 q 284 -3 378 -3 q 140 48 190 -3 q 90 194 90 99 l 90 789 l 185 789 l 185 203 q 300 81 185 81 z "},"v":{"ha":533,"x_min":24,"x_max":508,"o":"m 413 789 l 508 789 l 335 0 l 200 0 l 24 789 l 121 789 l 199 422 l 267 65 q 413 789 308 292 z "},"w":{"ha":829,"x_min":24,"x_max":804,"o":"m 708 789 l 804 789 l 661 0 l 529 0 l 457 400 q 415 664 424 578 q 400 553 415 656 q 300 0 386 468 l 169 0 l 24 789 l 121 789 l 236 93 l 363 789 l 468 789 l 593 93 l 708 789 z "},"x":{"ha":500,"x_min":13,"x_max":488,"o":"m 389 789 l 488 789 l 297 394 l 488 0 l 389 0 l 250 301 l 111 0 l 13 0 l 201 394 l 13 789 l 111 789 l 250 489 l 389 789 z "},"y":{"ha":535,"x_min":25,"x_max":510,"o":"m 415 789 l 510 789 l 293 -207 l 201 -207 l 246 0 l 199 0 l 25 789 l 121 789 l 206 390 l 267 65 q 329 390 296 229 l 415 789 z "},"z":{"ha":443,"x_min":28,"x_max":414,"o":"m 35 789 l 414 789 l 414 715 l 122 82 l 414 82 l 414 0 l 28 0 l 28 74 l 315 706 l 35 706 l 35 789 z "},"{":{"ha":485,"x_min":82,"x_max":410,"o":"m 275 908 l 275 622 q 249 501 275 542 q 156 451 224 460 q 249 402 224 443 q 275 282 275 361 l 275 -7 q 390 -101 275 -101 l 410 -101 l 410 -182 l 388 -182 q 243 -135 294 -182 q 192 -6 192 -87 l 192 313 q 164 385 192 358 q 85 411 136 411 l 82 411 l 82 490 l 85 490 q 165 517 138 490 q 192 590 192 543 l 192 907 q 243 1036 192 989 q 388 1083 294 1083 l 410 1083 l 410 1003 l 390 1003 q 275 908 275 1003 z "},"|":{"ha":288,"x_min":107,"x_max":181,"o":"m 107 1113 l 181 1113 l 181 -207 l 107 -207 l 107 1113 z "},"}":{"ha":483,"x_min":72,"x_max":401,"o":"m 397 490 l 401 490 l 401 411 l 397 411 q 319 385 346 411 q 292 313 292 358 l 292 -6 q 240 -135 292 -87 q 96 -182 189 -182 l 72 -182 l 72 -101 l 92 -101 q 208 -7 208 -101 l 208 282 q 233 402 208 361 q 326 451 258 443 q 234 501 260 460 q 208 622 208 542 l 208 908 q 92 1003 208 1003 l 72 1003 l 72 1083 l 96 1083 q 240 1036 189 1083 q 292 907 292 989 l 292 590 q 319 517 292 543 q 397 490 346 490 z "},"~":{"ha":582,"x_min":32,"x_max":549,"o":"m 549 507 q 484 395 549 424 q 346 403 419 367 l 226 456 q 138 467 174 482 q 111 394 101 451 l 36 394 q 32 433 32 413 q 97 544 32 515 q 235 538 163 574 l 354 485 q 445 472 411 457 q 469 546 479 488 l 546 546 q 549 507 549 528 z "}," ":{"ha":263,"x_min":0,"x_max":0,"o":""},"¡":{"ha":339,"x_min":111,"x_max":228,"o":"m 221 -143 l 118 -143 l 129 553 l 208 553 l 221 -143 m 228 735 q 228 705 228 735 q 169 674 228 674 q 111 735 111 674 q 169 797 111 797 q 228 735 228 797 z "},"¢":{"ha":556,"x_min":96,"x_max":476,"o":"m 365 -108 l 281 -108 l 281 -4 q 96 189 96 14 l 96 599 q 281 793 96 775 l 281 907 l 367 907 l 367 794 q 474 776 426 790 l 474 690 q 333 708 415 708 q 220 681 250 708 q 190 596 190 654 l 190 192 q 220 106 190 133 q 329 79 250 79 q 476 100 408 79 l 476 13 q 365 -6 426 -1 l 365 -108 z "},"£":{"ha":635,"x_min":63,"x_max":582,"o":"m 582 88 l 582 0 l 63 0 l 63 86 q 124 106 108 90 q 147 133 139 121 q 167 218 167 161 l 167 440 l 81 440 l 81 521 l 167 521 l 167 718 q 401 933 167 933 q 572 907 496 933 l 572 815 q 403 846 486 846 q 290 813 321 846 q 260 715 260 779 l 260 521 l 500 521 l 500 440 l 260 440 l 260 228 q 196 88 260 119 l 582 88 z "},"¤":{"ha":639,"x_min":61,"x_max":579,"o":"m 536 519 l 536 411 q 517 306 536 349 l 579 246 l 518 185 l 463 240 q 321 204 411 204 q 178 239 231 204 l 122 185 l 61 246 l 122 307 q 104 411 104 349 l 104 519 q 122 625 104 581 l 61 685 l 122 746 l 178 692 q 320 728 229 728 q 463 692 411 728 l 518 746 l 579 685 l 518 625 q 536 519 536 581 m 196 518 l 196 413 q 222 317 196 347 q 320 286 249 286 q 418 317 392 286 q 444 413 444 347 l 444 518 q 418 614 444 583 q 320 644 392 644 q 222 614 249 644 q 196 518 196 583 z "},"¥":{"ha":651,"x_min":56,"x_max":618,"o":"m 615 572 l 615 497 l 458 497 l 403 357 l 615 357 l 615 283 l 382 283 l 382 0 l 293 0 l 293 283 l 57 283 l 57 357 l 271 357 l 214 497 l 57 497 l 57 572 l 186 572 l 56 907 l 149 907 l 297 518 l 338 406 l 526 907 l 618 907 l 486 572 l 615 572 z "},"¦":{"ha":288,"x_min":107,"x_max":181,"o":"m 107 318 l 181 318 l 181 -207 l 107 -207 l 107 318 m 107 1113 l 181 1113 l 181 588 l 107 588 l 107 1113 z "},"§":{"ha":504,"x_min":42,"x_max":474,"o":"m 146 364 l 146 346 q 163 275 146 299 q 229 231 181 251 l 349 172 q 442 103 410 143 q 474 4 474 64 l 474 -14 q 224 -207 474 -207 q 58 -187 129 -207 l 58 -99 q 218 -122 126 -122 q 345 -96 310 -122 q 381 -18 381 -69 q 363 56 381 33 q 290 104 344 79 l 169 161 q 53 338 53 215 l 53 364 l 146 364 m 42 742 q 97 886 42 839 q 258 933 151 933 q 431 913 364 933 l 431 825 q 280 847 367 847 q 164 822 193 847 q 135 738 135 796 q 151 658 135 681 q 218 614 168 636 l 338 557 q 464 388 464 497 l 464 361 l 371 361 l 371 381 q 352 442 371 419 q 279 489 333 464 l 160 546 q 42 721 42 600 l 42 742 z "},"¨":{"ha":486,"x_min":99,"x_max":388,"o":"m 335 872 q 309 872 335 872 q 283 923 283 872 q 335 974 283 974 q 388 923 388 974 q 335 872 388 872 m 151 872 q 125 872 151 872 q 99 923 99 872 q 151 974 99 974 q 203 923 203 974 q 151 872 203 872 z "},"©":{"ha":953,"x_min":65,"x_max":886,"o":"m 747 183 q 794 299 782 238 q 807 441 807 360 q 801 574 807 522 q 775 676 794 625 q 719 758 756 728 q 478 825 640 825 q 235 757 315 825 q 153 572 168 700 q 146 440 146 521 q 158 297 146 358 q 203 182 169 236 q 478 75 271 75 q 747 183 681 75 m 314 525 q 356 655 314 611 q 496 699 397 699 q 599 689 556 699 l 599 614 q 504 628 547 628 q 439 620 461 628 q 408 597 417 613 q 393 525 393 571 l 393 376 q 411 299 393 324 q 488 274 429 274 q 600 288 547 274 l 600 211 q 496 201 542 201 q 356 246 397 201 q 314 375 314 290 l 314 525 m 149 128 q 126 159 149 128 q 85 268 104 190 q 65 449 65 346 q 83 631 65 553 q 146 772 101 708 q 478 901 236 901 q 839 722 757 901 q 886 449 886 619 q 676 33 886 118 q 476 0 594 0 q 276 33 358 0 q 149 128 193 65 z "},"ª":{"ha":471,"x_min":47,"x_max":410,"o":"m 117 601 l 117 554 q 138 482 117 504 q 232 460 160 460 q 340 508 304 460 l 340 711 l 217 690 q 117 601 117 671 m 235 1035 q 410 890 410 1035 l 410 400 l 340 400 l 340 449 q 206 400 300 400 q 47 553 47 400 l 47 603 q 204 750 47 719 l 340 775 l 340 894 q 315 951 338 933 q 222 969 292 969 q 72 943 151 969 l 72 1010 q 235 1035 147 1035 z "},"«":{"ha":635,"x_min":85,"x_max":594,"o":"m 253 701 l 350 701 l 181 447 l 350 193 l 253 193 l 85 447 l 253 701 m 497 701 l 594 701 l 425 447 l 594 193 l 497 193 l 329 447 l 497 701 z "},"¬":{"ha":628,"x_min":97,"x_max":531,"o":"m 97 499 l 531 499 l 531 278 l 436 278 l 436 415 l 97 415 l 97 499 z "},"­":{"ha":313,"x_min":56,"x_max":264,"o":"m 56 490 l 264 490 l 264 413 l 56 413 l 56 490 z "},"®":{"ha":704,"x_min":96,"x_max":646,"o":"m 96 719 q 96 795 96 719 q 156 942 96 871 q 372 1014 217 1014 q 586 943 526 1014 q 646 721 646 872 q 586 499 646 569 q 371 429 526 429 q 156 499 215 429 q 96 719 96 568 m 368 483 q 482 496 439 483 q 547 540 525 508 q 576 610 569 571 q 583 718 583 650 q 543 908 583 856 q 370 960 503 960 q 198 908 238 960 q 158 721 158 857 q 198 534 158 585 q 368 483 238 483 m 268 901 l 367 901 q 489 792 489 901 q 442 692 489 718 l 506 543 l 440 543 l 388 678 q 365 676 381 676 l 328 676 l 328 543 l 268 543 l 268 901 m 328 726 l 361 726 q 418 740 401 726 q 435 791 435 753 q 420 840 435 829 q 371 850 406 850 l 328 850 l 328 726 z "},"¯":{"ha":486,"x_min":90,"x_max":396,"o":"m 90 956 l 396 956 l 396 893 l 90 893 l 90 956 z "},"°":{"ha":511,"x_min":74,"x_max":444,"o":"m 258 776 q 290 776 258 776 q 346 808 322 776 q 369 901 369 840 q 346 994 369 961 q 258 1026 322 1026 q 172 994 194 1026 q 150 901 150 961 q 172 808 150 840 q 258 776 194 776 m 259 704 q 166 704 259 704 q 74 903 74 704 q 259 1101 74 1101 q 444 903 444 1101 q 259 704 444 704 z "},"±":{"ha":604,"x_min":57,"x_max":549,"o":"m 346 490 l 549 490 l 549 413 l 346 413 l 346 217 l 260 217 l 260 413 l 57 413 l 57 490 l 260 490 l 260 683 l 346 683 l 346 490 m 57 61 l 57 139 l 549 139 l 549 61 l 57 61 z "},"²":{"ha":406,"x_min":39,"x_max":368,"o":"m 196 1035 q 365 890 365 1035 l 365 860 q 347 770 365 806 q 282 701 329 735 l 194 642 q 122 581 135 601 q 108 515 108 561 l 108 467 l 368 467 l 368 401 l 39 401 l 39 514 q 63 614 39 579 q 151 692 86 649 l 243 753 q 286 798 276 774 q 296 864 296 822 l 296 890 q 274 951 296 932 q 185 969 253 969 q 58 956 118 969 l 58 1021 q 196 1035 104 1035 z "},"³":{"ha":425,"x_min":44,"x_max":358,"o":"m 186 1035 q 358 897 354 1035 l 358 839 q 296 721 358 746 q 358 607 358 696 l 358 539 q 186 396 358 396 q 44 411 101 396 l 44 476 q 181 460 121 460 q 265 479 242 460 q 289 540 289 499 l 289 607 q 272 667 289 646 q 199 689 254 688 l 138 689 l 138 753 l 199 753 q 272 775 254 753 q 289 839 289 797 l 289 890 q 266 951 289 932 q 178 969 243 969 q 58 957 114 969 l 58 1024 q 186 1035 121 1035 z "},"´":{"ha":486,"x_min":172,"x_max":314,"o":"m 225 999 l 314 999 l 233 850 l 172 850 l 225 999 z "},"µ":{"ha":632,"x_min":94,"x_max":535,"o":"m 190 108 q 303 83 233 83 q 442 129 372 83 l 442 789 l 535 789 l 535 0 l 444 0 l 444 38 q 299 -1 367 -1 q 190 17 232 -1 l 190 -208 l 94 -208 l 94 789 l 190 789 l 190 108 z "},"¶":{"ha":557,"x_min":89,"x_max":457,"o":"m 314 933 l 457 933 l 457 1 l 363 1 l 363 514 l 314 514 q 147 571 204 514 q 89 724 89 628 q 147 876 89 819 q 314 933 204 933 z "},"·":{"ha":294,"x_min":93,"x_max":206,"o":"m 149 422 q 121 422 149 422 q 93 478 93 422 q 149 535 93 535 q 206 478 206 535 q 149 422 206 422 z "},"¸":{"ha":486,"x_min":146,"x_max":339,"o":"m 244 -56 q 313 -82 286 -58 q 339 -151 339 -106 q 304 -224 339 -197 q 222 -251 269 -251 q 146 -242 174 -251 l 146 -187 q 206 -199 171 -199 q 278 -147 278 -199 q 204 -96 278 -96 l 185 -96 l 207 8 l 258 8 l 244 -56 z "},"¹":{"ha":311,"x_min":32,"x_max":236,"o":"m 236 1028 l 236 401 l 167 401 l 167 958 l 32 853 l 32 935 l 154 1028 l 236 1028 z "},"º":{"ha":467,"x_min":65,"x_max":408,"o":"m 340 896 q 315 951 338 933 q 237 969 292 969 q 158 951 182 969 q 135 896 135 933 l 135 540 q 157 480 135 499 q 237 461 179 461 q 317 480 294 461 q 340 540 340 499 l 340 896 m 65 890 q 237 1035 65 1035 q 408 890 408 1035 l 408 540 q 237 396 408 396 q 65 540 65 396 l 65 890 z "},"»":{"ha":635,"x_min":36,"x_max":547,"o":"m 36 701 l 133 701 l 301 447 l 133 193 l 36 193 l 206 447 l 36 701 m 282 701 l 379 701 l 547 447 l 379 193 l 282 193 l 451 447 l 282 701 z "},"¼":{"ha":1090,"x_min":56,"x_max":1010,"o":"m 676 932 l 747 932 l 288 0 l 217 0 l 676 932 m 875 200 l 875 572 l 685 200 l 875 200 m 942 626 l 942 200 l 1010 200 l 1010 138 l 942 138 l 942 0 l 875 0 l 875 138 l 617 138 l 617 201 l 836 626 l 942 626 m 260 932 l 260 304 l 190 304 l 190 863 l 56 757 l 56 839 l 178 932 l 260 932 z "},"½":{"ha":1079,"x_min":56,"x_max":993,"o":"m 675 932 l 747 932 l 288 0 l 217 0 l 675 932 m 260 931 l 260 304 l 190 304 l 190 861 l 56 756 l 56 838 l 178 931 l 260 931 m 821 633 q 990 489 990 633 l 990 458 q 972 369 990 404 q 907 300 954 333 l 819 240 q 747 181 760 200 q 733 114 733 161 l 733 65 l 993 65 l 993 0 l 664 0 l 664 113 q 688 213 664 178 q 776 290 711 247 l 868 351 q 911 397 901 372 q 921 463 921 421 l 921 489 q 899 549 921 531 q 810 568 878 568 q 683 554 743 568 l 683 619 q 821 633 729 633 z "},"¾":{"ha":1146,"x_min":56,"x_max":1065,"o":"m 197 939 q 368 801 365 939 l 368 743 q 307 625 368 653 q 368 511 368 600 l 368 443 q 196 300 368 300 q 56 315 113 300 l 56 382 q 190 364 128 364 q 276 383 253 364 q 300 444 300 403 l 300 511 q 282 571 300 550 q 210 593 264 592 l 149 593 l 149 657 l 210 657 q 282 680 264 657 q 300 743 300 703 l 300 794 q 277 855 300 836 q 191 874 254 874 q 69 863 128 874 l 69 928 q 197 939 132 939 m 754 932 l 825 932 l 367 0 l 294 0 l 754 932 m 931 200 l 931 572 l 740 200 l 931 200 m 997 626 l 997 200 l 1065 200 l 1065 138 l 997 138 l 997 0 l 931 0 l 931 138 l 674 138 l 674 201 l 892 626 l 997 626 z "},"¿":{"ha":524,"x_min":49,"x_max":456,"o":"m 249 735 q 249 766 249 735 q 307 797 249 797 q 365 735 365 797 q 307 674 365 674 q 249 735 249 674 m 293 -157 q 49 38 49 -157 l 49 175 q 260 389 49 383 l 267 553 l 347 553 l 353 308 l 276 308 q 142 175 142 308 l 142 42 q 174 -42 142 -15 q 294 -68 207 -68 q 456 -44 382 -68 l 456 -137 q 293 -157 383 -157 z "},"À":{"ha":606,"x_min":24,"x_max":581,"o":"m 486 0 l 428 263 l 175 263 l 118 0 l 24 0 l 236 932 l 369 932 l 581 0 l 486 0 m 193 344 l 410 344 l 301 838 l 193 344 m 325 989 l 264 989 l 183 1138 l 272 1138 l 325 989 z "},"Á":{"ha":606,"x_min":24,"x_max":581,"o":"m 486 0 l 428 263 l 175 263 l 118 0 l 24 0 l 236 932 l 369 932 l 581 0 l 486 0 m 193 344 l 410 344 l 301 838 l 193 344 m 414 1138 l 333 989 l 272 989 l 325 1138 l 414 1138 z "},"Â":{"ha":606,"x_min":24,"x_max":581,"o":"m 486 0 l 428 263 l 175 263 l 118 0 l 24 0 l 236 932 l 369 932 l 581 0 l 486 0 m 193 344 l 410 344 l 301 838 l 193 344 m 306 1078 l 256 989 l 196 989 l 267 1138 l 344 1138 l 414 989 l 356 989 l 306 1078 z "},"Ã":{"ha":606,"x_min":24,"x_max":581,"o":"m 486 0 l 428 263 l 175 263 l 118 0 l 24 0 l 236 932 l 369 932 l 581 0 l 486 0 m 193 344 l 410 344 l 301 838 l 193 344 m 207 1018 l 207 1001 l 139 1001 l 139 1021 q 162 1094 139 1067 q 226 1122 185 1122 q 317 1094 268 1122 q 381 1067 365 1067 q 411 1110 411 1067 l 411 1125 l 479 1125 l 479 1106 q 456 1031 479 1057 q 393 1004 432 1004 q 307 1033 354 1004 q 239 1061 260 1061 q 207 1018 207 1061 z "},"Ä":{"ha":606,"x_min":24,"x_max":581,"o":"m 486 0 l 428 263 l 175 263 l 118 0 l 24 0 l 236 932 l 369 932 l 581 0 l 486 0 m 193 344 l 410 344 l 301 838 l 193 344 m 261 1062 q 261 1036 261 1062 q 209 1011 261 1011 q 157 1062 157 1011 q 209 1113 157 1113 q 261 1062 261 1113 m 446 1062 q 446 1036 446 1062 q 394 1011 446 1011 q 342 1062 342 1011 q 394 1113 342 1113 q 446 1062 446 1113 z "},"Å":{"ha":606,"x_min":24,"x_max":581,"o":"m 486 0 l 428 263 l 175 263 l 118 0 l 24 0 l 236 932 l 369 932 l 581 0 l 486 0 m 193 344 l 410 344 l 301 838 l 193 344 m 404 1064 q 404 1042 404 1064 q 377 992 404 1021 q 302 963 350 963 q 226 992 254 963 q 199 1064 199 1021 q 226 1135 199 1107 q 302 1164 254 1164 q 377 1135 350 1164 q 404 1064 404 1107 m 337 1099 q 330 1106 337 1099 q 301 1113 324 1113 q 266 1099 279 1113 q 253 1064 253 1086 q 301 1014 253 1014 q 350 1064 350 1014 q 337 1099 350 1086 z "},"Æ":{"ha":913,"x_min":11,"x_max":892,"o":"m 892 849 l 583 849 l 583 511 l 851 511 l 851 428 l 583 428 l 583 83 l 892 83 l 892 0 l 492 0 l 492 263 l 226 263 l 110 0 l 11 0 l 435 932 l 892 932 l 892 849 m 492 344 l 492 863 l 263 344 l 492 344 z "},"Ç":{"ha":546,"x_min":83,"x_max":494,"o":"m 322 -56 q 390 -82 364 -58 q 417 -151 417 -106 q 382 -224 417 -197 q 299 -251 347 -251 q 224 -242 251 -251 l 224 -187 q 283 -199 249 -199 q 356 -147 356 -199 q 282 -96 356 -96 l 263 -96 l 282 -4 q 83 189 83 14 l 83 743 q 144 888 83 836 q 331 939 206 939 q 492 917 411 939 l 492 829 q 328 853 410 853 q 212 824 246 853 q 178 739 178 796 l 178 192 q 212 108 178 136 q 332 79 246 79 q 494 101 418 79 l 494 15 q 333 -7 425 -7 l 322 -56 z "},"È":{"ha":550,"x_min":97,"x_max":499,"o":"m 188 1138 l 276 1138 l 329 989 l 268 989 l 188 1138 m 97 932 l 499 932 l 499 849 l 190 849 l 190 511 l 458 511 l 458 428 l 190 428 l 190 83 l 499 83 l 499 0 l 97 0 l 97 932 z "},"É":{"ha":550,"x_min":97,"x_max":499,"o":"m 97 932 l 499 932 l 499 849 l 190 849 l 190 511 l 458 511 l 458 428 l 190 428 l 190 83 l 499 83 l 499 0 l 97 0 l 97 932 m 322 1138 l 411 1138 l 331 989 l 269 989 l 322 1138 z "},"Ê":{"ha":550,"x_min":97,"x_max":499,"o":"m 499 849 l 190 849 l 190 511 l 458 511 l 458 428 l 190 428 l 190 83 l 499 83 l 499 0 l 97 0 l 97 932 l 499 932 l 499 849 m 290 1078 l 240 989 l 181 989 l 251 1138 l 329 1138 l 399 989 l 340 989 l 290 1078 z "},"Ë":{"ha":550,"x_min":97,"x_max":499,"o":"m 97 932 l 499 932 l 499 849 l 190 849 l 190 511 l 458 511 l 458 428 l 190 428 l 190 83 l 499 83 l 499 0 l 97 0 l 97 932 m 394 1011 q 368 1011 394 1011 q 342 1062 342 1011 q 394 1113 342 1113 q 446 1062 446 1113 q 394 1011 446 1011 m 209 1011 q 183 1011 209 1011 q 157 1062 157 1011 q 209 1113 157 1113 q 261 1062 261 1113 q 209 1011 261 1011 z "},"Ì":{"ha":550,"x_min":97,"x_max":499,"o":"m 189 1138 l 278 1138 l 331 989 l 269 989 l 189 1138 m 97 932 l 499 932 l 499 849 l 190 849 l 190 511 l 458 511 l 458 428 l 190 428 l 190 83 l 499 83 l 499 0 l 97 0 l 97 932 z "},"Í":{"ha":550,"x_min":97,"x_max":499,"o":"m 97 932 l 499 932 l 499 849 l 190 849 l 190 511 l 458 511 l 458 428 l 190 428 l 190 83 l 499 83 l 499 0 l 97 0 l 97 932 m 322 1138 l 411 1138 l 331 989 l 269 989 l 322 1138 z "},"Î":{"ha":288,"x_min":42,"x_max":260,"o":"m 190 1138 l 260 989 l 201 989 l 151 1078 l 101 989 l 42 989 l 113 1138 l 190 1138 m 97 0 l 97 932 l 192 932 l 192 0 l 97 0 z "},"Ï":{"ha":288,"x_min":-1,"x_max":288,"o":"m 235 1011 q 209 1011 235 1011 q 183 1062 183 1011 q 235 1113 183 1113 q 288 1062 288 1113 q 235 1011 288 1011 m 51 1011 q 25 1011 51 1011 q -1 1062 -1 1011 q 51 1113 -1 1113 q 103 1062 103 1113 q 51 1011 103 1011 m 97 932 l 192 932 l 192 0 l 97 0 l 97 932 z "},"Ð":{"ha":646,"x_min":-3,"x_max":565,"o":"m 100 932 l 342 932 q 508 875 451 932 q 565 722 565 818 l 565 211 q 510 57 565 114 q 343 0 454 0 l 100 0 l 100 417 l -3 417 l -3 499 l 100 499 l 100 932 m 471 214 l 471 721 q 336 850 471 850 l 193 850 l 193 499 l 346 499 l 346 417 l 193 417 l 193 83 l 336 83 q 471 214 471 83 z "},"Ñ":{"ha":692,"x_min":97,"x_max":596,"o":"m 460 1125 l 528 1125 l 528 1106 q 504 1031 528 1057 q 442 1004 481 1004 q 356 1033 403 1004 q 288 1061 308 1061 q 256 1018 256 1061 l 256 1001 l 188 1001 l 188 1021 q 210 1094 188 1067 q 275 1122 233 1122 q 365 1094 317 1122 q 429 1067 414 1067 q 460 1110 460 1067 l 460 1125 m 510 151 l 501 454 l 501 932 l 596 932 l 596 0 l 485 0 q 233 642 271 540 q 181 779 194 744 l 189 478 l 189 0 l 97 0 l 97 932 l 207 932 q 510 151 418 396 z "},"Ò":{"ha":632,"x_min":83,"x_max":550,"o":"m 196 1138 l 285 1138 l 338 989 l 276 989 l 196 1138 m 456 725 q 316 860 456 860 q 176 725 176 860 l 176 207 q 316 71 176 71 q 456 207 456 71 l 456 725 m 83 726 q 142 885 83 825 q 317 946 201 946 q 491 885 432 946 q 550 726 550 825 l 550 206 q 491 47 550 107 q 317 -14 432 -14 q 142 47 201 -14 q 83 206 83 107 l 83 726 z "},"Ó":{"ha":632,"x_min":83,"x_max":550,"o":"m 456 725 q 316 860 456 860 q 176 725 176 860 l 176 207 q 316 71 176 71 q 456 207 456 71 l 456 725 m 83 726 q 142 885 83 825 q 317 946 201 946 q 491 885 432 946 q 550 726 550 825 l 550 206 q 491 47 550 107 q 317 -14 432 -14 q 142 47 201 -14 q 83 206 83 107 l 83 726 m 339 1138 l 428 1138 l 347 989 l 286 989 l 339 1138 z "},"Ô":{"ha":632,"x_min":83,"x_max":550,"o":"m 83 206 l 83 726 q 142 885 83 825 q 317 946 201 946 q 491 885 432 946 q 550 726 550 825 l 550 206 q 491 47 550 107 q 317 -14 432 -14 q 142 47 201 -14 q 83 206 83 107 m 456 207 l 456 725 q 316 860 456 860 q 176 725 176 860 l 176 207 q 316 71 176 71 q 456 207 456 71 m 315 1078 l 265 989 l 206 989 l 276 1138 l 354 1138 l 424 989 l 365 989 l 315 1078 z "},"Õ":{"ha":632,"x_min":83,"x_max":550,"o":"m 419 1125 l 488 1125 l 488 1106 q 464 1031 488 1057 q 401 1004 440 1004 q 315 1033 363 1004 q 247 1061 268 1061 q 215 1018 215 1061 l 215 1001 l 147 1001 l 147 1021 q 170 1094 147 1067 q 235 1122 193 1122 q 325 1094 276 1122 q 389 1067 374 1067 q 419 1110 419 1067 l 419 1125 m 456 725 q 316 860 456 860 q 176 725 176 860 l 176 207 q 316 71 176 71 q 456 207 456 71 l 456 725 m 83 726 q 142 885 83 825 q 317 946 201 946 q 491 885 432 946 q 550 726 550 825 l 550 206 q 491 47 550 107 q 317 -14 432 -14 q 142 47 201 -14 q 83 206 83 107 l 83 726 z "},"Ö":{"ha":632,"x_min":83,"x_max":550,"o":"m 456 725 q 316 860 456 860 q 176 725 176 860 l 176 207 q 316 71 176 71 q 456 207 456 71 l 456 725 m 83 726 q 142 885 83 825 q 317 946 201 946 q 491 885 432 946 q 550 726 550 825 l 550 206 q 491 47 550 107 q 317 -14 432 -14 q 142 47 201 -14 q 83 206 83 107 l 83 726 m 409 1011 q 383 1011 409 1011 q 357 1062 357 1011 q 409 1113 357 1113 q 461 1062 461 1113 q 409 1011 461 1011 m 224 1011 q 198 1011 224 1011 q 172 1062 172 1011 q 224 1113 172 1113 q 276 1062 276 1113 q 224 1011 276 1011 z "},"×":{"ha":514,"x_min":42,"x_max":472,"o":"m 472 290 l 417 236 l 257 397 l 96 236 l 42 290 l 203 451 l 42 611 l 96 665 l 257 506 l 417 665 l 471 611 l 311 451 l 472 290 z "},"Ø":{"ha":632,"x_min":82,"x_max":550,"o":"m 550 726 l 550 206 q 491 47 550 107 q 328 -14 432 -14 q 165 26 225 -14 l 154 0 l 82 0 l 115 79 q 83 206 83 135 l 83 726 q 142 885 83 825 q 303 946 201 946 q 467 906 406 946 l 478 932 l 550 932 l 517 853 q 550 726 550 800 m 176 725 l 176 222 l 429 817 q 317 860 394 860 q 176 725 176 860 m 456 207 l 456 710 l 203 115 q 317 71 239 71 q 456 207 456 71 z "},"Ù":{"ha":646,"x_min":90,"x_max":556,"o":"m 211 1138 l 300 1138 l 353 989 l 292 989 l 211 1138 m 461 932 l 556 932 l 556 206 q 497 47 556 107 q 322 -14 438 -14 q 149 47 207 -14 q 90 206 90 107 l 90 932 l 183 932 l 183 207 q 322 71 183 71 q 461 207 461 71 l 461 932 z "},"Ú":{"ha":646,"x_min":90,"x_max":556,"o":"m 461 932 l 556 932 l 556 206 q 497 47 556 107 q 322 -14 438 -14 q 149 47 207 -14 q 90 206 90 107 l 90 932 l 183 932 l 183 207 q 322 71 183 71 q 461 207 461 71 l 461 932 m 346 1138 l 435 1138 l 354 989 l 293 989 l 346 1138 z "},"Û":{"ha":646,"x_min":90,"x_max":556,"o":"m 461 932 l 556 932 l 556 206 q 497 47 556 107 q 322 -14 438 -14 q 149 47 207 -14 q 90 206 90 107 l 90 932 l 183 932 l 183 207 q 322 71 183 71 q 461 207 461 71 l 461 932 m 322 1078 l 272 989 l 213 989 l 283 1138 l 361 1138 l 431 989 l 372 989 l 322 1078 z "},"Ü":{"ha":646,"x_min":90,"x_max":556,"o":"m 461 932 l 556 932 l 556 206 q 497 47 556 107 q 322 -14 438 -14 q 149 47 207 -14 q 90 206 90 107 l 90 932 l 183 932 l 183 207 q 322 71 183 71 q 461 207 461 71 l 461 932 m 415 1011 q 389 1011 415 1011 q 363 1062 363 1011 q 415 1113 363 1113 q 467 1062 467 1113 q 415 1011 467 1011 m 230 1011 q 204 1011 230 1011 q 178 1062 178 1011 q 230 1113 178 1113 q 282 1062 282 1113 q 230 1011 282 1011 z "},"Ý":{"ha":564,"x_min":6,"x_max":558,"o":"m 301 1138 l 390 1138 l 310 989 l 249 989 l 301 1138 m 329 0 l 235 0 l 235 315 l 6 932 l 103 932 l 199 674 q 283 426 208 646 q 463 932 353 633 l 558 932 l 329 315 l 329 0 z "},"Þ":{"ha":594,"x_min":111,"x_max":556,"o":"m 203 763 l 332 763 q 499 706 442 763 q 556 553 556 649 l 556 379 q 499 226 556 283 q 332 169 442 169 l 203 169 l 203 0 l 111 0 l 111 932 l 203 932 l 203 763 m 464 383 l 464 549 q 328 679 464 679 l 203 679 l 203 254 l 328 254 q 464 383 464 254 z "},"ß":{"ha":743,"x_min":97,"x_max":714,"o":"m 97 765 q 163 935 97 878 q 345 993 228 993 q 526 938 463 993 q 590 786 590 883 q 572 698 590 739 q 529 633 553 657 q 468 529 468 575 l 468 515 q 490 457 468 483 q 581 394 513 431 q 682 319 650 357 q 714 225 714 282 l 714 189 q 652 45 714 97 q 468 -7 590 -7 q 307 15 388 -7 l 307 106 q 464 81 379 81 q 622 192 622 81 l 622 218 q 602 281 622 257 q 529 335 582 306 q 407 417 440 381 q 374 510 374 453 l 374 526 q 393 599 374 565 q 435 655 413 633 q 478 711 458 676 q 497 785 497 746 q 353 908 497 908 q 228 873 267 908 q 189 763 189 838 l 189 0 l 97 0 l 97 765 z "},"à":{"ha":590,"x_min":44,"x_max":500,"o":"m 175 999 l 264 999 l 317 850 l 256 850 l 175 999 m 138 225 l 138 182 q 164 99 138 126 q 253 72 190 72 q 408 128 342 72 l 408 390 l 246 346 q 160 301 183 328 q 138 225 138 274 m 265 796 q 500 596 500 796 l 500 0 l 410 0 l 410 57 q 337 10 374 26 q 238 -6 300 -6 q 44 183 44 -6 l 44 229 q 213 419 44 371 l 408 474 l 408 596 q 377 681 408 654 q 254 708 346 708 q 82 681 163 708 l 82 771 q 265 796 160 796 z "},"á":{"ha":590,"x_min":44,"x_max":500,"o":"m 308 999 l 397 999 l 317 850 l 256 850 l 308 999 m 138 225 l 138 182 q 164 99 138 126 q 253 72 190 72 q 408 128 342 72 l 408 390 l 246 346 q 160 301 183 328 q 138 225 138 274 m 265 796 q 500 596 500 796 l 500 0 l 410 0 l 410 57 q 337 10 374 26 q 238 -6 300 -6 q 44 183 44 -6 l 44 229 q 213 419 44 371 l 408 474 l 408 596 q 377 681 408 654 q 254 708 346 708 q 82 681 163 708 l 82 771 q 265 796 160 796 z "},"â":{"ha":590,"x_min":44,"x_max":500,"o":"m 265 796 q 500 596 500 796 l 500 0 l 410 0 l 410 57 q 337 10 374 26 q 238 -6 300 -6 q 44 183 44 -6 l 44 229 q 213 419 44 371 l 408 474 l 408 596 q 377 681 408 654 q 254 708 346 708 q 82 681 163 708 l 82 771 q 265 796 160 796 m 138 225 l 138 182 q 164 99 138 126 q 253 72 190 72 q 408 128 342 72 l 408 390 l 246 346 q 160 301 183 328 q 138 225 138 274 m 299 939 l 249 850 l 189 850 l 260 999 l 338 999 l 407 850 l 349 850 l 299 939 z "},"ã":{"ha":590,"x_min":44,"x_max":500,"o":"m 396 986 l 464 986 l 464 967 q 440 892 464 918 q 378 865 417 865 q 292 894 339 865 q 224 922 244 922 q 192 879 192 922 l 192 863 l 124 863 l 124 882 q 147 956 124 928 q 211 983 169 983 q 301 956 253 983 q 365 928 350 928 q 396 971 396 928 l 396 986 m 138 225 l 138 182 q 164 99 138 126 q 253 72 190 72 q 408 128 342 72 l 408 390 l 246 346 q 160 301 183 328 q 138 225 138 274 m 265 796 q 500 596 500 796 l 500 0 l 410 0 l 410 57 q 337 10 374 26 q 238 -6 300 -6 q 44 183 44 -6 l 44 229 q 213 419 44 371 l 408 474 l 408 596 q 377 681 408 654 q 254 708 346 708 q 82 681 163 708 l 82 771 q 265 796 160 796 z "},"ä":{"ha":590,"x_min":44,"x_max":500,"o":"m 384 872 q 358 872 384 872 q 332 923 332 872 q 384 974 332 974 q 436 923 436 974 q 384 872 436 872 m 199 872 q 173 872 199 872 q 147 923 147 872 q 199 974 147 974 q 251 923 251 974 q 199 872 251 872 m 138 225 l 138 182 q 164 99 138 126 q 253 72 190 72 q 408 128 342 72 l 408 390 l 246 346 q 160 301 183 328 q 138 225 138 274 m 265 796 q 500 596 500 796 l 500 0 l 410 0 l 410 57 q 337 10 374 26 q 238 -6 300 -6 q 44 183 44 -6 l 44 229 q 213 419 44 371 l 408 474 l 408 596 q 377 681 408 654 q 254 708 346 708 q 82 681 163 708 l 82 771 q 265 796 160 796 z "},"å":{"ha":590,"x_min":44,"x_max":500,"o":"m 339 925 q 326 960 339 947 q 290 974 313 974 q 255 960 268 974 q 242 925 242 947 q 290 875 242 875 q 339 925 339 875 m 215 853 q 201 867 215 853 q 188 925 188 882 q 215 997 188 968 q 291 1025 243 1025 q 366 997 339 1025 q 393 925 393 968 q 366 853 393 882 q 291 824 339 824 q 215 853 243 824 m 138 225 l 138 182 q 164 99 138 126 q 253 72 190 72 q 408 128 342 72 l 408 390 l 246 346 q 160 301 183 328 q 138 225 138 274 m 265 796 q 500 596 500 796 l 500 0 l 410 0 l 410 57 q 337 10 374 26 q 238 -6 300 -6 q 44 183 44 -6 l 44 229 q 213 419 44 371 l 408 474 l 408 596 q 377 681 408 654 q 254 708 346 708 q 82 681 163 708 l 82 771 q 265 796 160 796 z "},"æ":{"ha":901,"x_min":46,"x_max":860,"o":"m 768 586 q 636 721 768 721 q 500 586 500 721 l 500 426 l 768 426 l 768 586 m 138 225 l 138 182 q 164 99 138 125 q 253 72 190 72 q 410 122 347 72 l 410 392 l 246 346 q 160 301 183 328 q 138 225 138 274 m 457 726 q 635 803 519 803 q 805 744 750 803 q 860 588 860 685 l 860 346 l 500 346 l 500 203 q 675 79 500 79 q 836 103 750 79 l 836 15 q 672 -7 767 -7 q 460 61 521 -7 q 243 -6 379 -6 q 46 183 46 -6 l 46 229 q 213 419 46 372 l 408 476 l 408 599 q 377 681 408 654 q 254 708 346 708 q 82 681 163 708 l 82 769 q 264 796 161 796 q 457 726 400 796 z "},"ç":{"ha":514,"x_min":83,"x_max":464,"o":"m 315 -7 l 314 -7 l 303 -56 q 371 -82 344 -58 q 397 -151 397 -106 q 363 -224 397 -197 q 280 -251 328 -251 q 204 -242 232 -251 l 204 -187 q 264 -199 229 -199 q 336 -147 336 -199 q 263 -96 336 -96 l 243 -96 l 263 -4 q 83 189 83 15 l 83 599 q 315 796 83 796 q 461 776 400 796 l 461 690 q 320 708 403 708 q 208 681 238 708 q 178 596 178 654 l 178 192 q 208 106 178 133 q 317 79 238 79 q 464 100 396 79 l 464 13 q 315 -7 389 -7 z "},"è":{"ha":606,"x_min":83,"x_max":531,"o":"m 83 200 l 83 588 q 139 744 83 685 q 308 803 194 803 q 476 744 421 803 q 531 588 531 685 l 531 346 l 176 346 l 176 203 q 216 110 176 140 q 340 79 256 79 q 507 103 425 79 l 507 15 q 343 -7 438 -7 q 83 200 83 -7 m 176 426 l 440 426 l 440 586 q 308 721 440 721 q 176 586 176 721 l 176 426 m 347 850 l 286 850 l 206 999 l 294 999 l 347 850 z "},"é":{"ha":606,"x_min":83,"x_max":531,"o":"m 83 200 l 83 588 q 139 744 83 685 q 308 803 194 803 q 476 744 421 803 q 531 588 531 685 l 531 346 l 176 346 l 176 203 q 216 110 176 140 q 340 79 256 79 q 507 103 425 79 l 507 15 q 343 -7 438 -7 q 83 200 83 -7 m 176 426 l 440 426 l 440 586 q 308 721 440 721 q 176 586 176 721 l 176 426 m 426 999 l 346 850 l 285 850 l 338 999 l 426 999 z "},"ê":{"ha":606,"x_min":83,"x_max":531,"o":"m 83 200 l 83 588 q 139 744 83 685 q 308 803 194 803 q 476 744 421 803 q 531 588 531 685 l 531 346 l 176 346 l 176 203 q 216 110 176 140 q 340 79 256 79 q 507 103 425 79 l 507 15 q 343 -7 438 -7 q 83 200 83 -7 m 176 426 l 440 426 l 440 586 q 308 721 440 721 q 176 586 176 721 l 176 426 m 318 939 l 268 850 l 208 850 l 279 999 l 357 999 l 426 850 l 368 850 l 318 939 z "},"ë":{"ha":606,"x_min":83,"x_max":531,"o":"m 83 200 l 83 588 q 139 744 83 685 q 308 803 194 803 q 476 744 421 803 q 531 588 531 685 l 531 346 l 176 346 l 176 203 q 216 110 176 140 q 340 79 256 79 q 507 103 425 79 l 507 15 q 343 -7 438 -7 q 83 200 83 -7 m 176 426 l 440 426 l 440 586 q 308 721 440 721 q 176 586 176 721 l 176 426 m 272 923 q 272 898 272 923 q 220 872 272 872 q 168 923 168 872 q 220 974 168 974 q 272 923 272 974 m 457 923 q 457 898 457 923 q 405 872 457 872 q 353 923 353 872 q 405 974 353 974 q 457 923 457 974 z "},"ì":{"ha":288,"x_min":31,"x_max":192,"o":"m 31 999 l 119 999 l 172 850 l 111 850 l 31 999 m 97 785 l 192 785 l 192 0 l 97 0 l 97 785 z "},"í":{"ha":288,"x_min":97,"x_max":256,"o":"m 167 999 l 256 999 l 175 850 l 114 850 l 167 999 m 97 785 l 192 785 l 192 0 l 97 0 l 97 785 z "},"î":{"ha":288,"x_min":36,"x_max":254,"o":"m 185 999 l 254 850 l 196 850 l 146 939 l 96 850 l 36 850 l 107 999 l 185 999 m 97 0 l 97 785 l 192 785 l 192 0 l 97 0 z "},"ï":{"ha":288,"x_min":0,"x_max":289,"o":"m 237 872 q 211 872 237 872 q 185 923 185 872 q 237 974 185 974 q 289 923 289 974 q 237 872 289 872 m 52 872 q 26 872 52 872 q 0 923 0 872 q 52 974 0 974 q 104 923 104 974 q 52 872 104 872 m 97 785 l 192 785 l 192 0 l 97 0 l 97 785 z "},"ð":{"ha":629,"x_min":90,"x_max":538,"o":"m 538 426 l 538 203 q 482 46 538 104 q 314 -12 426 -12 q 146 46 201 -12 q 90 203 90 104 l 90 404 q 142 558 90 501 q 301 615 194 615 q 425 574 381 615 q 342 771 399 676 l 192 694 l 192 764 l 308 824 q 218 932 268 882 l 339 932 q 392 865 365 904 l 532 936 l 532 868 l 425 814 q 538 426 538 622 m 444 204 l 444 489 q 314 536 400 536 q 182 403 182 536 l 182 204 q 313 71 182 71 q 444 204 444 71 z "},"ñ":{"ha":626,"x_min":97,"x_max":536,"o":"m 421 986 l 489 986 l 489 967 q 465 892 489 918 q 403 865 442 865 q 317 894 364 865 q 249 922 269 922 q 217 879 217 922 l 217 863 l 149 863 l 149 882 q 172 956 149 928 q 236 983 194 983 q 326 956 278 983 q 390 928 375 928 q 421 971 421 928 l 421 986 m 188 753 q 358 792 281 792 q 486 744 436 792 q 536 608 536 696 l 536 0 l 442 0 l 442 600 q 336 704 442 704 q 192 668 271 704 l 192 0 l 97 0 l 97 789 l 188 789 l 188 753 z "},"ò":{"ha":614,"x_min":83,"x_max":531,"o":"m 200 999 l 289 999 l 342 850 l 281 850 l 200 999 m 438 586 q 307 719 438 719 q 176 586 176 719 l 176 201 q 307 69 176 69 q 438 201 438 69 l 438 586 m 83 588 q 138 744 83 685 q 307 803 193 803 q 476 744 421 803 q 531 588 531 685 l 531 200 q 476 44 531 103 q 307 -14 421 -14 q 138 44 193 -14 q 83 200 83 103 l 83 588 z "},"ó":{"ha":614,"x_min":83,"x_max":531,"o":"m 438 586 q 307 719 438 719 q 176 586 176 719 l 176 201 q 307 69 176 69 q 438 201 438 69 l 438 586 m 83 588 q 138 744 83 685 q 307 803 193 803 q 476 744 421 803 q 531 588 531 685 l 531 200 q 476 44 531 103 q 307 -14 421 -14 q 138 44 193 -14 q 83 200 83 103 l 83 588 m 335 999 l 424 999 l 343 850 l 282 850 l 335 999 z "},"ô":{"ha":614,"x_min":83,"x_max":531,"o":"m 83 200 l 83 588 q 138 744 83 685 q 307 803 193 803 q 476 744 421 803 q 531 588 531 685 l 531 200 q 476 44 531 103 q 307 -14 421 -14 q 138 44 193 -14 q 83 200 83 103 m 438 201 l 438 586 q 307 719 438 719 q 176 586 176 719 l 176 201 q 307 69 176 69 q 438 201 438 69 m 313 939 l 263 850 l 203 850 l 274 999 l 351 999 l 421 850 l 363 850 l 313 939 z "},"õ":{"ha":614,"x_min":83,"x_max":531,"o":"m 415 986 l 483 986 l 483 967 q 460 892 483 918 q 397 865 436 865 q 311 894 358 865 q 243 922 264 922 q 211 879 211 922 l 211 863 l 143 863 l 143 882 q 166 956 143 928 q 231 983 189 983 q 321 956 272 983 q 385 928 369 928 q 415 971 415 928 l 415 986 m 438 586 q 307 719 438 719 q 176 586 176 719 l 176 201 q 307 69 176 69 q 438 201 438 69 l 438 586 m 83 588 q 138 744 83 685 q 307 803 193 803 q 476 744 421 803 q 531 588 531 685 l 531 200 q 476 44 531 103 q 307 -14 421 -14 q 138 44 193 -14 q 83 200 83 103 l 83 588 z "},"ö":{"ha":614,"x_min":83,"x_max":531,"o":"m 438 586 q 307 719 438 719 q 176 586 176 719 l 176 201 q 307 69 176 69 q 438 201 438 69 l 438 586 m 83 588 q 138 744 83 685 q 307 803 193 803 q 476 744 421 803 q 531 588 531 685 l 531 200 q 476 44 531 103 q 307 -14 421 -14 q 138 44 193 -14 q 83 200 83 103 l 83 588 m 409 872 q 383 872 409 872 q 357 923 357 872 q 409 974 357 974 q 461 923 461 974 q 409 872 461 872 m 224 872 q 198 872 224 872 q 172 923 172 872 q 224 974 172 974 q 276 923 276 974 q 224 872 276 872 z "},"÷":{"ha":604,"x_min":56,"x_max":547,"o":"m 305 629 q 277 629 305 629 q 249 685 249 629 q 305 742 249 742 q 361 685 361 742 q 305 629 361 629 m 305 153 q 277 153 305 153 q 249 209 249 153 q 305 265 249 265 q 361 209 361 265 q 305 153 361 153 m 56 488 l 547 488 l 547 410 l 56 410 l 56 488 z "},"ø":{"ha":614,"x_min":83,"x_max":536,"o":"m 531 588 l 531 200 q 476 44 531 103 q 320 -14 421 -14 q 167 22 219 -14 l 156 0 l 89 0 l 121 65 q 83 200 83 117 l 83 588 q 138 744 83 685 q 297 803 193 803 q 456 761 401 803 l 469 789 l 536 789 l 500 713 q 531 588 531 661 m 176 586 l 176 183 l 414 675 q 307 719 383 719 q 176 586 176 719 m 438 201 l 438 585 l 206 106 q 307 69 238 69 q 438 201 438 69 z "},"ù":{"ha":626,"x_min":90,"x_max":531,"o":"m 196 999 l 285 999 l 338 850 l 276 850 l 196 999 m 300 81 q 436 125 369 81 l 436 789 l 531 789 l 531 0 l 439 0 l 439 38 q 284 -3 378 -3 q 140 48 190 -3 q 90 194 90 99 l 90 789 l 185 789 l 185 203 q 300 81 185 81 z "},"ú":{"ha":626,"x_min":90,"x_max":531,"o":"m 300 81 q 436 125 369 81 l 436 789 l 531 789 l 531 0 l 439 0 l 439 38 q 284 -3 378 -3 q 140 48 190 -3 q 90 194 90 99 l 90 789 l 185 789 l 185 203 q 300 81 185 81 m 332 999 l 421 999 l 340 850 l 279 850 l 332 999 z "},"û":{"ha":626,"x_min":90,"x_max":531,"o":"m 300 81 q 436 125 369 81 l 436 789 l 531 789 l 531 0 l 439 0 l 439 38 q 284 -3 378 -3 q 140 48 190 -3 q 90 194 90 99 l 90 789 l 185 789 l 185 203 q 300 81 185 81 m 313 939 l 263 850 l 203 850 l 274 999 l 351 999 l 421 850 l 363 850 l 313 939 z "},"ü":{"ha":626,"x_min":90,"x_max":531,"o":"m 300 81 q 436 125 369 81 l 436 789 l 531 789 l 531 0 l 439 0 l 439 38 q 284 -3 378 -3 q 140 48 190 -3 q 90 194 90 99 l 90 789 l 185 789 l 185 203 q 300 81 185 81 m 406 872 q 380 872 406 872 q 354 923 354 872 q 406 974 354 974 q 458 923 458 974 q 406 872 458 872 m 222 872 q 195 872 222 872 q 169 923 169 872 q 222 974 169 974 q 274 923 274 974 q 222 872 274 872 z "},"ý":{"ha":535,"x_min":25,"x_max":510,"o":"m 288 999 l 376 999 l 296 850 l 235 850 l 288 999 m 415 789 l 510 789 l 293 -207 l 201 -207 l 246 0 l 199 0 l 25 789 l 121 789 l 206 390 l 267 65 q 329 390 296 229 l 415 789 z "},"þ":{"ha":632,"x_min":97,"x_max":538,"o":"m 443 600 q 338 706 443 706 q 192 668 269 706 l 192 85 l 311 85 q 443 213 443 85 l 443 600 m 97 999 l 190 999 l 190 753 q 356 792 275 792 q 488 744 438 792 q 538 608 538 696 l 538 207 q 482 55 538 110 q 333 0 426 0 l 192 0 l 192 -243 l 97 -243 l 97 999 z "},"ÿ":{"ha":535,"x_min":25,"x_max":510,"o":"m 415 789 l 510 789 l 293 -207 l 201 -207 l 246 0 l 199 0 l 25 789 l 121 789 l 206 390 l 267 65 q 329 390 296 229 l 415 789 m 358 872 q 332 872 358 872 q 306 923 306 872 q 358 974 306 974 q 410 923 410 974 q 358 872 410 872 m 173 872 q 147 872 173 872 q 121 923 121 872 q 173 974 121 974 q 225 923 225 974 q 173 872 225 872 z "},"Ā":{"ha":606,"x_min":24,"x_max":581,"o":"m 486 0 l 428 263 l 175 263 l 118 0 l 24 0 l 236 932 l 369 932 l 581 0 l 486 0 m 193 344 l 410 344 l 301 838 l 193 344 m 453 1094 l 453 1032 l 147 1032 l 147 1094 l 453 1094 z "},"ā":{"ha":590,"x_min":44,"x_max":500,"o":"m 135 956 l 440 956 l 440 893 l 135 893 l 135 956 m 138 225 l 138 182 q 164 99 138 126 q 253 72 190 72 q 408 128 342 72 l 408 390 l 246 346 q 160 301 183 328 q 138 225 138 274 m 265 796 q 500 596 500 796 l 500 0 l 410 0 l 410 57 q 337 10 374 26 q 238 -6 300 -6 q 44 183 44 -6 l 44 229 q 213 419 44 371 l 408 474 l 408 596 q 377 681 408 654 q 254 708 346 708 q 82 681 163 708 l 82 771 q 265 796 160 796 z "},"Ă":{"ha":606,"x_min":24,"x_max":581,"o":"m 486 0 l 428 263 l 175 263 l 118 0 l 24 0 l 236 932 l 369 932 l 581 0 l 486 0 m 193 344 l 410 344 l 301 838 l 193 344 m 411 1031 q 391 1010 411 1031 q 301 989 371 989 q 192 1031 232 989 q 150 1138 151 1072 l 218 1138 q 241 1075 219 1099 q 301 1051 263 1051 q 362 1075 340 1051 q 385 1138 383 1099 l 453 1138 q 411 1031 451 1072 z "},"ă":{"ha":590,"x_min":44,"x_max":500,"o":"m 404 892 q 384 871 404 892 q 294 850 364 850 q 185 892 225 850 q 143 999 144 933 l 211 999 q 234 936 213 960 q 294 913 256 913 q 355 936 333 913 q 378 999 376 960 l 446 999 q 404 892 444 933 m 138 225 l 138 182 q 164 99 138 126 q 253 72 190 72 q 408 128 342 72 l 408 390 l 246 346 q 160 301 183 328 q 138 225 138 274 m 265 796 q 500 596 500 796 l 500 0 l 410 0 l 410 57 q 337 10 374 26 q 238 -6 300 -6 q 44 183 44 -6 l 44 229 q 213 419 44 371 l 408 474 l 408 596 q 377 681 408 654 q 254 708 346 708 q 82 681 163 708 l 82 771 q 265 796 160 796 z "},"Ą":{"ha":606,"x_min":24,"x_max":581,"o":"m 511 -129 q 563 -179 511 -179 l 579 -179 l 579 -243 l 560 -243 q 447 -150 447 -243 q 529 0 447 -65 l 486 0 l 428 263 l 175 263 l 118 0 l 24 0 l 236 932 l 369 932 l 581 0 l 579 0 q 511 -129 511 -54 m 193 344 l 410 344 l 301 838 l 193 344 z "},"ą":{"ha":590,"x_min":44,"x_max":500,"o":"m 265 796 q 500 596 500 796 l 500 0 l 499 0 q 431 -129 431 -54 q 482 -179 431 -179 l 499 -179 l 499 -243 l 479 -243 q 367 -150 367 -243 q 449 0 367 -65 l 410 0 l 410 57 q 337 10 374 26 q 238 -6 300 -6 q 44 183 44 -6 l 44 229 q 213 419 44 371 l 408 474 l 408 596 q 377 681 408 654 q 254 708 346 708 q 82 681 163 708 l 82 771 q 265 796 160 796 m 138 225 l 138 182 q 164 99 138 126 q 253 72 190 72 q 408 128 342 72 l 408 390 l 246 346 q 160 301 183 328 q 138 225 138 274 z "},"Ć":{"ha":546,"x_min":83,"x_max":494,"o":"m 83 743 q 144 888 83 836 q 331 939 206 939 q 492 917 411 939 l 492 829 q 328 853 410 853 q 212 824 246 853 q 178 739 178 796 l 178 192 q 212 108 178 136 q 332 79 246 79 q 494 101 418 79 l 494 15 q 331 -7 425 -7 q 83 189 83 -7 l 83 743 m 335 1138 l 424 1138 l 343 989 l 282 989 l 335 1138 z "},"ć":{"ha":514,"x_min":83,"x_max":464,"o":"m 83 599 q 315 796 83 796 q 461 776 400 796 l 461 690 q 320 708 403 708 q 208 681 238 708 q 178 596 178 654 l 178 192 q 208 106 178 133 q 317 79 238 79 q 464 100 396 79 l 464 13 q 315 -7 389 -7 q 83 189 83 -7 l 83 599 m 335 999 l 424 999 l 343 850 l 282 850 l 335 999 z "},"Č":{"ha":546,"x_min":83,"x_max":494,"o":"m 178 739 l 178 192 q 212 108 178 136 q 332 79 246 79 q 494 101 418 79 l 494 15 q 331 -7 425 -7 q 83 189 83 -7 l 83 743 q 144 888 83 836 q 331 939 206 939 q 492 917 411 939 l 492 829 q 328 853 410 853 q 212 824 246 853 q 178 739 178 796 m 275 989 l 204 1138 l 264 1138 l 314 1049 l 364 1138 l 422 1138 l 353 989 l 275 989 z "},"č":{"ha":514,"x_min":83,"x_max":464,"o":"m 178 596 l 178 192 q 208 106 178 133 q 317 79 238 79 q 464 100 396 79 l 464 13 q 315 -7 389 -7 q 83 189 83 -7 l 83 599 q 315 796 83 796 q 461 776 400 796 l 461 690 q 320 708 403 708 q 208 681 238 708 q 178 596 178 654 m 267 850 l 196 999 l 256 999 l 306 910 l 356 999 l 414 999 l 344 850 l 267 850 z "},"Ď":{"ha":644,"x_min":97,"x_max":563,"o":"m 97 932 l 339 932 q 506 875 449 932 q 563 722 563 818 l 563 211 q 507 57 563 114 q 340 0 451 0 l 97 0 l 97 932 m 468 214 l 468 721 q 333 850 468 850 l 190 850 l 190 83 l 333 83 q 468 214 468 83 m 274 989 l 203 1138 l 263 1138 l 313 1049 l 363 1138 l 421 1138 l 351 989 l 274 989 z "},"ď":{"ha":626,"x_min":83,"x_max":692,"o":"m 654 996 q 692 961 692 996 q 626 829 692 922 l 579 829 l 617 996 l 654 996 m 429 703 l 313 703 q 178 581 178 703 l 178 200 q 293 81 178 81 q 429 129 378 81 l 429 703 m 429 999 l 524 999 l 524 0 l 431 0 l 431 46 q 278 -4 372 -4 q 133 47 183 -4 q 83 194 83 99 l 83 582 q 141 735 83 681 q 296 789 199 789 l 429 789 l 429 999 z "},"Đ":{"ha":646,"x_min":15,"x_max":565,"o":"m 100 932 l 342 932 q 508 875 451 932 q 565 722 565 818 l 565 211 q 510 57 565 114 q 343 0 454 0 l 100 0 l 100 424 l 15 424 l 15 506 l 100 506 l 100 932 m 471 214 l 471 721 q 336 850 471 850 l 193 850 l 193 506 l 336 506 l 336 424 l 193 424 l 193 83 l 336 83 q 471 214 471 83 z "},"đ":{"ha":621,"x_min":85,"x_max":579,"o":"m 579 933 l 579 871 l 525 871 l 525 0 l 432 0 l 432 46 q 279 -4 374 -4 q 135 47 185 -4 q 85 194 85 99 l 85 582 q 142 735 85 681 q 297 789 200 789 l 431 789 l 431 871 l 257 871 l 257 933 l 431 933 l 431 999 l 525 999 l 525 933 l 579 933 m 431 703 l 314 703 q 179 581 179 703 l 179 200 q 294 81 179 81 q 431 129 379 81 l 431 703 z "},"Ē":{"ha":550,"x_min":97,"x_max":499,"o":"m 146 1094 l 451 1094 l 451 1032 l 146 1032 l 146 1094 m 97 932 l 499 932 l 499 849 l 190 849 l 190 511 l 458 511 l 458 428 l 190 428 l 190 83 l 499 83 l 499 0 l 97 0 l 97 932 z "},"ē":{"ha":606,"x_min":83,"x_max":531,"o":"m 83 200 l 83 588 q 139 744 83 685 q 308 803 194 803 q 476 744 421 803 q 531 588 531 685 l 531 346 l 176 346 l 176 203 q 216 110 176 140 q 340 79 256 79 q 507 103 425 79 l 507 15 q 343 -7 438 -7 q 83 200 83 -7 m 176 426 l 440 426 l 440 586 q 308 721 440 721 q 176 586 176 721 l 176 426 m 461 956 l 461 893 l 156 893 l 156 956 l 461 956 z "},"Ė":{"ha":550,"x_min":97,"x_max":499,"o":"m 305 1043 q 279 1043 305 1043 q 253 1094 253 1043 q 305 1146 253 1146 q 357 1094 357 1146 q 305 1043 357 1043 m 97 932 l 499 932 l 499 849 l 190 849 l 190 511 l 458 511 l 458 428 l 190 428 l 190 83 l 499 83 l 499 0 l 97 0 l 97 932 z "},"ė":{"ha":606,"x_min":83,"x_max":531,"o":"m 83 200 l 83 588 q 139 744 83 685 q 308 803 194 803 q 476 744 421 803 q 531 588 531 685 l 531 346 l 176 346 l 176 203 q 216 110 176 140 q 340 79 256 79 q 507 103 425 79 l 507 15 q 343 -7 438 -7 q 83 200 83 -7 m 176 426 l 440 426 l 440 586 q 308 721 440 721 q 176 586 176 721 l 176 426 m 312 1007 q 338 1007 312 1007 q 364 956 364 1007 q 312 904 364 904 q 260 956 260 904 q 312 1007 260 1007 z "},"Ę":{"ha":550,"x_min":97,"x_max":499,"o":"m 499 849 l 190 849 l 190 511 l 458 511 l 458 428 l 190 428 l 190 83 l 499 83 l 499 0 l 497 0 q 429 -129 429 -54 q 481 -179 429 -179 l 497 -179 l 497 -243 l 478 -243 q 365 -150 365 -243 q 447 0 365 -65 l 97 0 l 97 932 l 499 932 l 499 849 z "},"ę":{"ha":606,"x_min":83,"x_max":531,"o":"m 83 200 l 83 588 q 139 744 83 685 q 308 803 194 803 q 476 744 421 803 q 531 588 531 685 l 531 346 l 176 346 l 176 203 q 216 110 176 140 q 340 79 256 79 q 507 103 425 79 l 507 15 q 439 -114 439 -39 q 490 -164 439 -164 l 507 -164 l 507 -228 l 488 -228 q 375 -135 375 -228 q 439 0 375 -64 q 343 -7 394 -7 q 83 200 83 -7 m 176 426 l 440 426 l 440 586 q 308 721 440 721 q 176 586 176 721 l 176 426 z "},"Ě":{"ha":550,"x_min":97,"x_max":499,"o":"m 499 849 l 190 849 l 190 511 l 458 511 l 458 428 l 190 428 l 190 83 l 499 83 l 499 0 l 97 0 l 97 932 l 499 932 l 499 849 m 261 989 l 190 1138 l 250 1138 l 300 1049 l 350 1138 l 408 1138 l 339 989 l 261 989 z "},"ě":{"ha":606,"x_min":83,"x_max":531,"o":"m 83 200 l 83 588 q 139 744 83 685 q 308 803 194 803 q 476 744 421 803 q 531 588 531 685 l 531 346 l 176 346 l 176 203 q 216 110 176 140 q 340 79 256 79 q 507 103 425 79 l 507 15 q 343 -7 438 -7 q 83 200 83 -7 m 176 426 l 440 426 l 440 586 q 308 721 440 721 q 176 586 176 721 l 176 426 m 274 850 l 203 999 l 263 999 l 313 910 l 363 999 l 421 999 l 351 850 l 274 850 z "},"Ğ":{"ha":621,"x_min":83,"x_max":535,"o":"m 426 1031 q 406 1010 426 1031 q 317 989 386 989 q 207 1031 247 989 q 165 1138 167 1072 l 233 1138 q 256 1075 235 1099 q 317 1051 278 1051 q 377 1075 356 1051 q 400 1138 399 1099 l 468 1138 q 426 1031 467 1072 m 83 735 q 339 939 83 939 q 507 915 425 939 l 507 825 q 338 851 422 851 q 215 821 253 851 q 178 731 178 790 l 178 193 q 313 78 178 78 q 442 107 393 78 l 442 456 l 535 456 l 535 49 q 322 -7 436 -7 q 83 189 83 -7 l 83 735 z "},"ğ":{"ha":619,"x_min":56,"x_max":590,"o":"m 590 756 l 543 756 q 479 736 508 756 q 524 600 524 686 l 524 490 q 466 342 524 396 q 294 288 408 288 q 214 213 214 288 q 235 163 214 178 q 307 147 256 147 l 388 147 q 533 107 488 147 q 578 -14 578 67 l 578 -31 q 328 -207 578 -207 l 271 -207 q 56 -164 132 -207 l 56 -74 q 271 -125 143 -125 l 321 -125 q 486 -31 486 -125 l 486 -18 q 466 46 486 25 q 383 67 446 67 l 300 67 q 174 97 218 67 q 129 186 129 128 l 129 208 q 199 299 129 281 q 61 490 61 338 l 61 600 q 119 749 61 694 q 282 803 176 803 q 444 765 388 803 q 568 847 471 847 l 590 847 l 590 756 m 429 490 l 429 600 q 292 722 429 722 q 156 600 156 722 l 156 490 q 188 399 156 429 q 293 369 221 369 q 429 490 429 369 m 406 892 q 385 871 406 892 q 296 850 365 850 q 186 892 226 850 q 144 999 146 933 l 213 999 q 235 936 214 960 q 296 913 257 913 q 356 936 335 913 q 379 999 378 960 l 447 999 q 406 892 446 933 z "},"Ģ":{"ha":621,"x_min":83,"x_max":535,"o":"m 335 -85 q 372 -122 372 -85 q 308 -251 372 -160 l 261 -251 l 297 -85 l 335 -85 m 83 735 q 339 939 83 939 q 507 915 425 939 l 507 825 q 338 851 422 851 q 215 821 253 851 q 178 731 178 790 l 178 193 q 313 78 178 78 q 442 107 393 78 l 442 456 l 535 456 l 535 49 q 322 -7 436 -7 q 83 189 83 -7 l 83 735 z "},"ģ":{"ha":619,"x_min":56,"x_max":590,"o":"m 590 756 l 543 756 q 479 736 508 756 q 524 600 524 686 l 524 490 q 466 342 524 396 q 294 288 408 288 q 214 213 214 288 q 235 163 214 178 q 307 147 256 147 l 388 147 q 533 107 488 147 q 578 -14 578 67 l 578 -31 q 328 -207 578 -207 l 271 -207 q 56 -164 132 -207 l 56 -74 q 271 -125 143 -125 l 321 -125 q 486 -31 486 -125 l 486 -18 q 466 46 486 25 q 383 67 446 67 l 300 67 q 174 97 218 67 q 129 186 129 128 l 129 208 q 199 299 129 281 q 61 490 61 338 l 61 600 q 119 749 61 694 q 282 803 176 803 q 444 765 388 803 q 568 847 471 847 l 590 847 l 590 756 m 429 490 l 429 600 q 292 722 429 722 q 156 600 156 722 l 156 490 q 188 399 156 429 q 293 369 221 369 q 429 490 429 369 m 290 850 q 254 886 254 850 q 318 1018 254 922 l 365 1018 l 329 850 l 290 850 z "},"Ī":{"ha":288,"x_min":-7,"x_max":299,"o":"m -7 1094 l 299 1094 l 299 1032 l -7 1032 l -7 1094 m 97 932 l 192 932 l 192 0 l 97 0 l 97 932 z "},"ī":{"ha":288,"x_min":-8,"x_max":297,"o":"m -8 956 l 297 956 l 297 893 l -8 893 l -8 956 m 97 785 l 192 785 l 192 0 l 97 0 l 97 785 z "},"Į":{"ha":288,"x_min":60,"x_max":192,"o":"m 192 932 l 192 0 q 124 -129 124 -54 q 175 -179 124 -179 l 192 -179 l 192 -243 l 172 -243 q 60 -150 60 -243 q 142 0 60 -65 l 97 0 l 97 932 l 192 932 z "},"į":{"ha":288,"x_min":60,"x_max":203,"o":"m 97 0 l 97 785 l 192 785 l 192 0 q 124 -129 124 -54 q 175 -179 124 -179 l 192 -179 l 192 -243 l 172 -243 q 60 -150 60 -243 q 142 0 60 -65 l 97 0 m 203 942 q 203 911 203 942 q 144 881 203 881 q 86 942 86 881 q 144 1004 86 1004 q 203 942 203 1004 z "},"İ":{"ha":288,"x_min":89,"x_max":193,"o":"m 141 1043 q 115 1043 141 1043 q 89 1094 89 1043 q 141 1146 89 1146 q 193 1094 193 1146 q 141 1043 193 1043 m 97 932 l 192 932 l 192 0 l 97 0 l 97 932 z "},"ı":{"ha":288,"x_min":97,"x_max":192,"o":"m 97 785 l 192 785 l 192 0 l 97 0 l 97 785 z "},"Ķ":{"ha":599,"x_min":97,"x_max":575,"o":"m 324 -85 q 361 -122 361 -85 q 297 -251 361 -160 l 250 -251 l 286 -85 l 324 -85 m 97 932 l 190 932 l 190 0 l 97 0 l 97 932 m 461 932 l 564 932 l 367 468 l 575 0 l 469 0 l 265 465 l 461 932 z "},"ķ":{"ha":557,"x_min":97,"x_max":533,"o":"m 297 -85 q 335 -122 335 -85 q 271 -251 335 -160 l 224 -251 l 260 -85 l 297 -85 m 97 999 l 190 999 l 190 0 l 97 0 l 97 999 m 419 789 l 519 789 l 344 410 l 533 0 l 429 0 l 243 408 l 419 789 z "},"Ĺ":{"ha":482,"x_min":97,"x_max":475,"o":"m 97 932 l 192 932 l 192 82 l 475 82 l 475 0 l 97 0 l 97 932 m 163 1138 l 251 1138 l 171 989 l 110 989 l 163 1138 z "},"ĺ":{"ha":288,"x_min":97,"x_max":253,"o":"m 97 999 l 192 999 l 192 0 l 97 0 l 97 999 m 164 1207 l 253 1207 l 172 1058 l 111 1058 l 164 1207 z "},"Ļ":{"ha":482,"x_min":97,"x_max":475,"o":"m 288 -85 q 325 -119 325 -85 q 261 -251 325 -153 l 214 -251 l 250 -85 l 288 -85 m 97 932 l 192 932 l 192 82 l 475 82 l 475 0 l 97 0 l 97 932 z "},"ļ":{"ha":288,"x_min":74,"x_max":192,"o":"m 149 -85 q 185 -122 185 -85 q 121 -251 185 -160 l 74 -251 l 111 -85 l 149 -85 m 97 999 l 192 999 l 192 0 l 97 0 l 97 999 z "},"Ľ":{"ha":482,"x_min":35,"x_max":475,"o":"m 192 82 l 475 82 l 475 0 l 97 0 l 97 932 l 192 932 l 192 82 m 106 989 l 35 1138 l 94 1138 l 144 1049 l 194 1138 l 253 1138 l 183 989 l 106 989 z "},"ľ":{"ha":288,"x_min":97,"x_max":360,"o":"m 322 996 q 360 962 360 996 q 296 829 360 928 l 249 829 l 285 996 l 322 996 m 97 999 l 192 999 l 192 0 l 97 0 l 97 999 z "},"Ł":{"ha":483,"x_min":22,"x_max":478,"o":"m 194 82 l 478 82 l 478 0 l 100 0 l 100 389 l 22 349 l 22 425 l 100 465 l 100 932 l 194 932 l 194 515 l 329 585 l 329 508 l 194 439 l 194 82 z "},"ł":{"ha":289,"x_min":19,"x_max":269,"o":"m 192 0 l 97 0 l 97 611 l 19 567 l 19 643 l 97 688 l 97 999 l 192 999 l 192 742 l 269 786 l 269 710 l 192 665 l 192 0 z "},"Ń":{"ha":692,"x_min":97,"x_max":596,"o":"m 510 151 l 501 454 l 501 932 l 596 932 l 596 0 l 485 0 q 233 642 271 540 q 181 779 194 744 l 189 478 l 189 0 l 97 0 l 97 932 l 207 932 q 510 151 418 396 m 371 1138 l 460 1138 l 379 989 l 318 989 l 371 1138 z "},"ń":{"ha":626,"x_min":97,"x_max":536,"o":"m 188 753 q 358 792 281 792 q 486 744 436 792 q 536 608 536 696 l 536 0 l 442 0 l 442 600 q 336 704 442 704 q 192 668 271 704 l 192 0 l 97 0 l 97 789 l 188 789 l 188 753 m 338 999 l 426 999 l 346 850 l 285 850 l 338 999 z "},"Ņ":{"ha":692,"x_min":97,"x_max":596,"o":"m 333 -85 q 371 -122 371 -85 q 307 -251 371 -160 l 260 -251 l 296 -85 l 333 -85 m 510 151 l 501 454 l 501 932 l 596 932 l 596 0 l 485 0 q 233 642 271 540 q 181 779 194 744 q 189 478 181 779 l 189 0 l 97 0 l 97 932 l 207 932 q 510 151 418 396 z "},"ņ":{"ha":626,"x_min":97,"x_max":536,"o":"m 308 -85 q 346 -119 346 -85 q 282 -251 346 -153 l 235 -251 l 271 -85 l 308 -85 m 188 753 q 358 792 281 792 q 486 744 436 792 q 536 608 536 696 l 536 0 l 442 0 l 442 600 q 336 704 442 704 q 192 668 271 704 l 192 0 l 97 0 l 97 789 l 188 789 l 188 753 z "},"Ň":{"ha":692,"x_min":97,"x_max":596,"o":"m 510 151 l 501 454 l 501 932 l 596 932 l 596 0 l 485 0 q 233 642 271 540 q 181 779 194 744 l 189 478 l 189 0 l 97 0 l 97 932 l 207 932 q 510 151 418 396 m 310 989 l 239 1138 l 299 1138 l 349 1049 l 399 1138 l 457 1138 l 388 989 l 310 989 z "},"ň":{"ha":626,"x_min":97,"x_max":536,"o":"m 188 789 l 188 753 q 358 792 281 792 q 486 744 436 792 q 536 608 536 696 l 536 0 l 442 0 l 442 600 q 336 704 442 704 q 192 668 271 704 l 192 0 l 97 0 l 97 789 l 188 789 m 271 850 l 200 999 l 260 999 l 310 910 l 360 999 l 418 999 l 349 850 l 271 850 z "},"Ō":{"ha":632,"x_min":83,"x_max":550,"o":"m 456 725 q 316 860 456 860 q 176 725 176 860 l 176 207 q 316 71 176 71 q 456 207 456 71 l 456 725 m 83 726 q 142 885 83 825 q 317 946 201 946 q 491 885 432 946 q 550 726 550 825 l 550 206 q 491 47 550 107 q 317 -14 432 -14 q 142 47 201 -14 q 83 206 83 107 l 83 726 m 165 1094 l 471 1094 l 471 1032 l 165 1032 l 165 1094 z "},"ō":{"ha":614,"x_min":83,"x_max":531,"o":"m 438 586 q 307 719 438 719 q 176 586 176 719 l 176 201 q 307 69 176 69 q 438 201 438 69 l 438 586 m 83 588 q 138 744 83 685 q 307 803 193 803 q 476 744 421 803 q 531 588 531 685 l 531 200 q 476 44 531 103 q 307 -14 421 -14 q 138 44 193 -14 q 83 200 83 103 l 83 588 m 153 956 l 458 956 l 458 893 l 153 893 l 153 956 z "},"Ő":{"ha":632,"x_min":83,"x_max":550,"o":"m 456 725 q 316 860 456 860 q 176 725 176 860 l 176 207 q 316 71 176 71 q 456 207 456 71 l 456 725 m 83 726 q 142 885 83 825 q 317 946 201 946 q 491 885 432 946 q 550 726 550 825 l 550 206 q 491 47 550 107 q 317 -14 432 -14 q 142 47 201 -14 q 83 206 83 107 l 83 726 m 281 1138 l 365 1138 l 283 989 l 226 989 l 281 1138 m 399 1138 l 483 1138 l 401 989 l 344 989 l 399 1138 z "},"ő":{"ha":614,"x_min":83,"x_max":531,"o":"m 438 586 q 307 719 438 719 q 176 586 176 719 l 176 201 q 307 69 176 69 q 438 201 438 69 l 438 586 m 83 588 q 138 744 83 685 q 307 803 193 803 q 476 744 421 803 q 531 588 531 685 l 531 200 q 476 44 531 103 q 307 -14 421 -14 q 138 44 193 -14 q 83 200 83 103 l 83 588 m 279 999 l 364 999 l 282 850 l 225 850 l 279 999 m 397 999 l 482 999 l 400 850 l 343 850 l 397 999 z "},"Œ":{"ha":928,"x_min":111,"x_max":888,"o":"m 888 849 l 579 849 l 579 511 l 847 511 l 847 428 l 579 428 l 579 83 l 888 83 l 888 0 l 332 0 q 166 57 221 0 q 111 211 111 114 l 111 722 q 167 875 111 818 q 335 932 224 932 l 888 932 l 888 849 m 339 83 l 486 83 l 486 850 l 339 850 q 204 721 204 850 l 204 214 q 339 83 204 83 z "},"œ":{"ha":979,"x_min":94,"x_max":897,"o":"m 94 200 l 94 588 q 149 744 94 685 q 322 803 204 803 q 496 733 440 803 q 671 803 554 803 q 842 744 788 803 q 897 588 897 685 l 897 346 l 543 346 l 543 203 q 583 110 543 140 q 707 79 622 79 q 874 103 792 79 l 874 15 q 710 -7 804 -7 q 499 58 561 -7 q 323 -14 442 -14 q 149 44 204 -14 q 94 200 94 103 m 449 201 l 449 586 q 318 719 449 719 q 188 586 188 719 l 188 201 q 318 69 188 69 q 449 201 449 69 m 543 426 l 807 426 l 807 586 q 675 721 807 721 q 543 586 543 721 l 543 426 z "},"Ŕ":{"ha":633,"x_min":97,"x_max":574,"o":"m 333 376 l 190 376 l 190 0 l 97 0 l 97 932 l 321 932 q 488 875 431 932 q 544 722 544 818 l 544 588 q 425 393 544 438 l 574 0 l 469 0 l 333 376 m 190 458 l 317 458 q 451 588 451 458 l 451 719 q 317 849 451 849 l 190 849 l 190 458 m 426 1138 l 346 989 l 285 989 l 338 1138 l 426 1138 z "},"ŕ":{"ha":390,"x_min":97,"x_max":383,"o":"m 349 793 l 383 793 l 383 703 l 336 703 q 246 676 286 703 q 192 639 233 668 l 192 0 l 97 0 l 97 789 l 188 789 l 188 728 q 251 772 238 765 q 276 783 265 778 q 297 789 288 788 q 349 793 326 793 m 265 999 l 354 999 l 274 850 l 213 850 l 265 999 z "},"Ŗ":{"ha":633,"x_min":97,"x_max":574,"o":"m 333 376 l 190 376 l 190 0 l 97 0 l 97 932 l 321 932 q 488 875 431 932 q 544 722 544 818 l 544 588 q 425 393 544 438 l 574 0 l 469 0 l 333 376 m 190 458 l 317 458 q 451 588 451 458 l 451 719 q 317 849 451 849 l 190 849 l 190 458 m 318 -85 q 356 -122 356 -85 q 292 -251 356 -160 l 244 -251 l 281 -85 l 318 -85 z "},"ŗ":{"ha":390,"x_min":74,"x_max":383,"o":"m 149 -85 q 185 -122 185 -85 q 121 -251 185 -160 l 74 -251 l 111 -85 l 149 -85 m 349 793 l 383 793 l 383 703 l 336 703 q 246 676 286 703 q 192 639 233 668 l 192 0 l 97 0 l 97 789 l 188 789 l 188 728 q 251 772 238 765 q 276 783 265 778 q 297 789 288 788 q 349 793 326 793 z "},"Ř":{"ha":633,"x_min":97,"x_max":574,"o":"m 333 376 l 190 376 l 190 0 l 97 0 l 97 932 l 321 932 q 488 875 431 932 q 544 722 544 818 l 544 588 q 425 393 544 438 l 574 0 l 469 0 l 333 376 m 190 458 l 317 458 q 451 588 451 458 l 451 719 q 317 849 451 849 l 190 849 l 190 458 m 272 989 l 201 1138 l 261 1138 l 311 1049 l 361 1138 l 419 1138 l 350 989 l 272 989 z "},"ř":{"ha":390,"x_min":97,"x_max":383,"o":"m 349 793 l 383 793 l 383 703 l 336 703 q 246 676 286 703 q 192 639 233 668 l 192 0 l 97 0 l 97 789 l 188 789 l 188 728 q 251 772 238 765 q 276 783 265 778 q 297 789 288 788 q 349 793 326 793 m 204 850 l 133 999 l 193 999 l 243 910 l 293 999 l 351 999 l 282 850 l 204 850 z "},"Ś":{"ha":536,"x_min":39,"x_max":492,"o":"m 39 744 q 99 888 39 836 q 270 939 160 939 q 456 917 381 939 l 456 826 q 279 851 388 851 q 135 742 135 851 l 135 672 q 153 595 135 625 q 217 542 172 565 l 378 451 q 492 268 492 392 l 492 193 q 426 46 492 99 q 241 -7 361 -7 q 46 21 121 -7 l 46 111 q 231 79 131 79 q 396 199 396 79 l 396 258 q 379 331 396 304 q 319 381 363 358 l 160 468 q 39 663 39 535 l 39 744 m 290 1138 l 379 1138 l 299 989 l 238 989 l 290 1138 z "},"ś":{"ha":500,"x_min":40,"x_max":461,"o":"m 40 604 q 95 749 40 701 q 274 796 150 796 q 428 772 354 796 l 428 685 q 275 710 358 710 q 163 685 192 710 q 133 601 133 660 l 133 565 q 151 494 133 518 q 215 450 168 471 l 335 392 q 461 222 461 332 l 461 186 q 211 -7 461 -7 q 44 15 117 -7 l 44 104 q 206 79 117 79 q 331 106 294 79 q 367 188 367 133 l 367 215 q 349 277 367 256 q 278 324 331 299 l 157 381 q 40 557 40 435 l 40 604 m 281 999 l 369 999 l 289 850 l 228 850 l 281 999 z "},"Ş":{"ha":536,"x_min":39,"x_max":492,"o":"m 256 -85 q 292 -122 292 -85 q 228 -251 292 -160 l 181 -251 l 218 -85 l 256 -85 m 39 744 q 99 888 39 836 q 270 939 160 939 q 456 917 381 939 l 456 826 q 279 851 388 851 q 135 742 135 851 l 135 672 q 153 595 135 625 q 217 542 172 565 l 378 451 q 492 268 492 392 l 492 193 q 426 46 492 99 q 241 -7 361 -7 q 46 21 121 -7 l 46 111 q 231 79 131 79 q 396 199 396 79 l 396 258 q 379 331 396 304 q 319 381 363 358 l 160 468 q 39 663 39 535 l 39 744 z "},"ş":{"ha":500,"x_min":40,"x_max":461,"o":"m 246 -85 q 282 -122 282 -85 q 218 -251 282 -160 l 171 -251 l 208 -85 l 246 -85 m 40 604 q 95 749 40 701 q 274 796 150 796 q 428 772 354 796 l 428 685 q 275 710 358 710 q 163 685 192 710 q 133 601 133 660 l 133 565 q 151 494 133 518 q 215 450 168 471 l 335 392 q 461 222 461 332 l 461 186 q 211 -7 461 -7 q 44 15 117 -7 l 44 104 q 206 79 117 79 q 331 106 294 79 q 367 188 367 133 l 367 215 q 349 277 367 256 q 278 324 331 299 l 157 381 q 40 557 40 435 l 40 604 z "},"Š":{"ha":536,"x_min":39,"x_max":492,"o":"m 492 268 l 492 193 q 426 46 492 99 q 241 -7 361 -7 q 46 21 121 -7 l 46 111 q 231 79 131 79 q 396 199 396 79 l 396 258 q 379 331 396 304 q 319 381 363 358 l 160 468 q 39 663 39 535 l 39 744 q 99 888 39 836 q 270 939 160 939 q 456 917 381 939 l 456 826 q 279 851 388 851 q 135 742 135 851 l 135 672 q 153 595 135 625 q 217 542 172 565 l 378 451 q 492 268 492 392 m 238 989 l 167 1138 l 226 1138 l 276 1049 l 326 1138 l 385 1138 l 315 989 l 238 989 z "},"š":{"ha":500,"x_min":40,"x_max":461,"o":"m 461 222 l 461 186 q 211 -7 461 -7 q 44 15 117 -7 l 44 104 q 206 79 117 79 q 331 106 294 79 q 367 188 367 133 l 367 215 q 349 277 367 256 q 278 324 331 299 l 157 381 q 40 557 40 435 l 40 604 q 95 749 40 701 q 274 796 150 796 q 428 772 354 796 l 428 685 q 275 710 358 710 q 163 685 192 710 q 133 601 133 660 l 133 565 q 151 494 133 518 q 215 450 168 471 l 335 392 q 461 222 461 332 m 214 850 l 143 999 l 203 999 l 253 910 l 303 999 l 361 999 l 292 850 l 214 850 z "},"Ţ":{"ha":483,"x_min":13,"x_max":471,"o":"m 471 932 l 471 849 l 289 849 l 289 0 l 194 0 l 194 849 l 13 849 l 13 932 l 471 932 m 247 -85 q 285 -119 285 -85 q 219 -251 285 -158 l 172 -251 l 210 -85 l 247 -85 z "},"ţ":{"ha":401,"x_min":7,"x_max":381,"o":"m 246 -85 q 282 -122 282 -85 q 218 -251 282 -160 l 171 -251 l 208 -85 l 246 -85 m 189 932 l 189 789 l 367 789 l 367 706 l 189 706 l 189 172 q 213 101 189 122 q 291 79 236 79 q 381 94 346 79 l 381 8 q 278 -6 325 -6 q 94 168 94 -6 l 94 706 l 7 706 l 7 789 l 97 789 l 125 932 l 189 932 z "},"Ť":{"ha":483,"x_min":13,"x_max":471,"o":"m 471 932 l 471 849 l 289 849 l 289 0 l 194 0 l 194 849 l 13 849 l 13 932 l 471 932 m 201 989 l 131 1138 l 190 1138 l 240 1049 l 290 1138 l 349 1138 l 279 989 l 201 989 z "},"ť":{"ha":401,"x_min":7,"x_max":425,"o":"m 189 932 l 189 789 l 367 789 l 367 706 l 189 706 l 189 172 q 213 101 189 122 q 291 79 236 79 q 381 94 346 79 l 381 8 q 278 -6 325 -6 q 94 168 94 -6 l 94 706 l 7 706 l 7 789 l 97 789 l 125 932 l 189 932 m 390 1075 q 425 1042 425 1075 q 354 858 425 996 l 313 858 l 354 1075 l 390 1075 z "},"Ū":{"ha":646,"x_min":90,"x_max":556,"o":"m 169 1094 l 475 1094 l 475 1032 l 169 1032 l 169 1094 m 461 932 l 556 932 l 556 206 q 497 47 556 107 q 322 -14 438 -14 q 149 47 207 -14 q 90 206 90 107 l 90 932 l 183 932 l 183 207 q 322 71 183 71 q 461 207 461 71 l 461 932 z "},"ū":{"ha":626,"x_min":90,"x_max":531,"o":"m 154 956 l 460 956 l 460 893 l 154 893 l 154 956 m 300 81 q 436 125 369 81 l 436 789 l 531 789 l 531 0 l 439 0 l 439 38 q 284 -3 378 -3 q 140 48 190 -3 q 90 194 90 99 l 90 789 l 185 789 l 185 203 q 300 81 185 81 z "},"Ů":{"ha":646,"x_min":90,"x_max":556,"o":"m 461 932 l 556 932 l 556 206 q 497 47 556 107 q 322 -14 438 -14 q 149 47 207 -14 q 90 206 90 107 l 90 932 l 183 932 l 183 207 q 322 71 183 71 q 461 207 461 71 l 461 932 m 375 1064 q 362 1099 375 1086 q 326 1113 349 1113 q 291 1099 304 1113 q 278 1064 278 1086 q 326 1014 278 1014 q 375 1064 375 1014 m 251 992 q 238 1006 251 992 q 224 1064 224 1021 q 251 1135 224 1107 q 327 1164 279 1164 q 402 1135 375 1164 q 429 1064 429 1107 q 402 992 429 1021 q 327 963 375 963 q 251 992 279 963 z "},"ů":{"ha":626,"x_min":90,"x_max":531,"o":"m 300 81 q 436 125 369 81 l 436 789 l 531 789 l 531 0 l 439 0 l 439 38 q 284 -3 378 -3 q 140 48 190 -3 q 90 194 90 99 l 90 789 l 185 789 l 185 203 q 300 81 185 81 m 361 925 q 348 960 361 947 q 313 974 335 974 q 277 960 290 974 q 264 925 264 947 q 313 875 264 875 q 361 925 361 875 m 238 853 q 224 867 238 853 q 210 925 210 882 q 238 997 210 968 q 313 1025 265 1025 q 388 997 361 1025 q 415 925 415 968 q 388 853 415 882 q 313 824 361 824 q 238 853 265 824 z "},"Ű":{"ha":646,"x_min":90,"x_max":556,"o":"m 276 1138 l 361 1138 l 279 989 l 222 989 l 276 1138 m 394 1138 l 479 1138 l 397 989 l 340 989 l 394 1138 m 461 932 l 556 932 l 556 206 q 497 47 556 107 q 322 -14 438 -14 q 149 47 207 -14 q 90 206 90 107 l 90 932 l 183 932 l 183 207 q 322 71 183 71 q 461 207 461 71 l 461 932 z "},"ű":{"ha":626,"x_min":90,"x_max":531,"o":"m 271 999 l 356 999 l 274 850 l 217 850 l 271 999 m 389 999 l 474 999 l 392 850 l 335 850 l 389 999 m 300 81 q 436 125 369 81 l 436 789 l 531 789 l 531 0 l 439 0 l 439 38 q 284 -3 378 -3 q 140 48 190 -3 q 90 194 90 99 l 90 789 l 185 789 l 185 203 q 300 81 185 81 z "},"Ų":{"ha":646,"x_min":90,"x_max":556,"o":"m 461 932 l 556 932 l 556 206 q 444 10 556 63 q 381 -115 381 -44 q 432 -165 381 -165 l 449 -165 l 449 -229 l 429 -229 q 317 -136 317 -229 q 372 -11 317 -69 q 322 -14 342 -14 q 149 47 207 -14 q 90 206 90 107 l 90 932 l 183 932 l 183 207 q 322 71 183 71 q 461 207 461 71 l 461 932 z "},"ų":{"ha":626,"x_min":90,"x_max":531,"o":"m 300 81 q 436 125 369 81 l 436 789 l 531 789 l 531 0 l 529 0 q 461 -129 461 -54 q 513 -179 461 -179 l 529 -179 l 529 -243 l 510 -243 q 397 -150 397 -243 q 479 0 397 -65 l 439 0 l 439 38 q 284 -3 378 -3 q 140 48 190 -3 q 90 194 90 99 l 90 789 l 185 789 l 185 203 q 300 81 185 81 z "},"Ÿ":{"ha":564,"x_min":6,"x_max":558,"o":"m 329 0 l 235 0 l 235 315 l 6 932 l 103 932 l 199 674 q 283 426 208 646 q 463 932 353 633 l 558 932 l 329 315 l 329 0 m 369 1011 q 343 1011 369 1011 q 317 1062 317 1011 q 369 1113 317 1113 q 421 1062 421 1113 q 369 1011 421 1011 m 184 1011 q 158 1011 184 1011 q 132 1062 132 1011 q 184 1113 132 1113 q 236 1062 236 1113 q 184 1011 236 1011 z "},"Ź":{"ha":529,"x_min":39,"x_max":489,"o":"m 47 932 l 489 932 l 489 850 l 139 83 l 482 83 l 482 0 l 39 0 l 39 83 l 388 849 l 47 849 l 47 932 m 283 1138 l 372 1138 l 292 989 l 231 989 l 283 1138 z "},"ź":{"ha":443,"x_min":28,"x_max":414,"o":"m 35 789 l 414 789 l 414 715 l 122 82 l 414 82 l 414 0 l 28 0 l 28 74 l 315 706 l 35 706 l 35 789 m 244 999 l 333 999 l 253 850 l 192 850 l 244 999 z "},"Ż":{"ha":529,"x_min":39,"x_max":489,"o":"m 262 1043 q 236 1043 262 1043 q 210 1094 210 1043 q 262 1146 210 1146 q 314 1094 314 1146 q 262 1043 314 1043 m 47 932 l 489 932 l 489 850 l 139 83 l 482 83 l 482 0 l 39 0 l 39 83 l 388 849 l 47 849 l 47 932 z "},"ż":{"ha":443,"x_min":28,"x_max":414,"o":"m 234 904 q 208 904 234 904 q 182 956 182 904 q 234 1007 182 1007 q 286 956 286 1007 q 234 904 286 904 m 35 789 l 414 789 l 414 715 l 122 82 l 414 82 l 414 0 l 28 0 l 28 74 l 315 706 l 35 706 l 35 789 z "},"Ž":{"ha":529,"x_min":39,"x_max":489,"o":"m 489 932 l 489 850 l 139 83 l 482 83 l 482 0 l 39 0 l 39 83 l 388 849 l 47 849 l 47 932 l 489 932 m 231 989 l 160 1138 l 219 1138 l 269 1049 l 319 1138 l 378 1138 l 308 989 l 231 989 z "},"ž":{"ha":443,"x_min":28,"x_max":414,"o":"m 414 789 l 414 715 l 122 82 l 414 82 l 414 0 l 28 0 l 28 74 l 315 706 l 35 706 l 35 789 l 414 789 m 193 850 l 122 999 l 182 999 l 232 910 l 282 999 l 340 999 l 271 850 l 193 850 z "},"ƒ":{"ha":421,"x_min":-33,"x_max":435,"o":"m -33 76 l -4 75 q 66 99 43 75 q 99 181 89 124 l 167 590 l 56 590 l 56 671 l 179 671 l 203 814 q 260 955 218 908 q 393 1001 303 1001 q 435 999 407 1001 l 435 918 q 399 921 413 921 q 329 897 351 921 q 297 815 307 872 l 274 671 l 375 671 l 375 590 l 260 590 l 193 181 q 135 40 178 86 q 3 -6 93 -6 q -33 -3 -8 -6 l -33 76 z "},"Ș":{"ha":536,"x_min":39,"x_max":492,"o":"m 258 -85 q 296 -119 296 -85 q 231 -251 296 -158 l 183 -251 l 221 -85 l 258 -85 m 39 744 q 99 888 39 836 q 270 939 160 939 q 456 917 381 939 l 456 826 q 279 851 388 851 q 135 742 135 851 l 135 672 q 153 595 135 625 q 217 542 172 565 l 378 451 q 492 268 492 392 l 492 193 q 426 46 492 99 q 241 -7 361 -7 q 46 21 121 -7 l 46 111 q 231 79 131 79 q 396 199 396 79 l 396 258 q 379 331 396 304 q 319 381 363 358 l 160 468 q 39 663 39 535 l 39 744 z "},"ș":{"ha":500,"x_min":40,"x_max":461,"o":"m 258 -85 q 296 -119 296 -85 q 231 -251 296 -158 l 183 -251 l 221 -85 l 258 -85 m 40 604 q 95 749 40 701 q 274 796 150 796 q 428 772 354 796 l 428 685 q 275 710 358 710 q 163 685 192 710 q 133 601 133 660 l 133 565 q 151 494 133 518 q 215 450 168 471 l 335 392 q 461 222 461 332 l 461 186 q 211 -7 461 -7 q 44 15 117 -7 l 44 104 q 206 79 117 79 q 331 106 294 79 q 367 188 367 133 l 367 215 q 349 277 367 256 q 278 324 331 299 l 157 381 q 40 557 40 435 l 40 604 z "},"Ț":{"ha":483,"x_min":13,"x_max":471,"o":"m 471 932 l 471 849 l 289 849 l 289 0 l 194 0 l 194 849 l 13 849 l 13 932 l 471 932 m 242 -85 q 279 -119 279 -85 q 214 -251 279 -158 l 167 -251 l 204 -85 l 242 -85 z "},"ț":{"ha":401,"x_min":7,"x_max":381,"o":"m 249 -85 q 286 -119 286 -85 q 221 -251 286 -158 l 174 -251 l 211 -85 l 249 -85 m 189 932 l 189 789 l 367 789 l 367 706 l 189 706 l 189 172 q 213 101 189 122 q 291 79 236 79 q 381 94 346 79 l 381 8 q 278 -6 325 -6 q 94 168 94 -6 l 94 706 l 7 706 l 7 789 l 97 789 l 125 932 l 189 932 z "},"ˆ":{"ha":486,"x_min":133,"x_max":351,"o":"m 351 850 l 293 850 l 243 939 l 193 850 l 133 850 l 204 999 l 282 999 l 351 850 z "},"ˇ":{"ha":486,"x_min":133,"x_max":351,"o":"m 293 999 l 351 999 l 282 850 l 204 850 l 133 999 l 193 999 l 243 910 l 293 999 z "},"ˉ":{"ha":486,"x_min":90,"x_max":396,"o":"m 90 956 l 396 956 l 396 893 l 90 893 l 90 956 z "},"˘":{"ha":486,"x_min":92,"x_max":394,"o":"m 353 892 q 333 871 353 892 q 243 850 313 850 q 133 892 174 850 q 92 999 93 933 l 160 999 q 183 936 161 960 q 243 913 204 913 q 303 936 282 913 q 326 999 325 960 l 394 999 q 353 892 393 933 z "},"˙":{"ha":486,"x_min":189,"x_max":293,"o":"m 241 904 q 215 904 241 904 q 189 956 189 904 q 241 1007 189 1007 q 293 956 293 1007 q 241 904 293 904 z "},"˚":{"ha":486,"x_min":140,"x_max":346,"o":"m 292 925 q 278 960 292 947 q 243 974 265 974 q 208 960 221 974 q 194 925 194 947 q 243 875 194 875 q 292 925 292 875 m 168 853 q 154 867 168 853 q 140 925 140 882 q 168 997 140 968 q 244 1025 196 1025 q 319 997 292 1025 q 346 925 346 968 q 319 853 346 882 q 244 824 292 824 q 168 853 196 824 z "},"˛":{"ha":486,"x_min":178,"x_max":310,"o":"m 242 -129 q 293 -179 242 -179 l 310 -179 l 310 -243 l 290 -243 q 178 -150 178 -243 q 260 0 178 -65 l 310 0 q 242 -129 242 -54 z "},"˜":{"ha":486,"x_min":72,"x_max":413,"o":"m 344 986 l 413 986 l 413 967 q 389 892 413 918 q 326 865 365 865 q 240 894 288 865 q 172 922 193 922 q 140 879 140 922 l 140 863 l 72 863 l 72 882 q 95 956 72 928 q 160 983 118 983 q 250 956 201 983 q 314 928 299 928 q 344 971 344 928 l 344 986 z "},"˝":{"ha":486,"x_min":114,"x_max":371,"o":"m 168 999 l 253 999 l 171 850 l 114 850 l 168 999 m 286 999 l 371 999 l 289 850 l 232 850 l 286 999 z "},"π":{"ha":626,"x_min":96,"x_max":631,"o":"m 631 789 l 631 706 l 536 706 l 536 0 l 442 0 l 442 706 l 192 706 l 192 0 l 97 0 l 96 789 l 631 789 z "},"ँ":{"ha":0,"x_min":-365,"x_max":75,"o":"m -8 1158 l 75 1158 l 75 1157 q 20 1029 75 1068 q -145 990 -35 990 q -310 1028 -256 990 q -365 1157 -365 1067 l -365 1158 l -282 1158 q -251 1086 -282 1106 q -144 1067 -219 1067 q -39 1086 -69 1067 q -8 1158 -8 1106 m -145 1153 q -173 1153 -145 1153 q -200 1208 -200 1153 q -145 1263 -200 1263 q -90 1208 -90 1263 q -145 1153 -90 1153 z "},"ं":{"ha":0,"x_min":-201,"x_max":-89,"o":"m -145 1010 q -173 1010 -145 1010 q -201 1066 -201 1010 q -145 1122 -201 1122 q -89 1066 -89 1122 q -145 1010 -89 1010 z "},"ः":{"ha":276,"x_min":60,"x_max":172,"o":"m 116 0 q 88 0 116 0 q 60 56 60 0 q 116 113 60 113 q 172 56 172 113 q 116 0 172 0 m 116 476 q 88 476 116 476 q 60 533 60 476 q 116 589 60 589 q 172 533 172 589 q 116 476 172 476 z "},"अ":{"ha":778,"x_min":50,"x_max":811,"o":"m 590 901 l 811 901 l 811 826 l 676 826 l 676 0 l 590 0 l 590 296 l 425 296 l 425 233 q 369 97 425 146 q 220 47 314 47 q 50 68 126 47 l 50 150 q 206 126 133 126 q 340 235 338 126 l 340 336 q 317 417 340 389 q 222 446 293 444 l 139 446 l 139 526 l 222 526 q 317 554 293 526 q 340 635 340 582 l 340 721 q 206 829 340 829 q 65 804 138 829 l 65 888 q 222 908 131 908 q 369 859 314 908 q 425 722 425 810 l 425 635 q 353 486 425 514 q 424 371 414 461 l 590 371 l 590 901 z "},"आ":{"ha":1100,"x_min":85,"x_max":1135,"o":"m 1135 901 l 1135 826 l 1000 826 l 1000 0 l 914 0 l 914 826 l 711 826 l 711 0 l 625 0 l 625 296 l 460 296 l 460 233 q 404 97 460 146 q 255 47 349 47 q 85 68 161 47 l 85 150 q 240 126 168 126 q 375 235 372 126 l 375 336 q 351 417 375 389 q 257 446 328 444 l 174 446 l 174 526 l 257 526 q 351 554 328 526 q 375 635 375 582 l 375 721 q 240 829 375 829 q 100 804 172 829 l 100 888 q 257 908 165 908 q 404 859 349 908 q 460 722 460 810 l 460 635 q 388 486 460 514 q 458 371 449 461 l 625 371 l 625 901 l 1135 901 z "},"इ":{"ha":553,"x_min":-33,"x_max":585,"o":"m 153 238 l 153 128 q 276 117 208 117 q 410 211 410 117 l 410 264 q 383 333 410 310 q 290 357 357 357 l 260 357 q 58 525 58 357 l 58 533 q 260 700 58 700 l 369 700 l 369 826 l -33 826 l -33 901 l 585 901 l 585 826 l 456 826 l 456 622 l 260 622 q 169 600 194 622 q 143 532 143 578 l 143 525 q 169 457 143 481 q 260 433 194 433 l 290 433 q 494 265 494 433 l 494 210 q 444 81 494 124 q 299 39 393 39 q 153 50 204 39 l 153 -90 l 71 -90 l 71 238 l 153 238 z "},"ई":{"ha":553,"x_min":-33,"x_max":585,"o":"m 456 622 l 260 622 q 169 600 194 622 q 143 532 143 578 l 143 525 q 169 457 143 481 q 260 433 194 433 l 290 433 q 494 265 494 433 l 494 210 q 444 81 494 124 q 299 39 393 39 q 153 50 204 39 l 153 -90 l 71 -90 l 71 238 l 153 238 l 153 128 q 276 117 208 117 q 410 211 410 117 l 410 264 q 383 333 410 310 q 290 357 357 357 l 260 357 q 58 525 58 357 l 58 533 q 260 700 58 700 l 369 700 l 369 826 l -33 826 l -33 901 l 363 901 q 314 1069 314 993 q 365 1185 314 1144 q 493 1225 417 1225 q 561 1219 494 1225 l 561 1143 q 510 1147 539 1147 q 400 1053 400 1147 q 449 901 400 999 l 585 901 l 585 826 l 456 826 l 456 622 z "},"उ":{"ha":556,"x_min":-33,"x_max":588,"o":"m 374 731 q 354 826 374 788 l -33 826 l -33 901 l 588 901 l 588 826 l 443 826 q 458 732 458 800 l 458 614 q 388 468 458 490 q 458 321 458 443 l 458 182 q 215 -4 458 -4 q 67 17 140 -4 l 67 100 q 215 75 146 75 q 374 182 374 75 l 374 319 q 350 399 374 371 q 257 428 326 426 l 172 428 l 172 508 l 260 508 q 351 536 328 508 q 374 614 374 564 l 374 731 z "},"ऊ":{"ha":785,"x_min":-33,"x_max":817,"o":"m 374 731 q 354 826 374 788 l -33 826 l -33 901 l 817 901 l 817 826 l 443 826 q 458 732 458 800 l 458 614 q 404 476 458 508 q 536 489 482 489 q 685 442 635 489 q 735 310 735 394 l 735 171 q 690 44 735 90 q 558 -1 644 -1 l 531 -1 l 531 79 l 540 79 q 624 103 600 79 q 649 172 649 126 l 649 303 q 529 410 649 410 l 444 410 q 458 321 458 372 l 458 182 q 215 -4 458 -4 q 67 17 140 -4 l 67 100 q 215 75 146 75 q 374 182 374 75 l 374 319 q 350 399 374 371 q 257 428 326 426 l 172 428 l 172 508 l 260 508 q 351 536 328 508 q 374 614 374 564 l 374 731 z "},"ऋ":{"ha":936,"x_min":-33,"x_max":969,"o":"m 969 826 l 519 826 l 519 596 q 650 582 585 582 q 783 688 783 582 l 783 700 l 867 700 l 867 319 l 810 319 q 728 290 754 319 q 703 193 703 261 q 829 74 703 74 q 908 82 872 74 l 908 6 q 825 -1 874 -1 q 676 46 733 -1 q 618 190 618 93 q 786 386 618 382 l 786 546 q 649 501 744 501 q 519 514 586 501 l 519 0 l 436 0 l 436 135 q 443 367 436 318 l 438 367 q 344 254 425 339 l 164 68 l 56 68 l 56 74 l 433 465 l 433 592 q 299 611 372 611 q 146 493 146 611 l 146 411 l 61 411 l 61 496 q 119 641 61 590 q 293 692 178 692 q 433 672 364 692 l 433 826 l -33 826 l -33 901 l 969 901 l 969 826 z "},"ऌ":{"ha":857,"x_min":-33,"x_max":889,"o":"m 754 826 l 754 86 q 678 89 735 89 q 597 65 621 89 q 574 -19 574 40 q 601 -98 574 -78 q 664 -118 628 -118 q 717 -116 700 -118 q 747 -110 735 -114 q 760 -107 758 -107 l 760 -189 q 679 -200 704 -200 q 489 -18 489 -200 q 669 167 489 167 l 669 567 q 569 586 622 586 q 456 489 456 586 l 456 290 l 369 290 l 369 489 q 263 586 369 586 q 178 560 201 586 q 156 485 156 533 l 156 213 q 186 113 156 149 q 297 78 217 78 q 372 83 336 78 l 372 7 q 296 0 338 0 q 71 211 71 0 l 71 486 q 118 619 71 572 q 266 665 165 665 q 411 603 367 665 q 565 665 458 665 q 669 646 621 665 l 669 826 l -33 826 l -33 901 l 889 901 l 889 826 l 754 826 z "},"ऍ":{"ha":592,"x_min":-33,"x_max":625,"o":"m 313 -7 q 96 174 96 -7 l 96 826 l -33 826 l -33 901 l 625 901 l 625 826 l 506 826 l 506 551 q 464 425 506 472 q 335 378 422 378 q 301 381 324 378 l 301 460 q 326 458 310 458 q 399 483 379 458 q 419 553 419 507 l 419 826 l 182 826 l 182 175 q 314 72 182 72 q 483 100 393 72 l 483 21 q 313 -7 417 -7 m 443 1172 l 525 1172 l 525 1171 q 471 1042 525 1081 q 306 1004 417 1004 q 140 1042 194 1004 q 86 1171 86 1081 l 86 1172 l 168 1172 q 199 1100 168 1119 q 306 1081 231 1081 q 412 1101 381 1081 q 443 1172 443 1121 z "},"ऎ":{"ha":592,"x_min":-33,"x_max":625,"o":"m 504 901 l 625 901 l 625 826 l 506 826 l 506 551 q 464 425 506 472 q 335 378 422 378 q 301 381 324 378 l 301 460 q 326 458 310 458 q 399 483 379 458 q 419 553 419 507 l 419 826 l 182 826 l 182 175 q 314 72 182 72 q 483 100 393 72 l 483 21 q 313 -7 417 -7 q 96 174 96 -7 l 96 826 l -33 826 l -33 901 l 422 901 q 393 992 422 961 q 286 1024 364 1024 q 120 1072 172 1024 q 68 1219 68 1119 l 150 1219 q 180 1128 150 1160 q 288 1097 210 1097 q 453 1049 401 1097 q 504 901 504 1000 z "},"ए":{"ha":592,"x_min":-33,"x_max":625,"o":"m 319 -7 q 96 182 96 -7 l 96 826 l -33 826 l -33 901 l 625 901 l 625 826 l 506 826 l 506 551 q 464 425 506 472 q 335 378 422 378 q 301 381 324 378 l 301 460 q 326 458 310 458 q 399 483 379 458 q 419 553 419 507 l 419 826 l 182 826 l 182 182 q 214 100 182 128 q 322 72 246 72 q 489 100 399 72 l 489 21 q 319 -7 425 -7 z "},"ऐ":{"ha":592,"x_min":-33,"x_max":625,"o":"m 625 901 l 625 826 l 506 826 l 506 551 q 464 425 506 472 q 335 378 422 378 q 301 381 324 378 l 301 460 q 326 458 310 458 q 399 483 379 458 q 419 553 419 507 l 419 826 l 182 826 l 182 175 q 314 72 182 72 q 483 100 393 72 l 483 21 q 313 -7 417 -7 q 96 174 96 -7 l 96 826 l -33 826 l -33 901 l 414 901 l 186 1219 l 283 1219 l 503 901 l 625 901 z "},"ऑ":{"ha":1101,"x_min":85,"x_max":1135,"o":"m 1135 901 l 1135 826 l 1000 826 l 1000 0 l 914 0 l 914 826 l 711 826 l 711 0 l 625 0 l 625 296 l 460 296 l 460 233 q 404 97 460 146 q 255 47 349 47 q 85 68 161 47 l 85 150 q 240 126 168 126 q 375 235 372 126 l 375 336 q 351 417 375 389 q 257 446 328 444 l 174 446 l 174 526 l 257 526 q 351 554 328 526 q 375 635 375 582 l 375 721 q 240 829 375 829 q 100 804 172 829 l 100 888 q 257 908 165 908 q 404 859 349 908 q 460 722 460 810 l 460 635 q 388 486 460 514 q 458 371 449 461 l 625 371 l 625 901 l 1135 901 m 1036 1164 l 1036 1163 q 983 1033 1036 1071 q 817 996 929 996 q 651 1034 706 996 q 597 1163 597 1072 l 597 1164 l 679 1164 q 710 1092 679 1111 q 817 1072 742 1072 q 923 1092 892 1072 q 954 1164 954 1113 l 1036 1164 z "},"ऒ":{"ha":1101,"x_min":85,"x_max":1135,"o":"m 997 901 l 1135 901 l 1135 826 l 1000 826 l 1000 0 l 914 0 l 914 826 l 711 826 l 711 0 l 625 0 l 625 296 l 460 296 l 460 233 q 404 97 460 146 q 255 47 349 47 q 85 68 161 47 l 85 150 q 240 126 168 126 q 375 235 372 126 l 375 336 q 351 417 375 389 q 257 446 328 444 l 174 446 l 174 526 l 257 526 q 351 554 328 526 q 375 635 375 582 l 375 721 q 240 829 375 829 q 100 804 172 829 l 100 888 q 257 908 165 908 q 404 859 349 908 q 460 722 460 810 l 460 635 q 388 486 460 514 q 458 371 449 461 l 625 371 l 625 901 l 915 901 q 886 992 915 961 q 779 1024 857 1024 q 613 1072 665 1024 q 561 1219 561 1119 l 644 1219 q 674 1128 644 1160 q 781 1097 703 1097 q 946 1049 894 1097 q 997 901 997 1000 z "},"ओ":{"ha":1101,"x_min":85,"x_max":1135,"o":"m 1135 901 l 1135 826 l 1000 826 l 1000 0 l 914 0 l 914 826 l 711 826 l 711 0 l 625 0 l 625 296 l 460 296 l 460 233 q 404 97 460 146 q 255 47 349 47 q 85 68 161 47 l 85 150 q 240 126 168 126 q 375 235 372 126 l 375 336 q 351 417 375 389 q 257 446 328 444 l 174 446 l 174 526 l 257 526 q 351 554 328 526 q 375 635 375 582 l 375 721 q 240 829 375 829 q 100 804 172 829 l 100 888 q 257 908 165 908 q 404 859 349 908 q 460 722 460 810 l 460 635 q 388 486 460 514 q 458 371 449 461 l 625 371 l 625 901 l 910 901 l 788 1089 q 694 1144 751 1144 q 658 1142 681 1144 l 658 1217 q 717 1219 683 1219 q 851 1131 793 1219 l 999 901 l 1135 901 z "},"औ":{"ha":1101,"x_min":85,"x_max":1135,"o":"m 1135 901 l 1135 826 l 1000 826 l 1000 0 l 914 0 l 914 826 l 711 826 l 711 0 l 625 0 l 625 296 l 460 296 l 460 233 q 404 97 460 146 q 255 47 349 47 q 85 68 161 47 l 85 150 q 240 126 168 126 q 375 235 372 126 l 375 336 q 351 417 375 389 q 257 446 328 444 l 174 446 l 174 526 l 257 526 q 351 554 328 526 q 375 635 375 582 l 375 721 q 240 829 375 829 q 100 804 172 829 l 100 888 q 257 908 165 908 q 404 859 349 908 q 460 722 460 810 l 460 635 q 388 486 460 514 q 458 371 449 461 l 625 371 l 625 901 l 781 901 l 658 1089 q 565 1144 621 1144 q 529 1142 549 1144 l 529 1217 q 586 1219 551 1219 q 721 1128 658 1219 l 869 901 l 918 901 l 864 1078 q 840 1129 853 1114 q 805 1144 826 1144 q 767 1142 783 1144 l 767 1217 q 806 1219 789 1219 q 932 1117 901 1219 l 996 901 l 1135 901 z "},"क":{"ha":806,"x_min":-33,"x_max":839,"o":"m 301 621 l 264 622 q 174 598 200 622 q 149 526 149 574 l 149 268 q 264 172 149 172 q 364 186 317 172 l 364 826 l -33 826 l -33 901 l 839 901 l 839 826 l 449 826 l 449 688 q 546 701 488 701 q 740 529 740 701 l 740 275 q 699 149 740 196 q 571 103 657 103 q 538 104 547 103 l 538 185 q 564 183 546 183 q 637 208 617 183 q 657 278 657 232 l 657 528 q 542 624 657 624 q 449 611 486 624 l 449 0 l 364 0 l 364 110 q 260 96 306 96 q 64 267 64 96 l 64 528 q 260 700 64 700 q 301 696 285 700 l 301 621 z "},"ख":{"ha":1011,"x_min":-33,"x_max":1043,"o":"m 363 729 q 344 826 363 781 l -33 826 l -33 901 l 1043 901 l 1043 826 l 908 826 l 908 0 l 824 0 l 824 190 q 714 178 781 178 q 526 350 526 178 l 526 525 q 713 699 526 699 q 824 685 760 699 l 824 826 l 429 826 q 444 729 444 794 l 444 560 q 244 361 444 361 q 150 371 196 361 l 150 244 q 381 75 150 75 q 572 99 490 75 l 572 17 q 361 -6 489 -6 q 149 54 233 -6 q 65 244 65 114 l 65 614 l 150 614 l 150 447 q 253 439 200 439 q 363 561 363 439 l 363 729 m 824 607 q 711 621 768 621 q 631 597 654 621 q 608 525 608 572 l 608 350 q 631 278 608 301 q 723 254 654 254 q 824 267 792 254 l 824 607 z "},"ग":{"ha":665,"x_min":-33,"x_max":699,"o":"m 42 351 l 81 349 q 179 446 179 349 l 179 826 l -33 826 l -33 901 l 699 901 l 699 826 l 564 826 l 564 0 l 478 0 l 478 826 l 264 826 l 264 443 q 220 316 264 364 q 90 268 176 268 q 42 272 54 268 l 42 351 z "},"घ":{"ha":683,"x_min":-33,"x_max":715,"o":"m 496 826 l 194 826 q 183 729 183 792 l 183 631 q 207 560 183 583 q 296 536 231 538 l 344 536 l 344 456 l 294 456 q 201 431 228 456 q 175 361 175 407 l 175 296 q 218 195 175 225 q 346 165 261 165 q 496 186 431 165 l 496 826 m 97 729 q 107 826 97 781 l -33 826 l -33 901 l 715 901 l 715 826 l 582 826 l 582 0 l 496 0 l 496 108 q 340 89 415 89 q 156 139 222 89 q 89 292 89 189 l 89 363 q 172 496 89 471 q 97 629 97 524 l 97 729 z "},"ङ":{"ha":617,"x_min":-33,"x_max":649,"o":"m 619 494 q 619 466 619 494 q 564 438 619 438 q 508 494 508 438 q 564 550 508 550 q 619 494 619 550 m 503 233 l 503 171 q 268 -8 503 -8 q 76 13 169 -8 l 76 92 q 268 71 163 71 q 417 171 417 71 l 417 232 q 391 303 417 279 q 299 326 365 326 l 274 326 q 71 493 71 326 l 71 535 q 274 701 71 701 l 376 701 l 376 826 l -33 826 l -33 901 l 649 901 l 649 826 l 463 826 l 463 624 l 274 624 q 183 601 208 624 q 157 532 157 578 l 157 494 q 183 426 157 450 q 274 403 208 403 l 299 403 q 503 233 503 403 z "},"च":{"ha":640,"x_min":-33,"x_max":672,"o":"m 125 471 q 138 592 125 547 l 17 592 l 17 668 l 376 668 l 376 593 l 225 593 q 211 471 211 551 l 211 269 q 240 190 211 217 q 332 164 268 164 q 453 183 396 164 l 453 826 l -33 826 l -33 901 l 672 901 l 672 826 l 539 826 l 539 0 l 453 0 l 453 106 q 328 86 394 86 q 125 268 125 86 l 125 471 z "},"छ":{"ha":701,"x_min":-33,"x_max":733,"o":"m 538 508 q 516 585 538 561 q 444 610 494 610 q 354 599 393 610 l 354 675 q 442 686 392 686 l 442 826 l 192 826 q 176 729 176 792 l 176 546 q 201 475 176 499 q 290 450 225 451 l 363 450 l 363 372 l 292 372 q 197 349 224 372 q 169 276 169 325 l 169 232 q 206 134 169 160 q 353 108 243 108 q 501 135 464 108 q 538 236 538 163 l 538 508 m 92 729 q 106 826 92 788 l -33 826 l -33 901 l 733 901 l 733 826 l 521 826 l 521 675 q 622 515 622 650 l 622 233 q 561 77 622 124 q 354 31 500 31 q 146 76 208 31 q 83 231 83 122 l 83 279 q 167 410 83 385 q 92 544 92 439 l 92 729 z "},"ज":{"ha":764,"x_min":-33,"x_max":796,"o":"m 300 493 q 289 590 300 549 l 135 590 l 135 668 l 575 668 l 575 826 l -33 826 l -33 901 l 796 901 l 796 826 l 661 826 l 661 0 l 575 0 l 575 593 l 375 593 q 386 496 386 560 l 386 246 q 332 107 386 156 q 174 58 278 58 q 44 75 107 58 l 44 156 q 172 138 110 138 q 300 247 300 138 l 300 493 z "},"झ":{"ha":832,"x_min":-33,"x_max":864,"o":"m 644 433 l 644 826 l 467 826 l 467 624 l 271 624 q 181 601 206 624 q 156 533 156 579 l 156 525 q 180 458 156 481 q 268 433 204 435 l 644 433 m 276 357 l 269 357 q 69 525 69 357 l 69 535 q 271 701 69 701 l 381 701 l 381 826 l -33 826 l -33 901 l 864 901 l 864 826 l 729 826 l 729 0 l 644 0 l 644 361 l 438 361 q 478 263 478 332 l 478 199 q 429 70 478 113 q 290 28 381 28 q 154 40 199 28 l 154 -83 l 72 -83 l 72 218 l 154 218 l 154 118 q 267 106 200 106 q 393 201 393 106 l 393 263 q 367 333 393 308 q 276 357 342 357 z "},"ञ":{"ha":796,"x_min":-33,"x_max":828,"o":"m 338 258 l 338 519 q 310 601 338 572 q 215 629 283 629 q 89 606 147 629 l 89 686 q 215 708 143 708 q 424 522 424 708 l 424 425 l 608 425 l 608 826 l -33 826 l -33 901 l 828 901 l 828 826 l 694 826 l 694 0 l 608 0 l 608 350 l 424 350 l 424 254 q 215 69 424 69 q 79 92 138 69 l 79 171 q 214 149 146 149 q 310 177 282 149 q 338 258 338 206 z "},"ट":{"ha":543,"x_min":-33,"x_max":575,"o":"m 163 517 l 163 192 q 313 74 163 74 q 474 97 399 74 l 474 17 q 303 -6 404 -6 q 140 46 203 -6 q 78 192 78 97 l 78 519 q 283 697 78 697 l 364 697 l 364 826 l -33 826 l -33 901 l 575 901 l 575 826 l 450 826 l 450 618 l 288 618 q 163 517 163 618 z "},"ठ":{"ha":563,"x_min":-33,"x_max":594,"o":"m 400 172 l 400 526 q 281 629 400 629 q 163 526 163 629 l 163 172 q 281 71 163 71 q 400 172 400 71 m 485 528 l 485 172 q 433 40 485 88 q 281 -7 382 -7 q 128 40 179 -7 q 78 172 78 88 l 78 528 q 238 703 78 685 l 238 826 l -33 826 l -33 901 l 594 901 l 594 826 l 324 826 l 324 703 q 485 528 485 685 z "},"ड":{"ha":571,"x_min":-33,"x_max":603,"o":"m 503 222 l 503 171 q 268 -8 503 -8 q 81 11 164 -8 l 81 94 q 268 71 171 71 q 417 172 417 71 l 417 221 q 391 290 417 267 q 299 314 365 314 l 274 314 q 71 482 71 314 l 71 535 q 274 701 71 701 l 376 701 l 376 826 l -33 826 l -33 901 l 603 901 l 603 826 l 463 826 l 463 624 l 274 624 q 183 601 208 624 q 157 532 157 578 l 157 483 q 183 415 157 439 q 274 392 208 392 l 299 392 q 503 222 503 392 z "},"ढ":{"ha":564,"x_min":-33,"x_max":597,"o":"m 281 699 l 369 699 l 369 826 l -33 826 l -33 901 l 597 901 l 597 826 l 454 826 l 454 619 l 281 619 q 188 596 214 619 q 163 525 163 572 l 163 182 q 190 101 163 129 q 289 72 218 72 q 388 101 360 72 q 415 181 415 129 l 415 244 q 328 338 415 338 l 269 329 l 269 406 q 333 415 294 415 q 454 373 408 415 q 500 246 500 331 l 500 179 q 288 -7 500 -7 q 76 181 76 -7 l 76 526 q 281 699 76 699 z "},"ण":{"ha":846,"x_min":-33,"x_max":879,"o":"m 385 826 l 160 826 l 160 346 q 183 271 160 297 q 272 244 207 244 q 361 271 338 244 q 385 346 385 297 l 385 826 m 469 346 q 272 165 469 165 q 74 346 74 165 l 74 826 l -33 826 l -33 901 l 879 901 l 879 826 l 744 826 l 744 0 l 660 0 l 660 826 l 469 826 l 469 346 z "},"त":{"ha":601,"x_min":-33,"x_max":635,"o":"m 74 517 q 127 650 74 601 q 269 699 181 699 q 414 681 357 699 l 414 826 l -33 826 l -33 901 l 635 901 l 635 826 l 500 826 l 500 0 l 414 0 l 414 603 q 288 619 347 619 q 160 515 160 619 l 160 172 q 187 101 160 125 q 281 79 214 78 l 281 -1 l 253 -1 q 74 169 74 -1 l 74 517 z "},"थ":{"ha":758,"x_min":65,"x_max":792,"o":"m 572 901 l 792 901 l 792 826 l 657 826 l 657 0 l 572 0 l 572 143 q 368 119 485 119 q 140 183 214 119 q 65 382 65 247 l 65 521 l 186 521 q 317 548 278 521 q 356 653 356 575 l 356 725 q 340 805 356 781 q 268 829 324 829 q 194 805 213 829 q 176 726 176 781 l 182 658 l 99 658 q 92 725 92 697 q 133 862 92 815 q 266 908 174 908 q 397 863 358 908 q 435 726 435 818 l 435 647 q 376 490 435 538 q 192 443 317 443 l 153 443 l 153 382 q 201 241 153 282 q 365 200 250 200 q 572 222 479 200 l 572 901 z "},"द":{"ha":560,"x_min":-33,"x_max":592,"o":"m 61 285 l 61 525 q 265 697 61 697 l 371 697 l 371 826 l -33 826 l -33 901 l 592 901 l 592 826 l 457 826 l 457 618 l 265 618 q 173 594 199 618 q 147 524 147 571 l 147 286 q 279 182 147 182 q 396 194 338 182 l 396 329 l 478 329 l 478 -11 l 396 -11 l 396 115 q 275 103 342 103 q 117 151 172 103 q 61 285 61 199 z "},"ध":{"ha":683,"x_min":-33,"x_max":715,"o":"m 97 729 q 110 826 97 792 l -33 826 l -33 901 l 335 901 l 335 826 l 197 826 q 183 729 183 792 l 183 636 q 207 566 183 589 q 296 542 231 543 l 344 542 l 344 461 l 294 461 q 201 437 228 461 q 175 367 175 413 l 175 293 q 218 194 175 224 q 342 165 261 165 q 496 186 422 165 l 496 901 l 715 901 l 715 826 l 582 826 l 582 0 l 496 0 l 496 107 q 324 88 425 88 q 156 138 224 88 q 89 289 89 188 l 89 368 q 172 501 89 476 q 113 550 129 517 q 97 636 97 583 l 97 729 z "},"न":{"ha":793,"x_min":-33,"x_max":826,"o":"m 247 588 q 171 565 193 588 q 149 497 149 543 l 149 253 q 171 186 149 208 q 247 164 193 164 q 323 186 301 164 q 344 253 344 208 l 344 486 q 328 588 344 554 l 247 588 m 413 588 q 428 488 428 533 l 428 253 q 246 85 428 85 q 64 253 64 85 l 64 499 q 247 665 64 665 l 606 665 l 606 826 l -33 826 l -33 901 l 826 901 l 826 826 l 692 826 l 692 0 l 606 0 l 606 588 l 413 588 z "},"ऩ":{"ha":803,"x_min":-33,"x_max":836,"o":"m 38 -71 q 10 -71 38 -71 q -18 -15 -18 -71 q 38 40 -18 40 q 94 -15 94 40 q 38 -71 94 -71 m 257 588 q 181 565 203 588 q 160 497 160 543 l 160 253 q 181 186 160 208 q 257 164 203 164 q 333 186 311 164 q 356 253 356 208 l 356 486 q 338 588 356 551 l 257 588 m 615 588 l 421 588 q 433 548 428 581 q 439 488 439 515 l 439 253 q 257 85 439 85 q 75 253 75 85 l 75 499 q 257 665 75 665 l 615 665 l 615 826 l -33 826 l -33 901 l 836 901 l 836 826 l 701 826 l 701 0 l 615 0 l 615 588 z "},"प":{"ha":589,"x_min":-33,"x_max":622,"o":"m 401 826 l 160 826 l 160 357 q 286 257 160 257 q 401 275 353 257 l 401 826 m 401 0 l 401 197 q 267 178 356 178 q 126 224 179 178 q 74 356 74 271 l 74 826 l -33 826 l -33 901 l 622 901 l 622 826 l 488 826 l 488 0 l 401 0 z "},"फ":{"ha":833,"x_min":-33,"x_max":865,"o":"m 385 826 l 160 826 l 160 344 q 288 243 160 243 q 385 256 331 243 l 385 826 m 682 519 q 658 591 682 567 q 576 615 633 615 q 469 600 518 615 l 469 0 l 385 0 l 385 179 q 281 165 336 165 q 127 212 179 165 q 75 342 75 258 l 75 826 l -33 826 l -33 901 l 865 901 l 865 826 l 469 826 l 469 679 q 575 694 519 694 q 719 648 671 694 q 768 521 768 601 l 768 261 q 724 135 768 181 q 590 90 679 90 l 569 92 l 565 92 l 565 171 q 656 194 631 169 q 682 265 682 218 l 682 519 z "},"ब":{"ha":581,"x_min":-33,"x_max":614,"o":"m -33 901 l 614 901 l 614 826 l 479 826 l 479 0 l 399 0 l 399 115 q 279 97 349 97 q 119 143 175 97 q 64 278 64 189 l 64 524 q 119 656 64 610 q 261 701 174 701 q 399 683 349 701 l 399 826 l -33 826 l -33 901 m 282 625 q 150 543 164 625 l 399 347 l 399 607 q 282 625 349 625 m 149 279 q 282 174 149 174 q 399 192 349 174 l 399 271 l 149 471 l 149 279 z "},"भ":{"ha":813,"x_min":67,"x_max":844,"o":"m 357 547 l 357 733 q 337 804 357 781 q 258 828 317 828 q 179 804 200 828 q 158 733 158 781 l 164 661 l 78 661 q 72 735 72 701 q 258 908 72 908 q 443 735 443 908 l 443 547 l 625 547 l 625 901 l 844 901 l 844 826 l 710 826 l 710 0 l 625 0 l 625 474 l 442 474 l 442 251 q 397 126 442 168 q 254 85 353 85 q 111 126 156 85 q 67 251 67 168 l 67 385 q 111 508 67 468 q 254 547 156 547 l 357 547 m 357 253 l 357 474 l 254 474 q 171 452 192 474 q 150 383 150 431 l 150 253 q 171 184 150 206 q 253 163 192 163 q 336 184 315 163 q 357 253 357 206 z "},"म":{"ha":789,"x_min":-33,"x_max":822,"o":"m 601 0 l 601 522 l 422 522 l 422 251 q 377 127 422 168 q 233 86 332 86 q 46 251 46 86 l 46 433 q 91 556 46 515 q 233 597 136 597 l 338 597 l 338 826 l -33 826 l -33 901 l 822 901 l 822 826 l 688 826 l 688 0 l 601 0 m 422 597 l 601 597 l 601 826 l 422 826 l 422 597 m 338 253 l 338 522 l 233 522 q 151 501 172 522 q 131 432 131 479 l 131 253 q 151 184 131 206 q 234 163 172 163 q 317 184 296 163 q 338 253 338 206 z "},"य":{"ha":690,"x_min":-33,"x_max":724,"o":"m 257 729 q 246 826 257 785 l -33 826 l -33 901 l 724 901 l 724 826 l 589 826 l 589 0 l 503 0 l 503 135 q 347 118 439 118 q 76 356 76 118 l 76 533 l 104 533 q 225 553 193 533 q 257 635 257 574 l 257 729 m 342 729 l 342 626 q 161 464 342 464 l 161 361 q 206 238 161 278 q 339 199 251 199 q 503 214 426 199 l 503 826 l 331 826 q 342 729 342 793 z "},"र":{"ha":576,"x_min":-33,"x_max":608,"o":"m 407 729 q 394 826 407 779 l -33 826 l -33 901 l 608 901 l 608 826 l 482 826 q 492 729 492 794 l 492 536 q 293 358 492 358 q 169 378 233 358 l 169 196 q 326 72 169 72 q 500 97 411 72 l 500 17 q 313 -7 415 -7 q 147 44 210 -7 q 85 194 85 96 l 85 625 l 169 625 l 169 456 q 288 436 239 436 q 407 538 407 436 l 407 729 z "},"ऱ":{"ha":578,"x_min":-33,"x_max":611,"o":"m 408 729 q 397 826 408 785 l -33 826 l -33 901 l 611 901 l 611 826 l 483 826 q 494 729 494 794 l 494 536 q 296 358 494 358 q 172 378 233 358 l 172 196 q 329 72 172 72 q 501 97 413 72 l 501 17 q 315 -7 417 -7 q 149 44 213 -7 q 86 194 86 96 l 86 625 l 172 625 l 172 456 q 290 436 242 436 q 408 538 408 436 l 408 729 m 25 -137 q -3 -137 25 -137 q -31 -82 -31 -137 q 25 -26 -31 -26 q 81 -82 81 -26 q 25 -137 81 -137 z "},"ल":{"ha":858,"x_min":-33,"x_max":890,"o":"m 71 211 l 71 486 q 119 618 71 571 q 267 665 167 665 q 413 603 368 665 q 567 665 460 665 q 671 646 621 665 l 671 826 l -33 826 l -33 901 l 890 901 l 890 826 l 756 826 l 756 0 l 671 0 l 671 567 q 569 586 628 586 q 457 489 457 586 l 457 288 l 371 288 l 371 489 q 264 586 371 586 q 180 560 203 586 q 157 485 157 533 l 157 213 q 188 113 157 149 q 300 78 218 78 q 381 83 342 78 l 381 7 q 299 0 343 0 q 71 211 71 0 z "},"ळ":{"ha":822,"x_min":-33,"x_max":854,"o":"m 453 497 l 453 172 q 564 68 453 68 q 647 95 625 68 q 669 172 669 122 l 669 497 q 647 574 669 547 q 564 601 625 601 q 453 497 453 601 m 154 497 l 154 172 q 176 95 154 122 q 260 68 199 68 q 371 172 371 68 l 371 497 q 260 601 371 601 q 176 574 199 601 q 154 497 154 547 m 750 499 l 750 171 q 565 -7 750 -7 q 411 65 451 -7 q 258 -7 372 -7 q 71 171 71 -7 l 71 499 q 260 676 71 676 q 411 603 372 676 q 519 671 440 658 l 519 826 l -33 826 l -33 901 l 854 901 l 854 826 l 606 826 l 606 672 q 750 499 750 654 z "},"ऴ":{"ha":822,"x_min":-33,"x_max":854,"o":"m 467 -147 q 467 -175 467 -147 q 411 -203 467 -203 q 356 -147 356 -203 q 411 -90 356 -90 q 467 -147 467 -90 m 453 497 l 453 172 q 564 68 453 68 q 647 95 625 68 q 669 172 669 122 l 669 497 q 647 574 669 547 q 564 601 625 601 q 453 497 453 601 m 154 497 l 154 172 q 176 95 154 122 q 260 68 199 68 q 371 172 371 68 l 371 497 q 260 601 371 601 q 176 574 199 601 q 154 497 154 547 m 750 499 l 750 171 q 565 -7 750 -7 q 411 65 451 -7 q 258 -7 372 -7 q 71 171 71 -7 l 71 499 q 260 676 71 676 q 411 603 372 676 q 519 671 440 658 l 519 826 l -33 826 l -33 901 l 854 901 l 854 826 l 606 826 l 606 672 q 750 499 750 654 z "},"व":{"ha":590,"x_min":-33,"x_max":622,"o":"m 404 607 q 285 625 358 625 q 181 596 213 625 q 150 519 150 567 l 150 281 q 279 175 150 175 q 404 192 367 175 l 404 607 m 403 826 l -33 826 l -33 901 l 622 901 l 622 826 l 489 826 l 489 0 l 403 0 l 403 115 q 265 97 358 97 q 118 144 171 97 q 65 279 65 192 l 65 521 q 119 653 65 606 q 265 701 172 701 q 403 683 358 701 l 403 826 z "},"श":{"ha":829,"x_min":90,"x_max":861,"o":"m 94 675 q 90 729 90 703 q 142 861 90 814 q 294 908 193 908 q 447 861 396 908 q 497 729 497 814 l 497 532 q 297 354 497 354 q 176 374 232 354 l 176 200 q 217 106 176 138 q 331 74 258 74 q 494 99 404 74 l 494 18 q 316 -6 411 -6 q 156 49 221 -6 q 90 199 90 104 l 90 561 l 176 561 l 176 451 q 294 432 238 432 q 413 533 413 432 l 413 728 q 294 828 413 828 q 176 726 176 828 q 181 675 176 683 l 94 675 m 640 901 l 861 901 l 861 826 l 726 826 l 726 0 l 640 0 l 640 901 z "},"ष":{"ha":604,"x_min":-33,"x_max":638,"o":"m -33 901 l 638 901 l 638 826 l 503 826 l 503 0 l 419 0 l 419 182 q 270 160 358 160 q 128 206 182 160 q 74 336 74 251 l 74 826 l -33 826 l -33 901 m 419 826 l 160 826 l 160 706 l 419 464 l 419 826 m 160 338 q 292 238 160 238 q 419 260 353 238 l 419 378 l 160 619 l 160 338 z "},"स":{"ha":832,"x_min":-33,"x_max":865,"o":"m 381 729 q 368 826 381 789 l -33 826 l -33 901 l 865 901 l 865 826 l 731 826 l 731 0 l 644 0 l 644 404 l 421 404 q 267 353 372 353 q 169 365 222 353 l 169 196 q 325 72 169 72 q 496 97 407 72 l 496 17 q 310 -7 411 -7 q 147 44 210 -7 q 83 194 83 96 l 83 625 l 169 625 l 169 443 q 263 431 219 431 q 381 532 381 431 l 381 729 m 644 479 l 644 826 l 454 826 q 465 729 465 794 l 465 532 q 460 479 465 501 l 644 479 z "},"ह":{"ha":581,"x_min":-33,"x_max":614,"o":"m 68 182 l 68 260 q 143 390 68 357 q 71 518 71 424 l 71 538 q 119 661 71 621 q 269 701 167 701 l 393 701 l 393 826 l -33 826 l -33 901 l 614 901 l 614 826 l 478 826 l 478 624 l 269 624 q 181 602 204 624 q 157 535 157 581 l 157 518 q 183 451 157 474 q 272 429 208 429 l 338 429 q 471 389 429 429 q 513 265 513 349 l 513 224 l 431 224 l 431 263 q 412 332 431 311 q 333 353 393 353 l 278 353 q 182 330 210 353 q 154 261 154 307 l 154 183 q 319 71 154 71 q 492 93 424 71 l 492 15 q 315 -7 433 -7 q 132 43 196 -7 q 68 182 68 93 z "},"़":{"ha":0,"x_min":-339,"x_max":-228,"o":"m -228 -124 q -228 -152 -228 -124 q -283 -181 -228 -181 q -339 -124 -339 -181 q -283 -68 -339 -68 q -228 -124 -228 -68 z "},"ऽ":{"ha":583,"x_min":75,"x_max":532,"o":"m 532 279 l 532 186 q 308 -7 532 -7 l 301 -7 q 79 186 79 -7 l 79 281 l 164 281 l 164 185 q 193 103 164 132 q 303 74 222 74 l 307 74 q 417 103 389 74 q 446 185 446 132 l 446 279 q 431 351 446 322 q 375 403 417 381 l 188 507 q 75 696 75 569 l 75 733 q 121 859 75 817 q 275 901 167 901 l 499 901 l 499 821 l 278 821 q 183 799 206 821 q 161 732 161 778 l 161 699 q 176 627 161 656 q 232 576 190 599 l 418 472 q 507 392 482 438 q 532 279 532 347 z "},"ा":{"ha":289,"x_min":-33,"x_max":322,"o":"m 101 826 l -33 826 l -33 901 l 322 901 l 322 826 l 188 826 l 188 0 l 101 0 l 101 826 z "},"ि":{"ha":289,"x_min":-33,"x_max":772,"o":"m 103 901 l 103 957 q 184 1159 103 1099 q 415 1219 265 1219 q 595 1200 506 1219 q 728 1161 685 1181 l 772 1140 l 772 1061 q 603 1116 707 1092 q 397 1140 500 1140 q 189 957 189 1140 l 189 901 l 322 901 l 322 826 l 188 826 l 188 0 l 101 0 l 101 826 l -33 826 l -33 901 l 103 901 z "},"ी":{"ha":289,"x_min":-176,"x_max":322,"o":"m 101 901 l 101 1051 q 81 1120 101 1099 q 6 1142 60 1142 q -69 1120 -49 1142 q -90 1051 -90 1099 l -90 993 l -176 993 l -176 1053 q 6 1221 -176 1221 q 188 1053 188 1221 l 188 901 l 322 901 l 322 826 l 188 826 l 188 0 l 101 0 l 101 826 l -33 826 l -33 901 l 101 901 z "},"ु":{"ha":0,"x_min":-533,"x_max":49,"o":"m -224 -229 l -122 -229 q -50 -210 -67 -229 q -33 -149 -33 -192 q -52 -86 -33 -106 q -114 -67 -71 -67 q -261 -85 -197 -67 l -261 -11 q -117 8 -201 8 q 8 -28 -32 8 q 49 -147 49 -65 q 11 -266 49 -229 q -115 -303 -26 -303 l -228 -303 q -394 -229 -328 -303 l -533 -85 l -422 -85 l -336 -175 q -224 -229 -282 -229 z "},"ू":{"ha":0,"x_min":-336,"x_max":243,"o":"m -47 -212 l -47 -286 q -181 -306 -106 -306 q -297 -269 -257 -306 q -336 -150 -336 -232 q -298 -31 -336 -68 q -171 6 -260 6 l -125 6 q -14 -15 -56 6 q 67 -83 28 -36 l 243 -299 l 139 -299 l 14 -146 q -51 -84 -24 -100 q -129 -68 -78 -68 l -164 -68 q -237 -87 -221 -68 q -254 -149 -254 -106 q -237 -211 -254 -192 q -167 -231 -219 -231 q -56 -214 -103 -231 q -47 -212 -49 -212 z "},"ृ":{"ha":0,"x_min":-399,"x_max":-99,"o":"m -106 -43 q -210 -31 -156 -31 q -290 -49 -264 -31 q -315 -133 -315 -68 q -290 -218 -315 -197 q -225 -239 -264 -239 q -99 -226 -154 -239 l -99 -304 q -226 -317 -149 -317 q -351 -274 -304 -317 q -399 -133 -399 -231 q -352 6 -399 -35 q -214 46 -306 46 q -106 33 -156 46 l -106 -43 z "},"ॄ":{"ha":0,"x_min":-399,"x_max":-89,"o":"m -312 -376 l -312 -382 q -290 -449 -312 -432 q -203 -465 -267 -465 q -89 -457 -139 -465 l -89 -533 q -221 -542 -133 -542 q -399 -378 -399 -542 q -347 -249 -399 -290 q -399 -122 -399 -208 q -219 46 -399 46 q -143 40 -178 46 q -106 35 -108 35 l -106 -40 q -146 -35 -107 -40 q -225 -29 -185 -29 q -312 -122 -312 -29 l -312 -128 q -290 -192 -311 -176 q -222 -208 -268 -208 l -131 -208 l -131 -285 l -212 -285 q -290 -306 -267 -285 q -312 -376 -312 -328 z "},"ॅ":{"ha":0,"x_min":-365,"x_max":75,"o":"m -8 1158 l 75 1158 l 75 1157 q 20 1029 75 1068 q -145 990 -35 990 q -310 1028 -256 990 q -365 1157 -365 1067 l -365 1158 l -282 1158 q -251 1086 -282 1106 q -144 1067 -219 1067 q -39 1086 -69 1067 q -8 1158 -8 1106 z "},"ॆ":{"ha":0,"x_min":-537,"x_max":-101,"o":"m -183 901 q -213 992 -183 961 q -321 1024 -243 1024 q -486 1072 -435 1024 q -537 1219 -537 1119 l -456 1219 q -426 1128 -456 1160 q -318 1097 -397 1097 q -153 1048 -206 1097 q -101 901 -101 999 l -183 901 z "},"े":{"ha":0,"x_min":-442,"x_max":-101,"o":"m -442 1217 q -385 1219 -419 1219 q -250 1131 -306 1219 l -101 901 l -192 901 l -312 1089 q -406 1144 -349 1144 q -442 1142 -422 1144 l -442 1217 z "},"ै":{"ha":0,"x_min":-569,"x_max":-101,"o":"m -293 1219 q -167 1117 -197 1219 l -101 901 l -181 901 l -235 1078 q -258 1129 -244 1114 q -292 1144 -271 1144 q -332 1142 -312 1144 l -332 1217 q -293 1219 -310 1219 m -569 1217 q -512 1219 -547 1219 q -378 1128 -440 1219 l -229 901 l -317 901 l -440 1089 q -533 1144 -476 1144 q -569 1142 -547 1144 l -569 1217 z "},"ॉ":{"ha":289,"x_min":-72,"x_max":367,"o":"m 283 1164 l 367 1164 l 367 1163 q 313 1033 367 1071 q 147 996 258 996 q -19 1034 35 996 q -72 1163 -72 1072 l -72 1164 l 10 1164 q 40 1092 10 1111 q 146 1072 71 1072 q 252 1092 221 1072 q 283 1164 283 1111 m 101 826 l -33 826 l -33 901 l 322 901 l 322 826 l 188 826 l 188 0 l 101 0 l 101 826 z "},"ॊ":{"ha":289,"x_min":-251,"x_max":322,"o":"m 101 826 l -33 826 l -33 901 l 103 901 q 74 992 103 961 q -33 1024 44 1024 q -199 1072 -147 1024 q -251 1219 -251 1119 l -168 1219 q -139 1128 -168 1160 q -32 1097 -110 1097 q 133 1049 82 1097 q 185 901 185 1000 l 322 901 l 322 826 l 188 826 l 188 0 l 101 0 l 101 826 z "},"ो":{"ha":289,"x_min":-154,"x_max":322,"o":"m 322 901 l 322 826 l 188 826 l 188 0 l 101 0 l 101 826 l -33 826 l -33 901 l 97 901 l -25 1089 q -118 1144 -61 1144 q -154 1142 -132 1144 l -154 1217 q -94 1219 -129 1219 q 39 1131 -19 1219 l 186 901 l 322 901 z "},"ौ":{"ha":289,"x_min":-283,"x_max":322,"o":"m 322 901 l 322 826 l 188 826 l 188 0 l 101 0 l 101 826 l -90 826 l -90 901 l -32 901 l -154 1089 q -247 1144 -192 1144 q -283 1142 -264 1144 l -283 1217 q -228 1219 -261 1219 q -92 1128 -154 1219 l 57 901 l 106 901 l 51 1078 q 27 1129 40 1114 q -8 1144 14 1144 q -46 1142 -29 1144 l -46 1217 q -7 1219 -24 1219 q 119 1117 89 1219 l 183 901 l 322 901 z "},"्":{"ha":0,"x_min":-182,"x_max":43,"o":"m 43 -287 l -51 -287 l -182 -81 l -103 -81 l 43 -287 z "},"ॐ":{"ha":1069,"x_min":67,"x_max":1007,"o":"m 607 342 l 607 729 q 807 908 607 908 q 1007 729 1007 908 l 1007 207 q 947 47 1007 101 q 754 -7 888 -7 q 639 4 703 -7 l 639 85 q 754 74 697 74 q 888 108 853 74 q 922 210 922 142 l 922 728 q 897 801 922 775 q 807 828 872 828 q 717 802 742 828 q 692 728 692 776 l 692 303 q 651 267 692 267 l 440 267 l 440 179 q 385 42 440 92 q 236 -7 329 -7 q 67 14 143 -7 l 67 94 q 222 72 146 72 q 356 181 356 72 l 356 308 q 332 389 356 361 q 239 418 308 417 l 154 418 l 154 497 l 239 497 q 332 526 308 499 q 356 606 356 554 l 356 721 q 222 829 356 829 q 81 804 153 829 l 81 888 q 238 908 146 908 q 385 859 329 908 q 440 722 440 810 l 440 606 q 368 458 440 486 q 439 342 429 432 l 607 342 m 747 1126 l 747 1124 q 693 996 747 1033 q 528 958 639 958 q 363 996 417 958 q 308 1124 308 1033 l 308 1126 l 390 1126 q 422 1053 390 1074 q 528 1033 453 1033 q 634 1053 603 1033 q 665 1126 665 1074 l 747 1126 m 528 1231 q 556 1231 528 1231 q 583 1175 583 1231 q 528 1119 583 1119 q 474 1175 474 1119 q 528 1231 474 1231 z "},"॑":{"ha":0,"x_min":-187,"x_max":-101,"o":"m -187 1293 l -101 1293 l -101 967 l -187 967 l -187 1293 z "},"॒":{"ha":0,"x_min":-561,"x_max":-22,"o":"m -22 -185 l -561 -185 l -561 -110 l -22 -110 l -22 -185 z "},"॓":{"ha":468,"x_min":92,"x_max":329,"o":"m 92 1293 l 183 1293 l 329 967 l 238 967 l 92 1293 z "},"॔":{"ha":456,"x_min":92,"x_max":329,"o":"m 238 1293 l 329 1293 l 183 967 l 92 967 l 238 1293 z "},"क़":{"ha":811,"x_min":-28,"x_max":844,"o":"m 158 -74 q 130 -74 158 -74 q 101 -17 101 -74 q 158 39 101 39 q 214 -17 214 39 q 158 -74 214 -74 m 307 621 l 269 622 q 180 598 206 622 q 154 526 154 574 l 154 268 q 269 172 154 172 q 369 186 322 172 l 369 826 l -28 826 l -28 901 l 844 901 l 844 826 l 454 826 l 454 688 q 551 701 493 701 q 746 529 746 701 l 746 275 q 704 149 746 196 q 576 103 663 103 q 543 104 553 103 l 543 185 q 569 183 551 183 q 642 208 622 183 q 663 278 663 232 l 663 528 q 547 624 663 624 q 454 611 492 624 l 454 0 l 369 0 l 369 110 q 265 96 311 96 q 69 267 69 96 l 69 528 q 265 700 69 700 q 307 696 290 700 l 307 621 z "},"ख़":{"ha":1013,"x_min":-33,"x_max":1044,"o":"m 363 729 q 346 826 363 785 l -33 826 l -33 901 l 1044 901 l 1044 826 l 910 826 l 910 0 l 825 0 l 825 190 q 715 178 781 178 q 528 350 528 178 l 528 525 q 714 699 528 699 q 825 685 761 699 l 825 826 l 431 826 q 446 729 446 794 l 446 560 q 244 361 446 361 q 150 371 196 361 l 150 244 q 381 75 150 75 q 574 99 492 75 l 574 17 q 363 -6 490 -6 q 151 54 235 -6 q 67 244 67 114 l 67 614 l 150 614 l 150 447 q 254 439 200 439 q 363 561 363 439 l 363 729 m 825 607 q 713 621 769 621 q 633 597 656 621 q 610 525 610 572 l 610 350 q 633 278 610 301 q 724 254 656 254 q 825 267 793 254 l 825 607 m -7 -90 q -7 -61 -7 -90 q 49 -33 -7 -33 q 106 -90 106 -33 q 49 -146 106 -146 q -7 -90 -7 -146 z "},"ग़":{"ha":668,"x_min":-32,"x_max":700,"o":"m 43 351 l 82 349 q 181 446 181 349 l 181 826 l -32 826 l -32 901 l 700 901 l 700 826 l 565 826 l 565 0 l 479 0 l 479 826 l 265 826 l 265 443 q 222 316 265 364 q 92 268 178 268 q 43 272 56 268 l 43 351 m 89 88 q 89 116 89 88 q 144 144 89 144 q 200 88 200 144 q 144 32 200 32 q 89 88 89 32 z "},"ज़":{"ha":764,"x_min":-33,"x_max":796,"o":"m 300 493 q 289 590 300 549 l 135 590 l 135 668 l 575 668 l 575 826 l -33 826 l -33 901 l 796 901 l 796 826 l 661 826 l 661 0 l 575 0 l 575 593 l 375 593 q 386 496 386 560 l 386 246 q 332 107 386 156 q 174 58 278 58 q 44 75 107 58 l 44 156 q 172 138 110 138 q 300 247 300 138 l 300 493 m 52 -121 q 24 -121 52 -121 q -4 -65 -4 -121 q 52 -8 -4 -8 q 108 -65 108 -8 q 52 -121 108 -121 z "},"ड़":{"ha":571,"x_min":-33,"x_max":603,"o":"m 503 222 l 503 171 q 268 -8 503 -8 q 81 11 164 -8 l 81 94 q 268 71 171 71 q 417 172 417 71 l 417 221 q 391 290 417 267 q 299 314 365 314 l 274 314 q 71 482 71 314 l 71 535 q 274 701 71 701 l 376 701 l 376 826 l -33 826 l -33 901 l 603 901 l 603 826 l 463 826 l 463 624 l 274 624 q 183 601 208 624 q 157 532 157 578 l 157 483 q 183 415 157 439 q 274 392 208 392 l 299 392 q 503 222 503 392 m 287 -237 q 259 -237 287 -237 q 231 -181 231 -237 q 287 -125 231 -125 q 343 -181 343 -125 q 287 -237 343 -237 z "},"ढ़":{"ha":564,"x_min":-33,"x_max":597,"o":"m 343 -181 q 343 -209 343 -181 q 288 -237 343 -237 q 232 -181 232 -237 q 288 -125 232 -125 q 343 -181 343 -125 m 329 338 q 269 326 294 338 l 269 404 q 338 415 297 415 q 456 373 413 415 q 500 246 500 331 l 500 179 q 288 -7 500 -7 q 76 181 76 -7 l 76 526 q 281 699 76 699 l 369 699 l 369 826 l -33 826 l -33 901 l 597 901 l 597 826 l 454 826 l 454 619 l 281 619 q 188 596 214 619 q 163 525 163 572 l 163 182 q 190 101 163 129 q 289 72 218 72 q 388 101 360 72 q 415 181 415 129 l 415 244 q 329 338 415 338 z "},"फ़":{"ha":835,"x_min":-33,"x_max":867,"o":"m 388 826 l 163 826 l 163 344 q 289 243 163 243 q 388 256 329 243 l 388 826 m 685 519 q 576 615 685 615 q 471 600 519 615 l 471 0 l 388 0 l 388 179 q 283 165 339 165 q 129 212 182 165 q 76 342 76 258 l 76 826 l -33 826 l -33 901 l 867 901 l 867 826 l 471 826 l 471 679 q 576 694 521 694 q 721 648 672 694 q 769 521 769 601 l 769 261 q 725 135 769 181 q 592 90 681 90 l 571 92 l 567 92 l 567 171 q 658 194 632 169 q 685 265 685 218 l 685 519 m 109 -42 q 81 -42 109 -42 q 53 15 53 -42 q 109 71 53 71 q 165 15 165 71 q 109 -42 165 -42 z "},"य़":{"ha":693,"x_min":-33,"x_max":725,"o":"m 258 729 q 249 826 258 778 l -33 826 l -33 901 l 725 901 l 725 826 l 592 826 l 592 0 l 506 0 l 506 135 q 350 118 439 118 q 78 356 78 118 l 78 533 l 107 533 q 227 553 196 533 q 258 635 258 574 l 258 729 m 343 729 l 343 626 q 163 464 343 464 l 163 361 q 208 238 163 278 q 340 199 253 199 q 506 214 426 199 l 506 826 l 333 826 q 343 729 343 793 m 182 -5 q 182 -33 182 -5 q 126 -61 182 -61 q 71 -5 71 -61 q 126 51 71 51 q 182 -5 182 51 z "},"ॠ":{"ha":943,"x_min":-33,"x_max":975,"o":"m 682 501 l 582 503 l 519 503 l 519 0 l 436 0 l 436 169 q 438 358 436 349 q 413 330 433 353 q 369 281 392 307 q 164 68 346 256 l 51 68 l 53 72 l 433 465 l 433 499 q 290 611 433 611 q 178 581 210 611 q 146 493 146 551 l 146 411 l 61 411 l 61 496 q 285 692 61 692 q 433 646 394 692 l 433 826 l -33 826 l -33 901 l 975 901 l 975 826 l 519 826 l 519 583 l 582 583 l 683 582 q 781 608 751 582 q 810 688 810 635 l 810 700 l 893 700 l 893 353 l 831 353 q 752 331 775 353 q 729 251 729 310 q 847 158 729 158 l 874 158 l 874 83 l 825 83 q 752 67 775 83 q 729 -7 729 50 q 753 -81 729 -64 q 849 -97 776 -97 q 936 -94 922 -97 l 936 -169 q 827 -172 919 -172 q 689 -135 735 -172 q 643 -6 643 -97 q 700 124 643 85 q 644 254 644 165 q 685 380 644 343 q 813 419 725 417 l 813 546 q 682 501 771 501 z "},"ॡ":{"ha":858,"x_min":-33,"x_max":890,"o":"m 756 274 l 676 274 q 599 252 622 274 q 576 180 576 231 q 598 112 576 129 q 667 94 619 94 l 731 94 l 731 17 l 676 17 q 599 -5 622 17 q 576 -78 576 -26 q 599 -146 576 -129 q 669 -162 621 -162 l 772 -162 l 772 -239 q 668 -240 765 -240 q 490 -76 490 -240 q 543 54 490 13 q 490 181 490 92 q 669 349 490 349 l 671 349 l 671 493 q 564 586 671 586 q 457 489 457 586 l 457 368 l 371 368 l 371 489 q 264 586 371 586 q 180 560 203 586 q 157 485 157 533 l 157 213 q 188 113 157 149 q 300 78 218 78 l 347 78 l 347 0 l 299 0 q 71 211 71 0 l 71 486 q 119 618 71 571 q 267 665 167 665 q 413 603 368 665 q 550 665 460 665 q 671 631 640 665 l 671 826 l -33 826 l -33 901 l 890 901 l 890 826 l 756 826 l 756 274 z "},"।":{"ha":393,"x_min":206,"x_max":292,"o":"m 206 0 l 206 901 l 292 901 l 292 0 l 206 0 z "},"॥":{"ha":619,"x_min":158,"x_max":518,"o":"m 432 0 l 432 901 l 518 901 l 518 0 l 432 0 m 158 0 l 158 901 l 244 901 l 244 0 l 158 0 z "},"०":{"ha":618,"x_min":83,"x_max":535,"o":"m 442 725 q 309 861 442 861 q 176 725 176 861 l 176 207 q 309 71 176 71 q 442 207 442 71 l 442 725 m 83 726 q 139 886 83 826 q 309 946 194 946 q 479 886 424 946 q 535 726 535 826 l 535 206 q 479 46 535 106 q 309 -14 424 -14 q 139 46 194 -14 q 83 206 83 106 l 83 726 z "},"१":{"ha":383,"x_min":15,"x_max":286,"o":"m 286 932 l 286 0 l 192 0 l 192 836 l 15 708 l 15 815 l 176 932 l 286 932 z "},"२":{"ha":554,"x_min":60,"x_max":492,"o":"m 246 939 q 489 743 489 939 l 489 664 q 464 538 488 585 q 381 450 440 490 l 274 375 q 179 294 204 328 q 154 197 154 260 l 154 88 l 492 88 l 492 0 l 60 0 l 60 200 q 97 338 60 288 q 211 442 133 389 l 319 518 q 378 580 363 546 q 394 669 394 614 l 394 739 q 363 824 394 796 q 242 851 332 851 q 75 824 153 851 l 75 915 q 246 939 146 939 z "},"३":{"ha":543,"x_min":36,"x_max":461,"o":"m 213 939 q 456 740 456 939 l 456 644 q 353 468 456 510 q 461 299 461 433 l 461 193 q 400 46 461 99 q 224 -7 339 -7 q 36 18 108 -7 l 36 111 q 208 79 118 79 q 332 109 297 79 q 367 197 367 139 l 367 290 q 233 424 367 424 l 139 424 l 139 510 l 233 510 q 333 544 304 510 q 361 646 361 579 l 361 736 q 329 823 361 793 q 208 853 297 853 q 54 829 118 853 l 54 919 q 213 939 117 939 z "},"४":{"ha":560,"x_min":14,"x_max":553,"o":"m 553 258 l 553 175 l 458 175 l 458 0 l 367 0 l 367 175 l 14 175 l 14 261 l 311 932 l 458 932 l 458 258 l 553 258 m 368 258 l 368 857 l 103 258 l 368 258 z "},"५":{"ha":581,"x_min":81,"x_max":507,"o":"m 86 932 l 485 932 l 485 844 l 181 844 l 181 544 q 296 551 232 551 q 456 497 404 551 q 507 344 507 442 l 507 192 q 444 46 507 99 q 274 -7 382 -7 q 81 21 167 -7 l 81 114 q 256 79 171 79 q 413 196 413 79 l 413 339 q 385 434 413 404 q 285 464 357 464 q 86 449 251 464 l 86 932 z "},"६":{"ha":600,"x_min":83,"x_max":535,"o":"m 442 379 q 317 496 442 496 q 176 463 233 496 l 176 206 q 309 69 176 69 q 442 206 442 69 l 442 379 m 83 721 q 144 878 83 818 q 317 939 204 939 q 503 914 431 939 l 503 824 q 331 851 429 851 q 176 717 176 851 l 176 550 q 333 581 240 581 q 480 530 425 581 q 535 383 535 479 l 535 206 q 479 46 535 106 q 309 -14 424 -14 q 139 46 194 -14 q 83 206 83 106 l 83 721 z "},"७":{"ha":454,"x_min":7,"x_max":421,"o":"m 7 932 l 421 932 l 421 857 l 329 569 q 269 344 288 436 q 251 136 251 251 l 251 0 l 156 0 l 156 140 q 174 350 156 257 q 235 575 193 443 l 321 846 l 7 846 l 7 932 z "},"८":{"ha":631,"x_min":83,"x_max":549,"o":"m 544 732 l 544 640 q 446 464 544 510 q 549 288 549 417 l 549 200 q 490 44 549 101 q 316 -14 432 -14 q 142 44 200 -14 q 83 200 83 101 l 83 288 q 186 464 83 417 q 86 640 86 511 l 86 732 q 143 888 86 831 q 316 946 200 946 q 488 888 432 946 q 544 732 544 831 m 181 732 l 181 639 q 316 504 181 504 q 451 639 451 504 l 451 732 q 316 863 451 863 q 181 732 181 863 m 454 200 l 454 289 q 315 424 454 424 q 176 289 176 424 l 176 200 q 315 69 176 69 q 454 200 454 69 z "},"९":{"ha":600,"x_min":64,"x_max":517,"o":"m 424 726 q 291 861 424 861 q 158 726 158 861 l 158 549 q 285 425 158 425 q 424 458 374 425 l 424 726 m 64 726 q 120 886 64 826 q 291 946 176 946 q 461 886 406 946 q 517 726 517 826 l 517 204 q 455 51 517 108 q 268 -7 393 -7 q 90 19 176 -7 l 90 111 q 267 79 175 79 q 424 208 424 79 l 424 369 q 271 340 367 340 q 119 394 175 340 q 64 544 64 449 l 64 726 z "},"॰":{"ha":511,"x_min":74,"x_max":444,"o":"m 172 554 q 161 538 172 554 q 150 461 150 522 q 172 369 150 400 q 259 339 194 339 q 347 370 324 339 q 369 461 369 401 q 346 553 369 521 q 258 586 322 586 q 172 554 194 586 m 259 265 q 166 265 259 265 q 74 463 74 265 q 259 661 74 661 q 444 463 444 661 q 259 265 444 265 z "},"ॲ":{"ha":778,"x_min":50,"x_max":854,"o":"m 771 1158 l 854 1158 l 854 1157 q 799 1029 854 1068 q 634 990 744 990 q 469 1028 524 990 q 414 1157 414 1067 l 414 1158 l 497 1158 q 528 1086 497 1106 q 635 1067 560 1067 q 740 1086 710 1067 q 771 1158 771 1106 m 590 371 l 590 901 l 811 901 l 811 826 l 676 826 l 676 0 l 590 0 l 590 296 l 425 296 l 425 233 q 369 97 425 146 q 220 47 314 47 q 50 68 126 47 l 50 150 q 206 126 133 126 q 340 235 338 126 l 340 336 q 317 417 340 389 q 222 446 293 444 l 139 446 l 139 526 l 222 526 q 317 554 293 526 q 340 635 340 582 l 340 721 q 206 829 340 829 q 65 804 138 829 l 65 888 q 222 908 131 908 q 369 859 314 908 q 425 722 425 810 l 425 635 q 353 486 425 514 q 424 371 414 461 l 590 371 z "},"ॽ":{"ha":600,"x_min":93,"x_max":528,"o":"m 93 590 l 93 718 q 144 865 93 810 q 310 921 196 921 q 476 865 425 921 q 528 718 528 810 l 528 472 q 329 271 528 276 l 329 0 l 246 0 l 246 349 l 310 349 q 416 383 389 349 q 443 475 443 418 l 443 717 q 416 806 443 771 q 310 840 389 840 q 204 806 231 840 q 178 717 178 772 l 178 590 l 93 590 z "},"​":{"ha":0,"x_min":0,"x_max":0,"o":""},"‌":{"ha":0,"x_min":-32,"x_max":33,"o":"m 33 -319 l -32 -319 l -32 1126 l 33 1126 l 33 -319 z "},"‍":{"ha":0,"x_min":-176,"x_max":179,"o":"m 33 -319 l -32 -319 l -32 882 l -128 781 l -174 826 l -44 956 l -176 1088 l -131 1133 l 1 1001 l 135 1133 l 179 1089 l 46 956 l 179 824 l 133 778 l 33 882 l 33 -319 z "},"–":{"ha":549,"x_min":56,"x_max":483,"o":"m 56 489 l 483 489 l 483 411 l 56 411 l 56 489 z "},"—":{"ha":869,"x_min":56,"x_max":796,"o":"m 56 490 l 796 490 l 796 413 l 56 413 l 56 490 z "},"‘":{"ha":218,"x_min":40,"x_max":178,"o":"m 86 714 q 40 758 40 714 q 125 989 40 819 l 178 989 l 122 714 l 86 714 z "},"’":{"ha":218,"x_min":40,"x_max":178,"o":"m 132 989 q 178 944 178 989 q 93 714 178 883 l 40 714 l 96 989 l 132 989 z "},"‚":{"ha":218,"x_min":40,"x_max":178,"o":"m 132 114 q 178 69 178 114 q 93 -161 178 8 l 40 -161 l 96 114 l 132 114 z "},"“":{"ha":371,"x_min":40,"x_max":331,"o":"m 86 714 q 40 758 40 714 q 125 989 40 819 l 174 989 l 118 714 l 86 714 m 243 714 q 197 758 197 714 q 226 866 197 793 q 282 989 256 939 l 331 989 l 274 714 l 243 714 z "},"”":{"ha":371,"x_min":40,"x_max":331,"o":"m 128 989 q 174 944 174 989 q 144 836 174 910 q 89 714 115 763 l 40 714 l 96 989 l 128 989 m 285 989 q 331 944 331 989 q 301 838 331 911 q 244 714 271 764 l 197 714 l 253 989 l 285 989 z "},"„":{"ha":371,"x_min":40,"x_max":331,"o":"m 128 114 q 174 69 174 114 q 144 -39 174 35 q 89 -161 115 -112 l 40 -161 l 96 114 l 128 114 m 285 114 q 331 69 331 114 q 301 -37 331 36 q 244 -161 271 -111 l 197 -161 l 253 114 l 285 114 z "},"†":{"ha":488,"x_min":68,"x_max":421,"o":"m 203 1078 l 286 1078 l 279 894 q 421 901 344 901 l 421 826 l 279 833 q 286 643 286 738 l 286 -40 l 203 -40 l 203 643 l 210 833 q 68 826 151 826 l 68 901 l 210 894 q 203 1078 203 992 z "},"‡":{"ha":488,"x_min":68,"x_max":419,"o":"m 203 1078 l 286 1078 l 279 894 q 419 901 338 901 l 419 826 l 279 833 q 279 204 283 521 q 419 211 338 211 l 419 136 l 279 143 q 286 -40 286 71 l 203 -40 l 210 143 q 68 136 151 136 l 68 211 l 210 204 q 210 833 206 519 q 68 826 151 826 l 68 901 l 210 894 q 203 1078 203 992 z "},"•":{"ha":375,"x_min":89,"x_max":286,"o":"m 188 353 q 138 353 188 353 q 89 451 89 353 q 188 550 89 550 q 286 451 286 550 q 188 353 286 353 z "},"…":{"ha":774,"x_min":83,"x_max":682,"o":"m 383 -1 q 355 -1 383 -1 q 326 55 326 -1 q 383 111 326 111 q 439 55 439 111 q 383 -1 439 -1 m 140 -1 q 111 -1 140 -1 q 83 55 83 -1 q 140 111 83 111 q 196 55 196 111 q 140 -1 196 -1 m 626 -1 q 598 -1 626 -1 q 569 55 569 -1 q 626 111 569 111 q 682 55 682 111 q 626 -1 682 -1 z "},"‰":{"ha":1136,"x_min":49,"x_max":1093,"o":"m 828 38 q 808 64 828 38 q 789 183 789 89 q 828 329 789 278 q 941 381 867 381 q 1054 329 1015 381 q 1093 183 1093 278 q 1054 38 1093 89 q 941 -12 1015 -12 q 828 38 867 -12 m 941 58 q 979 58 941 58 q 1017 184 1017 58 q 941 310 1017 310 q 865 184 865 310 q 941 58 865 58 m 465 38 q 445 64 465 38 q 426 183 426 89 q 465 329 426 278 q 578 381 503 381 q 692 329 653 381 q 731 183 731 278 q 692 38 731 89 q 578 -12 653 -12 q 465 38 503 -12 m 503 184 q 503 121 503 184 q 578 58 503 58 q 653 184 653 58 q 578 310 653 310 q 503 184 503 310 m 201 551 q 164 551 201 551 q 88 603 126 551 q 49 748 49 654 q 88 893 49 842 q 201 944 126 944 q 314 893 275 944 q 353 748 353 842 q 314 603 353 654 q 201 551 275 551 m 201 622 q 239 622 201 622 q 276 748 276 622 q 201 874 276 874 q 125 748 125 874 q 201 622 125 622 m 539 932 l 611 932 l 240 0 l 168 0 l 539 932 z "},"‹":{"ha":489,"x_min":97,"x_max":364,"o":"m 265 701 l 364 701 l 194 447 l 364 193 l 265 193 l 97 447 l 265 701 z "},"›":{"ha":468,"x_min":97,"x_max":364,"o":"m 97 701 l 196 701 l 364 447 l 196 193 l 97 193 l 267 447 l 97 701 z "},"⁄":{"ha":332,"x_min":-99,"x_max":432,"o":"m 360 932 l 432 932 l -28 0 l -99 0 l 360 932 z "},"⁴":{"ha":422,"x_min":19,"x_max":411,"o":"m 276 601 l 276 974 l 86 601 l 276 601 m 343 1028 l 343 601 l 411 601 l 411 539 l 343 539 l 343 401 l 276 401 l 276 539 l 19 539 l 19 603 l 238 1028 l 343 1028 z "},"€":{"ha":561,"x_min":19,"x_max":504,"o":"m 188 346 l 188 192 q 222 108 188 136 q 342 79 256 79 q 504 101 428 79 l 504 15 q 340 -7 435 -7 q 93 189 93 -7 l 93 346 l 19 346 l 19 415 l 93 415 l 93 531 l 19 531 l 19 600 l 93 600 l 93 743 q 154 888 93 836 q 340 939 215 939 q 501 917 421 939 l 501 829 q 338 853 419 853 q 222 824 256 853 q 188 739 188 796 l 188 600 l 404 600 l 404 531 l 188 531 l 188 415 l 404 415 l 404 346 l 188 346 z "},"₹":{"ha":632,"x_min":68,"x_max":572,"o":"m 572 901 l 572 826 l 399 826 q 449 725 449 794 l 449 686 l 572 686 l 572 615 l 449 615 l 449 590 q 397 435 449 482 q 219 388 344 388 l 168 388 l 460 0 l 357 0 l 68 388 l 68 464 l 218 464 q 337 492 307 464 q 367 592 367 519 l 367 615 l 69 615 l 69 686 l 367 686 l 367 725 q 238 826 367 826 l 69 826 l 69 901 l 572 901 z "},"ℓ":{"ha":514,"x_min":21,"x_max":471,"o":"m 206 172 q 228 101 206 122 q 302 81 251 81 q 394 94 353 81 l 394 8 q 293 -6 339 -6 q 111 168 111 -6 l 111 207 q 58 165 92 192 q 21 136 25 139 l 21 249 q 111 322 58 278 l 111 804 q 158 954 111 903 q 292 1006 206 1006 q 424 949 378 1006 q 471 785 471 892 q 206 288 471 531 l 206 172 m 206 804 l 206 414 q 378 785 378 599 q 290 917 378 917 q 206 804 206 917 z "},"™":{"ha":764,"x_min":103,"x_max":661,"o":"m 661 971 l 661 649 l 606 649 l 606 810 l 619 939 l 538 649 l 493 649 l 411 939 l 425 810 l 425 649 l 369 649 l 369 971 l 450 971 l 503 783 l 515 719 l 528 783 l 581 971 l 661 971 m 103 922 l 103 971 l 339 971 l 339 922 l 250 922 l 250 649 l 193 649 l 193 922 l 103 922 z "},"Ω":{"ha":660,"x_min":51,"x_max":610,"o":"m 97 726 q 156 885 97 825 q 331 946 215 946 q 505 885 446 946 q 564 726 564 825 l 564 213 q 507 83 564 118 l 610 83 l 610 0 l 382 0 l 382 83 q 469 207 469 94 l 469 725 q 330 860 469 860 q 190 725 190 860 l 190 207 q 279 83 190 94 l 279 0 l 51 0 l 51 83 l 153 83 q 97 213 97 118 l 97 726 z "},"℮":{"ha":925,"x_min":81,"x_max":850,"o":"m 667 657 q 471 710 589 710 q 275 649 353 710 l 275 414 l 667 414 l 667 657 m 850 389 l 849 356 l 275 356 l 275 107 q 472 44 363 44 q 659 85 582 44 q 776 197 736 125 l 826 168 q 483 -14 724 -14 q 191 94 301 -14 q 81 376 81 203 q 190 660 81 550 q 476 769 300 769 q 751 665 653 769 q 850 389 850 561 z "},"∂":{"ha":629,"x_min":90,"x_max":538,"o":"m 314 536 q 182 403 182 536 l 182 204 q 313 71 182 71 q 444 204 444 71 l 444 489 q 314 536 400 536 m 538 426 l 538 203 q 482 46 538 104 q 314 -12 426 -12 q 146 46 201 -12 q 90 203 90 104 l 90 404 q 142 558 90 501 q 301 615 194 615 q 425 574 381 615 q 342 770 399 676 q 218 932 286 864 l 339 932 q 473 720 408 857 q 538 426 538 583 z "},"∆":{"ha":651,"x_min":90,"x_max":568,"o":"m 381 932 l 568 0 l 90 0 l 276 932 l 381 932 m 328 810 l 188 85 l 468 85 l 328 810 z "},"∏":{"ha":657,"x_min":97,"x_max":561,"o":"m 97 932 l 561 932 l 561 0 l 465 0 l 465 847 l 192 847 l 192 0 l 97 0 l 97 932 z "},"∑":{"ha":529,"x_min":40,"x_max":482,"o":"m 40 932 l 482 932 l 482 849 l 140 849 l 315 465 l 140 83 l 482 83 l 482 0 l 40 0 l 40 81 l 215 465 l 40 850 l 40 932 z "},"−":{"ha":604,"x_min":56,"x_max":547,"o":"m 56 489 l 547 489 l 547 411 l 56 411 l 56 489 z "},"∕":{"ha":332,"x_min":-56,"x_max":388,"o":"m 315 932 l 388 932 l 17 0 l -56 0 l 315 932 z "},"∙":{"ha":204,"x_min":43,"x_max":160,"o":"m 160 466 q 160 435 160 466 q 101 404 160 404 q 43 466 43 404 q 101 528 43 528 q 160 466 160 528 z "},"√":{"ha":579,"x_min":49,"x_max":549,"o":"m 49 361 l 49 444 l 193 444 l 289 94 l 454 932 l 549 932 l 356 0 l 222 0 l 124 361 l 49 361 z "},"∞":{"ha":863,"x_min":64,"x_max":799,"o":"m 621 668 q 759 615 719 668 q 799 465 799 561 q 759 316 799 369 q 621 263 719 263 q 517 298 561 263 q 431 396 472 333 q 344 299 389 333 q 240 264 300 264 q 103 317 142 264 q 64 465 64 369 q 103 615 64 561 q 240 668 142 668 q 344 633 300 668 q 431 535 388 597 q 517 633 474 597 q 621 668 561 668 m 162 381 q 166 372 162 381 q 190 354 171 363 q 247 346 210 346 q 316 376 283 346 q 386 465 349 407 q 316 554 349 524 q 242 585 283 585 q 178 567 200 585 q 153 528 157 550 q 149 470 149 507 q 151 416 149 433 q 162 381 153 399 m 475 465 q 547 376 515 406 q 631 346 579 346 q 698 374 682 346 q 714 464 714 401 q 697 556 714 526 q 630 585 681 585 q 547 555 579 585 q 475 465 515 525 z "},"∫":{"ha":378,"x_min":24,"x_max":324,"o":"m 126 931 q 177 1072 126 1024 q 324 1118 228 1119 l 324 1035 q 221 932 221 1035 l 221 1 q 170 -139 221 -90 q 24 -186 119 -187 l 24 -103 q 126 0 126 -103 l 126 931 z "},"≈":{"ha":635,"x_min":60,"x_max":576,"o":"m 576 604 q 512 492 576 521 q 374 500 447 464 l 254 553 q 165 564 201 579 q 139 492 129 549 l 64 492 q 60 531 60 510 q 124 642 60 613 q 263 635 189 671 l 382 582 q 472 569 438 554 q 497 643 507 585 l 572 643 q 576 604 576 625 m 576 399 q 512 287 576 315 q 374 294 447 258 l 254 347 q 165 360 201 375 q 139 286 129 344 l 64 286 q 60 325 60 306 q 124 437 60 408 q 263 429 189 465 l 382 376 q 472 364 438 349 q 497 438 507 379 l 572 438 q 576 399 576 419 z "},"≠":{"ha":624,"x_min":65,"x_max":557,"o":"m 557 535 l 389 535 l 315 365 l 557 365 l 557 288 l 283 288 l 225 153 l 150 153 l 208 288 l 65 288 l 65 365 l 240 365 l 314 535 l 65 535 l 65 613 l 347 613 l 406 750 l 481 750 l 422 613 l 557 613 l 557 535 z "},"≤":{"ha":632,"x_min":64,"x_max":556,"o":"m 556 717 l 556 632 l 136 472 l 556 313 l 556 228 l 64 421 l 64 524 l 556 717 m 64 118 l 64 196 l 556 196 l 556 118 l 64 118 z "},"≥":{"ha":632,"x_min":75,"x_max":567,"o":"m 75 717 l 567 524 l 567 421 l 75 228 l 75 313 l 494 472 l 75 632 l 75 717 m 75 118 l 75 196 l 567 196 l 567 118 l 75 118 z "},"◊":{"ha":582,"x_min":50,"x_max":533,"o":"m 438 393 l 292 735 l 146 393 l 292 53 l 438 393 m 225 789 l 358 789 l 533 393 l 358 0 l 225 0 l 50 393 l 225 789 z "},"◌":{"ha":917,"x_min":61,"x_max":856,"o":"m 374 733 q 366 742 374 733 q 357 778 357 750 q 374 822 357 806 q 418 839 392 839 q 462 822 444 839 q 479 778 479 806 q 462 733 479 750 q 418 717 444 717 q 374 733 392 717 m 594 696 q 581 696 594 696 q 550 714 568 696 q 532 758 532 732 q 549 801 532 783 q 594 819 567 819 q 638 802 621 819 q 654 758 654 785 q 637 714 654 732 q 594 696 619 696 m 681 619 q 673 627 681 619 q 664 663 664 636 q 681 707 664 689 q 725 725 699 725 q 769 708 751 725 q 786 663 786 690 q 769 619 786 636 q 725 601 751 601 q 681 619 699 601 m 750 455 q 742 464 750 455 q 733 499 733 472 q 750 542 733 525 q 794 560 767 560 q 838 542 821 560 q 856 499 856 525 q 838 455 856 472 q 794 438 821 438 q 750 455 767 438 m 738 269 q 728 277 738 269 q 719 313 719 286 q 738 357 719 339 q 781 375 756 375 q 824 357 807 375 q 842 313 842 339 q 824 269 842 286 q 781 251 807 251 q 738 269 756 251 m 635 133 q 627 141 635 133 q 618 176 618 150 q 635 220 618 203 q 679 238 653 238 q 724 220 706 238 q 742 176 742 203 q 724 133 742 150 q 679 115 706 115 q 635 133 653 115 m 467 58 q 458 67 467 58 q 450 103 450 75 q 467 147 450 131 q 511 164 483 164 q 556 147 539 164 q 574 103 574 129 q 556 59 574 76 q 511 42 539 42 q 467 58 483 42 m 336 61 q 323 61 336 61 q 292 79 310 61 q 274 124 274 97 q 292 168 274 150 q 336 186 310 186 q 380 168 363 186 q 397 124 397 150 q 380 79 397 97 q 336 61 363 61 m 150 185 q 142 194 150 185 q 133 229 133 203 q 151 273 133 256 q 194 290 168 290 q 238 273 221 290 q 256 229 256 256 q 238 185 256 203 q 194 168 221 168 q 150 185 167 168 m 78 347 q 70 356 78 347 q 61 390 61 364 q 78 435 61 417 q 122 453 96 453 q 166 435 149 453 q 183 391 183 418 q 166 347 183 364 q 122 331 149 331 q 78 347 96 331 m 97 522 q 88 530 97 522 q 79 565 79 539 q 97 609 79 592 q 142 626 115 626 q 186 609 168 626 q 204 565 204 592 q 186 522 204 539 q 142 504 168 504 q 97 522 115 504 m 254 656 q 241 656 254 656 q 210 673 228 656 q 193 717 193 690 q 210 762 193 744 q 254 779 228 779 q 298 762 281 779 q 315 717 315 744 q 298 673 315 690 q 254 656 281 656 z "},"":{"ha":486,"x_min":186,"x_max":299,"o":"m 261 -85 q 299 -119 299 -85 q 233 -251 299 -158 l 186 -251 l 224 -85 l 261 -85 z "},"ﬁ":{"ha":663,"x_min":47,"x_max":565,"o":"m 565 789 l 565 0 l 471 0 l 471 708 l 221 708 l 221 0 l 126 0 l 126 708 l 47 708 l 47 789 l 126 789 l 126 828 q 364 1019 126 1019 q 539 1000 456 1019 l 539 918 q 376 939 464 939 q 255 913 289 939 q 221 829 221 888 l 221 789 l 565 789 z "},"ﬂ":{"ha":663,"x_min":47,"x_max":565,"o":"m 565 999 l 565 0 l 472 0 l 472 929 q 350 939 414 939 q 253 913 286 939 q 221 829 221 888 l 221 789 l 361 789 l 361 708 l 221 708 l 221 0 l 126 0 l 126 708 l 47 708 l 47 789 l 126 789 l 126 828 q 358 1019 126 1019 q 522 999 443 1019 l 565 999 z "}}}
